%TF.GenerationSoftware,KiCad,Pcbnew,10.0.3*%
%TF.CreationDate,2026-06-22T10:57:01-04:00*%
%TF.ProjectId,esp32bb,65737033-3262-4622-9e6b-696361645f70,100*%
%TF.SameCoordinates,Original*%
%TF.FileFunction,Copper,L4,Bot*%
%TF.FilePolarity,Positive*%
%FSLAX46Y46*%
G04 Gerber Fmt 4.6, Leading zero omitted, Abs format (unit mm)*
G04 Created by KiCad (PCBNEW 10.0.3) date 2026-06-22 10:57:01*
%MOMM*%
%LPD*%
G01*
G04 APERTURE LIST*
G04 Aperture macros list*
%AMRoundRect*
0 Rectangle with rounded corners*
0 $1 Rounding radius*
0 $2 $3 $4 $5 $6 $7 $8 $9 X,Y pos of 4 corners*
0 Add a 4 corners polygon primitive as box body*
4,1,4,$2,$3,$4,$5,$6,$7,$8,$9,$2,$3,0*
0 Add four circle primitives for the rounded corners*
1,1,$1+$1,$2,$3*
1,1,$1+$1,$4,$5*
1,1,$1+$1,$6,$7*
1,1,$1+$1,$8,$9*
0 Add four rect primitives between the rounded corners*
20,1,$1+$1,$2,$3,$4,$5,0*
20,1,$1+$1,$4,$5,$6,$7,0*
20,1,$1+$1,$6,$7,$8,$9,0*
20,1,$1+$1,$8,$9,$2,$3,0*%
%AMFreePoly0*
4,1,6,1.000000,0.000000,0.500000,-0.750000,-0.500000,-0.750000,-0.500000,0.750000,0.500000,0.750000,1.000000,0.000000,1.000000,0.000000,$1*%
%AMFreePoly1*
4,1,6,0.500000,-0.750000,-0.650000,-0.750000,-0.150000,0.000000,-0.650000,0.750000,0.500000,0.750000,0.500000,-0.750000,0.500000,-0.750000,$1*%
G04 Aperture macros list end*
%TA.AperFunction,EtchedComponent*%
%ADD10C,0.000000*%
%TD*%
%TA.AperFunction,ComponentPad*%
%ADD11RoundRect,0.250000X0.450000X-0.450000X0.450000X0.450000X-0.450000X0.450000X-0.450000X-0.450000X0*%
%TD*%
%TA.AperFunction,ComponentPad*%
%ADD12C,1.400000*%
%TD*%
%TA.AperFunction,ComponentPad*%
%ADD13C,2.400000*%
%TD*%
%TA.AperFunction,ComponentPad*%
%ADD14C,1.700000*%
%TD*%
%TA.AperFunction,ComponentPad*%
%ADD15C,2.590800*%
%TD*%
%TA.AperFunction,ComponentPad*%
%ADD16C,0.600000*%
%TD*%
%TA.AperFunction,SMDPad,CuDef*%
%ADD17R,2.300000X2.300000*%
%TD*%
%TA.AperFunction,ComponentPad*%
%ADD18R,1.700000X1.700000*%
%TD*%
%TA.AperFunction,HeatsinkPad*%
%ADD19C,0.500000*%
%TD*%
%TA.AperFunction,HeatsinkPad*%
%ADD20R,1.900000X2.900000*%
%TD*%
%TA.AperFunction,ComponentPad*%
%ADD21O,2.100000X1.000000*%
%TD*%
%TA.AperFunction,ComponentPad*%
%ADD22O,1.800000X1.000000*%
%TD*%
%TA.AperFunction,HeatsinkPad*%
%ADD23C,0.750000*%
%TD*%
%TA.AperFunction,SMDPad,CuDef*%
%ADD24FreePoly0,0.000000*%
%TD*%
%TA.AperFunction,SMDPad,CuDef*%
%ADD25FreePoly1,0.000000*%
%TD*%
%TA.AperFunction,SMDPad,CuDef*%
%ADD26R,1.000000X1.500000*%
%TD*%
%TA.AperFunction,ViaPad*%
%ADD27C,0.750000*%
%TD*%
%TA.AperFunction,Conductor*%
%ADD28C,0.300000*%
%TD*%
%TA.AperFunction,Conductor*%
%ADD29C,0.160000*%
%TD*%
%TA.AperFunction,Conductor*%
%ADD30C,0.200000*%
%TD*%
G04 APERTURE END LIST*
D10*
%TA.AperFunction,EtchedComponent*%
%TO.C,JP1*%
G36*
X30925000Y25100000D02*
G01*
X30425000Y25100000D01*
X30425000Y25700000D01*
X30925000Y25700000D01*
X30925000Y25100000D01*
G37*
%TD.AperFunction*%
%TA.AperFunction,EtchedComponent*%
%TO.C,JP3*%
G36*
X30925000Y17480000D02*
G01*
X30425000Y17480000D01*
X30425000Y18080000D01*
X30925000Y18080000D01*
X30925000Y17480000D01*
G37*
%TD.AperFunction*%
%TD*%
D11*
%TO.P,SW3,1,A_1*%
%TO.N,unconnected-(SW3-A-Pad1)*%
X90827500Y2580000D03*
D12*
%TO.P,SW3,2,B_2*%
%TO.N,Net-(U3-EN)*%
X90827500Y5080000D03*
%TO.P,SW3,3,C_3*%
%TO.N,GND*%
X90827500Y7580000D03*
%TO.P,SW3,4,A_4*%
%TO.N,unconnected-(SW3-A-Pad4)*%
X94127500Y7580000D03*
%TO.P,SW3,5,B_5*%
%TO.N,unconnected-(SW3-B-Pad5)*%
X94127500Y5080000D03*
%TO.P,SW3,6,C_6*%
%TO.N,unconnected-(SW3-C-Pad6)*%
X94127500Y2580000D03*
%TD*%
D13*
%TO.P,SW2,*%
%TO.N,*%
X90405000Y19756001D03*
X90405000Y12756001D03*
D14*
%TO.P,SW2,1,1_1*%
%TO.N,IO0(boot)*%
X92905000Y18506001D03*
%TO.P,SW2,2,2_2*%
%TO.N,GND*%
X92905000Y14006001D03*
%TD*%
D15*
%TO.P,J2,1,Pin_1_1*%
%TO.N,Vbatt*%
X30009000Y66000000D03*
X32549000Y58380000D03*
X27469000Y58380000D03*
%TD*%
%TO.P,J7,1,Pin_1_1*%
%TO.N,GND*%
X10009000Y2000000D03*
X7469000Y9620000D03*
X12549000Y9620000D03*
%TD*%
%TO.P,J8,1,Pin_1_1*%
%TO.N,GND*%
X30009000Y2000000D03*
X27469000Y9620000D03*
X32549000Y9620000D03*
%TD*%
D16*
%TO.P,U7,11,TP_11*%
%TO.N,GND*%
X67699000Y23562000D03*
X67699000Y22562000D03*
D17*
X68198000Y23062000D03*
D16*
X68199000Y23062000D03*
X68699000Y23562000D03*
X68699000Y22562000D03*
%TD*%
D18*
%TO.P,J6,1,Pin_1_1*%
%TO.N,+3.3V*%
X78220000Y4860000D03*
D14*
%TO.P,J6,2,Pin_2_2*%
%TO.N,+5V*%
X78220000Y2320000D03*
%TO.P,J6,3,Pin_3_3*%
%TO.N,unconnected-(J6-Pin_3-Pad3)*%
X75680000Y4860000D03*
%TO.P,J6,4,Pin_4_4*%
%TO.N,+5V*%
X75680000Y2320000D03*
%TO.P,J6,5,Pin_5_5*%
%TO.N,unconnected-(J6-Pin_5-Pad5)*%
X73140000Y4860000D03*
%TO.P,J6,6,Pin_6_6*%
%TO.N,GND*%
X73140000Y2320000D03*
%TO.P,J6,7,Pin_7_7*%
%TO.N,unconnected-(J6-Pin_7-Pad7)*%
X70600000Y4860000D03*
%TO.P,J6,8,Pin_8_8*%
%TO.N,unconnected-(J6-Pin_8-Pad8)*%
X70600000Y2320000D03*
%TO.P,J6,9,Pin_9_9*%
%TO.N,GND*%
X68060000Y4860000D03*
%TO.P,J6,10,Pin_10_10*%
%TO.N,unconnected-(J6-Pin_10-Pad10)*%
X68060000Y2320000D03*
%TO.P,J6,11,Pin_11_11*%
%TO.N,TP_IRQ*%
X65520000Y4860000D03*
%TO.P,J6,12,Pin_12_12*%
%TO.N,unconnected-(J6-Pin_12-Pad12)*%
X65520000Y2320000D03*
%TO.P,J6,13,Pin_13_13*%
%TO.N,unconnected-(J6-Pin_13-Pad13)*%
X62980000Y4860000D03*
%TO.P,J6,14,Pin_14_14*%
%TO.N,GND*%
X62980000Y2320000D03*
%TO.P,J6,15,Pin_15_15*%
%TO.N,unconnected-(J6-Pin_15-Pad15)*%
X60440000Y4860000D03*
%TO.P,J6,16,Pin_16_16*%
%TO.N,unconnected-(J6-Pin_16-Pad16)*%
X60440000Y2320000D03*
%TO.P,J6,17,Pin_17_17*%
%TO.N,+3.3V*%
X57900000Y4860000D03*
%TO.P,J6,18,Pin_18_18*%
%TO.N,LCD_RS*%
X57900000Y2320000D03*
%TO.P,J6,19,Pin_19_19*%
%TO.N,LCD{slash}TP_MOSI*%
X55360000Y4860000D03*
%TO.P,J6,20,Pin_20_20*%
%TO.N,GND*%
X55360000Y2320000D03*
%TO.P,J6,21,Pin_21_21*%
%TO.N,LCD{slash}TP_MISO*%
X52820000Y4860000D03*
%TO.P,J6,22,Pin_22_22*%
%TO.N,LCD_RST*%
X52820000Y2320000D03*
%TO.P,J6,23,Pin_23_23*%
%TO.N,LCD{slash}TP_CLK*%
X50280000Y4860000D03*
%TO.P,J6,24,Pin_24_24*%
%TO.N,LCD_CS*%
X50280000Y2320000D03*
%TO.P,J6,25,Pin_25_25*%
%TO.N,GND*%
X47740000Y4860000D03*
%TO.P,J6,26,Pin_26_26*%
%TO.N,TP_CS*%
X47740000Y2320000D03*
%TD*%
D18*
%TO.P,J5,1,Pin_1_1*%
%TO.N,+5V*%
X43942000Y12954000D03*
D14*
%TO.P,J5,2,Pin_2_2*%
%TO.N,GND*%
X46482000Y12954000D03*
%TO.P,J5,3,Pin_3_3*%
%TO.N,IO26*%
X49022000Y12954000D03*
%TO.P,J5,4,Pin_4_4*%
%TO.N,IO25*%
X51562000Y12954000D03*
%TO.P,J5,5,Pin_5_5*%
%TO.N,IO27*%
X54102000Y12954000D03*
%TO.P,J5,6,Pin_6_6*%
%TO.N,IO0(boot)*%
X56642000Y12954000D03*
%TO.P,J5,7,Pin_7_7*%
%TO.N,IO32*%
X59182000Y12954000D03*
%TO.P,J5,8,Pin_8_8*%
%TO.N,IO22*%
X61722000Y12954000D03*
%TO.P,J5,9,Pin_9_9*%
%TO.N,GND*%
X64262000Y12954000D03*
%TO.P,J5,10,Pin_10_10*%
%TO.N,IO21*%
X66802000Y12954000D03*
%TO.P,J5,11,Pin_11_11*%
%TO.N,I34*%
X69342000Y12954000D03*
%TO.P,J5,12,Pin_12_12*%
%TO.N,Vbatt-VN*%
X71882000Y12954000D03*
%TO.P,J5,13,Pin_13_13*%
%TO.N,I35*%
X74422000Y12954000D03*
%TO.P,J5,14,Pin_14_14*%
%TO.N,+3.3V*%
X76962000Y12954000D03*
%TO.P,J5,15,Pin_15_15*%
%TO.N,GND*%
X79502000Y12954000D03*
%TO.P,J5,16,Pin_16_16*%
%TO.N,-12.4V*%
X82042000Y12954000D03*
%TO.P,J5,17,Pin_17_17*%
%TO.N,GND*%
X84582000Y12954000D03*
%TD*%
D18*
%TO.P,J3,1,Pin_1_1*%
%TO.N,+5V*%
X43942000Y61214000D03*
D14*
%TO.P,J3,2,Pin_2_2*%
%TO.N,+3.3V*%
X46482000Y61214000D03*
%TO.P,J3,3,Pin_3_3*%
%TO.N,IO14*%
X49022000Y61214000D03*
%TO.P,J3,4,Pin_4_4*%
%TO.N,IO12*%
X51562000Y61214000D03*
%TO.P,J3,5,Pin_5_5*%
%TO.N,IO13*%
X54102000Y61214000D03*
%TO.P,J3,6,Pin_6_6*%
%TO.N,IO15*%
X56642000Y61214000D03*
%TO.P,J3,7,Pin_7_7*%
%TO.N,GND*%
X59182000Y61214000D03*
%TO.P,J3,8,Pin_8_8*%
%TO.N,+12.4V*%
X61722000Y61214000D03*
%TD*%
D19*
%TO.P,U6,9,GND_9*%
%TO.N,GND*%
X21274000Y31058000D03*
X21274000Y32258000D03*
X21274000Y33458000D03*
D20*
X20574000Y32258000D03*
D19*
X19874000Y31058000D03*
X19874000Y32258000D03*
X19874000Y33458000D03*
%TD*%
D21*
%TO.P,J4,SH,SHIELD_SH*%
%TO.N,GND*%
X88843000Y34796000D03*
D22*
X93023000Y34796000D03*
D21*
X88843000Y43436000D03*
D22*
X93023000Y43436000D03*
%TD*%
D13*
%TO.P,SW1,*%
%TO.N,*%
X90405000Y30932001D03*
X90405000Y23932001D03*
D14*
%TO.P,SW1,1,1_1*%
%TO.N,EN*%
X92905000Y29682001D03*
%TO.P,SW1,2,2_2*%
%TO.N,GND*%
X92905000Y25182001D03*
%TD*%
D23*
%TO.P,U1,39,GND-PAD_39*%
%TO.N,GND*%
X81098000Y58907000D03*
X79698000Y58907000D03*
X81798000Y58207000D03*
X80398000Y58207000D03*
X78998000Y58207000D03*
X81098000Y57507000D03*
X79698000Y57507000D03*
X81798000Y56807000D03*
X80398000Y56807000D03*
X78998000Y56807000D03*
X81098000Y56107000D03*
X79698000Y56107000D03*
%TD*%
D15*
%TO.P,J1,1,Pin_1_1*%
%TO.N,Vbatt*%
X10009000Y66000000D03*
X12549000Y58380000D03*
X7469000Y58380000D03*
%TD*%
D24*
%TO.P,JP2,1,A_1*%
%TO.N,Batt-Monitor*%
X29950000Y21590000D03*
D25*
%TO.P,JP2,2,B_2*%
%TO.N,Vbatt-VN*%
X31400000Y21590000D03*
%TD*%
D26*
%TO.P,JP1,1,A_1*%
%TO.N,Net-(JP1-A)*%
X31325000Y25400000D03*
%TO.P,JP1,2,B_2*%
%TO.N,Batt-Monitor*%
X30025000Y25400000D03*
%TD*%
%TO.P,JP3,1,A_1*%
%TO.N,Vbatt*%
X30025000Y17780000D03*
%TO.P,JP3,2,B_2*%
%TO.N,Vbatt-VN*%
X31325000Y17780000D03*
%TD*%
D27*
%TO.N,+5V*%
X38608000Y43434000D03*
X82296000Y42926000D03*
X35560000Y43434000D03*
X37084000Y43434000D03*
X52578000Y40894000D03*
X37846000Y43434000D03*
X84181371Y41909629D03*
X56896000Y21590000D03*
X56896000Y23114000D03*
X62611000Y29845000D03*
X53848000Y40894000D03*
X56896000Y22352000D03*
X36322000Y43434000D03*
X51562000Y40894000D03*
%TO.N,GND*%
X74930000Y24892000D03*
X88138000Y67056000D03*
X24384000Y32512000D03*
X51054000Y48260000D03*
X53086000Y51562000D03*
X63106000Y39528680D03*
X65786000Y21284000D03*
X75946000Y24892000D03*
X85090000Y41656000D03*
X67056000Y19050000D03*
X86868000Y35306000D03*
X70878869Y22110869D03*
X82042000Y23368000D03*
X73152000Y24130000D03*
X87122000Y43180000D03*
X67056000Y18034000D03*
X60198000Y52324000D03*
X80518000Y21336000D03*
X68326000Y61722000D03*
X26162000Y30480000D03*
X79756000Y38608000D03*
X64008000Y29718000D03*
X52070000Y51562000D03*
X89154000Y26924000D03*
X22987000Y24003000D03*
X66040000Y39497000D03*
X65823395Y23677000D03*
X79756000Y40640000D03*
X24638000Y33274000D03*
X83312000Y21336000D03*
X40640000Y44958000D03*
X40640000Y46736000D03*
X65786000Y24638000D03*
X76962000Y24892000D03*
X84580000Y36578000D03*
X51816000Y50800000D03*
X19050000Y35052000D03*
X64516000Y39497000D03*
X88138000Y45720000D03*
X51054000Y49530000D03*
X89154000Y15748000D03*
X81788000Y40640000D03*
X40386000Y42418000D03*
X22860000Y25527000D03*
X35560000Y42418000D03*
X37592000Y38354000D03*
X67056000Y17018000D03*
X65179000Y29690000D03*
X34036000Y43688000D03*
X80772000Y39624000D03*
X63246000Y52324000D03*
X23114000Y29464000D03*
X67310000Y26618000D03*
X54610000Y47752000D03*
X51054000Y51562000D03*
X61722000Y50292000D03*
X81788000Y38608000D03*
X84582000Y38862000D03*
X70612000Y26924000D03*
%TO.N,Net-(D4-K)*%
X82550000Y1016000D03*
X16510000Y32766000D03*
%TO.N,V-USB*%
X23112000Y37336000D03*
X89662000Y40894000D03*
X23876000Y37338000D03*
X23112000Y36574000D03*
X24638000Y37338000D03*
X87122000Y36576000D03*
X86106000Y36576000D03*
X23876000Y36576000D03*
X87122000Y41656000D03*
X24638000Y36576000D03*
%TO.N,/Power/Vin*%
X40640000Y38862000D03*
X17780000Y39370000D03*
X40640000Y38100000D03*
X42164000Y38862000D03*
X41402000Y38100000D03*
X17780000Y40640000D03*
X21844000Y40640000D03*
X19812000Y39370000D03*
X21844000Y41910000D03*
X42164000Y38100000D03*
X21844000Y39370000D03*
X19812000Y40640000D03*
X19812000Y41910000D03*
X17780000Y41910000D03*
X41402000Y38862000D03*
%TO.N,Net-(U4-TXD)*%
X83058000Y43434000D03*
X81387000Y36322000D03*
%TO.N,Vbatt*%
X26670000Y17780000D03*
%TO.N,IO0(boot)*%
X76307000Y44450000D03*
X85852000Y28702000D03*
X85852000Y26924000D03*
%TO.N,EN*%
X88138000Y28956000D03*
X85598000Y66548000D03*
%TO.N,Net-(JP1-A)*%
X31369000Y27686000D03*
%TO.N,+3.3V*%
X73000000Y44500000D03*
X87122000Y67056000D03*
X77216000Y32082500D03*
X66675000Y29845000D03*
%TO.N,TP_IRQ*%
X77754820Y61954598D03*
%TO.N,LCD_RS*%
X64008000Y48006000D03*
%TO.N,LCD{slash}TP_MOSI*%
X60452000Y48514000D03*
%TO.N,LCD{slash}TP_MISO*%
X56134000Y33401000D03*
%TO.N,LCD_RST*%
X57912000Y66675000D03*
%TO.N,LCD{slash}TP_CLK*%
X50292000Y37846000D03*
%TO.N,LCD_CS*%
X52832000Y39694000D03*
%TO.N,TP_CS*%
X65278000Y50038000D03*
%TO.N,IO26*%
X47752000Y64643000D03*
%TO.N,IO25*%
X52832000Y65405000D03*
%TO.N,IO27*%
X55372000Y64643000D03*
%TO.N,IO32*%
X79248000Y66675000D03*
%TO.N,IO22*%
X86360000Y61722000D03*
X86360000Y45466000D03*
X73279000Y62357000D03*
%TO.N,IO21*%
X83058000Y61214000D03*
X74041001Y61214001D03*
X81788000Y45466000D03*
%TO.N,I34*%
X81788000Y66294000D03*
%TO.N,Vbatt-VN*%
X40894000Y17780000D03*
%TO.N,I35*%
X80518000Y63500000D03*
%TO.N,Net-(U4-RXD)*%
X80264000Y35384500D03*
X84328000Y42926000D03*
%TO.N,IO12*%
X51562000Y63881000D03*
%TO.N,IO15*%
X56769000Y49530000D03*
%TO.N,Net-(D5-K)*%
X85598000Y762000D03*
X16510000Y31496000D03*
%TO.N,D-*%
X86868000Y38231000D03*
X86868000Y39501000D03*
%TO.N,Batt-Monitor*%
X41402000Y63373000D03*
%TD*%
%TO.N,+5V*%
D28*
X36322000Y43434000D02*
X35560000Y43434000D01*
X37846000Y43434000D02*
X37084000Y43434000D01*
%TO.N,GND*%
X80772000Y39624000D02*
X81788000Y38608000D01*
X79756000Y40640000D02*
X80772000Y39624000D01*
X80772000Y39624000D02*
X81788000Y40640000D01*
X22860000Y25527000D02*
X22987000Y25400000D01*
X63214320Y39528680D02*
X63106000Y39528680D01*
X80772000Y39624000D02*
X79756000Y38608000D01*
%TO.N,Net-(D4-K)*%
D29*
X17846000Y16500000D02*
X20757000Y13589000D01*
X20757000Y13589000D02*
X33911000Y13589000D01*
X79241167Y691667D02*
X79565500Y1016000D01*
X79565500Y1016000D02*
X82550000Y1016000D01*
X16510000Y32766000D02*
X17846000Y31430000D01*
X17846000Y31430000D02*
X17846000Y16500000D01*
X33911000Y13589000D02*
X46808333Y691667D01*
X46808333Y691667D02*
X79241167Y691667D01*
%TO.N,V-USB*%
D28*
X23876000Y37338000D02*
X24638000Y37338000D01*
X24638000Y36576000D02*
X23876000Y36576000D01*
%TO.N,Net-(U4-TXD)*%
D29*
X83058000Y37982997D02*
X83058000Y43434000D01*
X81387000Y36322000D02*
X81397003Y36322000D01*
X83058000Y37982997D02*
X83047997Y37982997D01*
X83047997Y37982997D02*
X81387000Y36322000D01*
%TO.N,Vbatt*%
D28*
X30025000Y17780000D02*
X26670000Y17780000D01*
%TO.N,IO0(boot)*%
D29*
X76200000Y38354000D02*
X85852000Y28702000D01*
X85852000Y26924000D02*
X85852000Y28702000D01*
X76200000Y44343000D02*
X76200000Y38354000D01*
X76307000Y44450000D02*
X76200000Y44343000D01*
%TO.N,EN*%
X86106000Y40894000D02*
X86106000Y42164000D01*
X85344000Y40132000D02*
X86106000Y40894000D01*
X88138000Y28956000D02*
X85344000Y31750000D01*
X86106000Y42164000D02*
X85598000Y42672000D01*
X85344000Y31750000D02*
X85344000Y40132000D01*
X85598000Y42672000D02*
X85598000Y66548000D01*
%TO.N,Net-(JP1-A)*%
X31325000Y25400000D02*
X31325000Y27642000D01*
X31325000Y27642000D02*
X31369000Y27686000D01*
%TO.N,TP_IRQ*%
X65520000Y4860000D02*
X68072000Y7412000D01*
X68072000Y7412000D02*
X68072000Y19140000D01*
X77702598Y61954598D02*
X77754820Y61954598D01*
X69596000Y20664000D02*
X69596000Y53848000D01*
X68072000Y19140000D02*
X69596000Y20664000D01*
X69596000Y53848000D02*
X77702598Y61954598D01*
%TO.N,LCD_RS*%
X63811000Y30423000D02*
X63811000Y47809000D01*
X63303000Y16440000D02*
X63303000Y29915000D01*
X63811000Y47809000D02*
X64008000Y48006000D01*
X59182000Y3556000D02*
X59182000Y6096000D01*
X62992000Y16129000D02*
X63303000Y16440000D01*
X62992000Y9906000D02*
X62992000Y16129000D01*
X59182000Y6096000D02*
X62992000Y9906000D01*
X57946000Y2320000D02*
X59182000Y3556000D01*
X63303000Y29915000D02*
X63811000Y30423000D01*
%TO.N,LCD{slash}TP_MOSI*%
X55360000Y6465000D02*
X60452000Y11557000D01*
X55360000Y4860000D02*
X55360000Y6465000D01*
X60452000Y11557000D02*
X60452000Y48514000D01*
%TO.N,LCD{slash}TP_MISO*%
X56134000Y16002000D02*
X56134000Y33401000D01*
X55372000Y11430000D02*
X55372000Y15240000D01*
X52820000Y4860000D02*
X52820000Y8878000D01*
X52820000Y8878000D02*
X55372000Y11430000D01*
X55372000Y15240000D02*
X56134000Y16002000D01*
%TO.N,LCD_RST*%
X54102000Y3602000D02*
X54102000Y7874000D01*
X57912000Y11684000D02*
X57912000Y49530000D01*
X57912000Y49530000D02*
X57912000Y66675000D01*
X52820000Y2320000D02*
X54102000Y3602000D01*
X54102000Y7874000D02*
X57912000Y11684000D01*
%TO.N,LCD{slash}TP_CLK*%
X50292000Y37592000D02*
X50280000Y37580000D01*
X50292000Y37846000D02*
X50292000Y37592000D01*
X50280000Y37580000D02*
X50280000Y4860000D01*
%TO.N,LCD_CS*%
X51562000Y3602000D02*
X51562000Y10160000D01*
X51562000Y10160000D02*
X52832000Y11430000D01*
X52832000Y11430000D02*
X52832000Y39694000D01*
X50280000Y2320000D02*
X51562000Y3602000D01*
%TO.N,TP_CS*%
X65278000Y50038000D02*
X65278000Y30588021D01*
X64262000Y1524000D02*
X63778000Y1040000D01*
X64262000Y10414000D02*
X64262000Y1524000D01*
X65884000Y29982021D02*
X65884000Y29397979D01*
X65532000Y11684000D02*
X64262000Y10414000D01*
X65171000Y28684979D02*
X65171000Y20808000D01*
X65532000Y20447000D02*
X65532000Y11684000D01*
X65278000Y30588021D02*
X65884000Y29982021D01*
X63778000Y1040000D02*
X49020000Y1040000D01*
X49020000Y1040000D02*
X47740000Y2320000D01*
X65171000Y20808000D02*
X65532000Y20447000D01*
X65884000Y29397979D02*
X65171000Y28684979D01*
%TO.N,IO26*%
X47752000Y14224000D02*
X47752000Y64643000D01*
X49022000Y12954000D02*
X47752000Y14224000D01*
%TO.N,IO25*%
X51562000Y12954000D02*
X51562000Y39116000D01*
X51562000Y39116000D02*
X50292000Y40386000D01*
X50292000Y57150000D02*
X52832000Y59690000D01*
X50292000Y40386000D02*
X50292000Y57150000D01*
X52832000Y59690000D02*
X52832000Y65405000D01*
%TO.N,IO27*%
X55372000Y17272000D02*
X55372000Y64643000D01*
X54102000Y12954000D02*
X54102000Y16002000D01*
X54102000Y16002000D02*
X55372000Y17272000D01*
%TO.N,IO32*%
X71501000Y66675000D02*
X59182000Y54356000D01*
X79248000Y66675000D02*
X71501000Y66675000D01*
X59182000Y54356000D02*
X59182000Y12954000D01*
%TO.N,IO22*%
X86360000Y45466000D02*
X86360000Y61722000D01*
X73279000Y62357000D02*
X65151000Y54229000D01*
X65151000Y54229000D02*
X65151000Y51689000D01*
X61722000Y48260000D02*
X61722000Y12954000D01*
X65151000Y51689000D02*
X61722000Y48260000D01*
%TO.N,IO21*%
X81788000Y53848000D02*
X83058000Y55118000D01*
X66675000Y28847979D02*
X67437000Y29609979D01*
X67437000Y29609979D02*
X67437000Y54610000D01*
X67437000Y54610000D02*
X74041001Y61214001D01*
X66675000Y20320000D02*
X66675000Y28847979D01*
X66294000Y13462000D02*
X66294000Y19939000D01*
X66294000Y19939000D02*
X66675000Y20320000D01*
X66548000Y13208000D02*
X66294000Y13462000D01*
X81788000Y45466000D02*
X81788000Y53848000D01*
X83058000Y55118000D02*
X83058000Y61214000D01*
%TO.N,I34*%
X71882000Y17843500D02*
X69342000Y15303500D01*
X78867000Y61341000D02*
X71882000Y54356000D01*
X81788000Y66294000D02*
X78867000Y63373000D01*
X71882000Y54356000D02*
X71882000Y17843500D01*
X69342000Y15303500D02*
X69342000Y12954000D01*
X78867000Y63373000D02*
X78867000Y61341000D01*
%TO.N,Vbatt-VN*%
D28*
X31400000Y21590000D02*
X31400000Y17855000D01*
X31400000Y17855000D02*
X31325000Y17780000D01*
X31325000Y17780000D02*
X40894000Y17780000D01*
%TO.N,I35*%
D29*
X74422000Y12954000D02*
X78613000Y17145000D01*
X75311000Y37338000D02*
X75311000Y56261000D01*
X75311000Y56261000D02*
X80518000Y61468000D01*
X78613000Y34036000D02*
X75311000Y37338000D01*
X80518000Y61468000D02*
X80518000Y63500000D01*
X78613000Y17145000D02*
X78613000Y34036000D01*
%TO.N,Net-(U4-RXD)*%
X83566000Y42164000D02*
X83566000Y37338000D01*
X81534000Y35306000D02*
X80342500Y35306000D01*
X84328000Y42926000D02*
X83566000Y42164000D01*
X83566000Y37338000D02*
X81534000Y35306000D01*
X80342500Y35306000D02*
X80264000Y35384500D01*
%TO.N,IO12*%
X51562000Y63881000D02*
X51562000Y61214000D01*
%TO.N,IO15*%
X56642000Y61214000D02*
X56642000Y49657000D01*
X56642000Y49657000D02*
X56769000Y49530000D01*
%TO.N,Net-(D5-K)*%
X33400000Y12000000D02*
X20500000Y12000000D01*
X85598000Y762000D02*
X85179333Y343333D01*
X45056667Y343333D02*
X33400000Y12000000D01*
X85179333Y343333D02*
X45056667Y343333D01*
X16510000Y15990000D02*
X16510000Y31496000D01*
X20500000Y12000000D02*
X16510000Y15990000D01*
%TO.N,D-*%
D30*
X86868000Y39501000D02*
X86868000Y38231000D01*
%TO.N,Batt-Monitor*%
D29*
X30025000Y25400000D02*
X30025000Y48186000D01*
X30025000Y48186000D02*
X41402000Y59563000D01*
X30025000Y21665000D02*
X29950000Y21590000D01*
X41402000Y59563000D02*
X41402000Y63373000D01*
X30025000Y25400000D02*
X30025000Y21665000D01*
%TD*%
M02*
