%TF.GenerationSoftware,KiCad,Pcbnew,10.0.3*%
%TF.CreationDate,2026-06-22T10:57:01-04:00*%
%TF.ProjectId,esp32bb,65737033-3262-4622-9e6b-696361645f70,100*%
%TF.SameCoordinates,Original*%
%TF.FileFunction,Soldermask,Bot*%
%TF.FilePolarity,Negative*%
%FSLAX46Y46*%
G04 Gerber Fmt 4.6, Leading zero omitted, Abs format (unit mm)*
G04 Created by KiCad (PCBNEW 10.0.3) date 2026-06-22 10:57:01*
%MOMM*%
%LPD*%
G01*
G04 APERTURE LIST*
G04 Aperture macros list*
%AMRoundRect*
0 Rectangle with rounded corners*
0 $1 Rounding radius*
0 $2 $3 $4 $5 $6 $7 $8 $9 X,Y pos of 4 corners*
0 Add a 4 corners polygon primitive as box body*
4,1,4,$2,$3,$4,$5,$6,$7,$8,$9,$2,$3,0*
0 Add four circle primitives for the rounded corners*
1,1,$1+$1,$2,$3*
1,1,$1+$1,$4,$5*
1,1,$1+$1,$6,$7*
1,1,$1+$1,$8,$9*
0 Add four rect primitives between the rounded corners*
20,1,$1+$1,$2,$3,$4,$5,0*
20,1,$1+$1,$4,$5,$6,$7,0*
20,1,$1+$1,$6,$7,$8,$9,0*
20,1,$1+$1,$8,$9,$2,$3,0*%
%AMFreePoly0*
4,1,23,0.586777,0.930194,0.656366,0.874698,0.666410,0.860940,1.166410,0.110940,1.198065,0.027751,1.190491,-0.060935,1.166410,-0.110940,0.666410,-0.860940,0.601795,-0.922156,0.517019,-0.949275,0.500000,-0.950000,-0.500000,-0.950000,-0.586777,-0.930194,-0.656366,-0.874698,-0.694986,-0.794504,-0.700000,-0.750000,-0.700000,0.750000,-0.680194,0.836777,-0.624698,0.906366,-0.544504,0.944986,
-0.500000,0.950000,0.500000,0.950000,0.586777,0.930194,0.586777,0.930194,$1*%
%AMFreePoly1*
4,1,24,0.586777,0.930194,0.656366,0.874698,0.694986,0.794504,0.700000,0.750000,0.700000,-0.750000,0.680194,-0.836777,0.624698,-0.906366,0.544504,-0.944986,0.500000,-0.950000,-0.650000,-0.950000,-0.736777,-0.930194,-0.806366,-0.874698,-0.844986,-0.794504,-0.844986,-0.705496,-0.816410,-0.639060,-0.390370,0.000000,-0.816410,0.639060,-0.848065,0.722249,-0.840491,0.810935,-0.795188,0.887551,
-0.721129,0.936924,-0.650000,0.950000,0.500000,0.950000,0.586777,0.930194,0.586777,0.930194,$1*%
G04 Aperture macros list end*
%ADD10RoundRect,0.321429X0.578571X-0.578571X0.578571X0.578571X-0.578571X0.578571X-0.578571X-0.578571X0*%
%ADD11C,1.800000*%
%ADD12C,2.800000*%
%ADD13C,2.100000*%
%ADD14C,2.990800*%
%ADD15C,1.000000*%
%ADD16RoundRect,0.200000X-0.850000X0.850000X-0.850000X-0.850000X0.850000X-0.850000X0.850000X0.850000X0*%
%ADD17RoundRect,0.200000X0.850000X-0.850000X0.850000X0.850000X-0.850000X0.850000X-0.850000X-0.850000X0*%
%ADD18C,1.050000*%
%ADD19O,2.500000X1.400000*%
%ADD20O,2.200000X1.400000*%
%ADD21C,1.150000*%
%ADD22FreePoly0,0.000000*%
%ADD23FreePoly1,0.000000*%
%ADD24RoundRect,0.200000X0.500000X0.750000X-0.500000X0.750000X-0.500000X-0.750000X0.500000X-0.750000X0*%
%ADD25RoundRect,0.200000X-0.500000X-0.750000X0.500000X-0.750000X0.500000X0.750000X-0.500000X0.750000X0*%
G04 APERTURE END LIST*
%TO.C,JP2*%
G36*
X29450000Y22340000D02*
G01*
X31900000Y22340000D01*
X31900000Y20840000D01*
X29450000Y20840000D01*
X29450000Y22340000D01*
G37*
%TO.C,JP1*%
G36*
X30525000Y26150000D02*
G01*
X30825000Y26150000D01*
X30825000Y24650000D01*
X30525000Y24650000D01*
X30525000Y26150000D01*
G37*
%TO.C,JP3*%
G36*
X30525000Y18530000D02*
G01*
X30825000Y18530000D01*
X30825000Y17030000D01*
X30525000Y17030000D01*
X30525000Y18530000D01*
G37*
%TD*%
D10*
%TO.C,SW3*%
X90827500Y2580000D03*
D11*
X90827500Y5080000D03*
X90827500Y7580000D03*
X94127500Y7580000D03*
X94127500Y5080000D03*
X94127500Y2580000D03*
%TD*%
D12*
%TO.C,SW2*%
X90405000Y19756001D03*
X90405000Y12756001D03*
D13*
X92905000Y18506001D03*
X92905000Y14006001D03*
%TD*%
D14*
%TO.C,J2*%
X30009000Y66000000D03*
X32549000Y58380000D03*
X27469000Y58380000D03*
%TD*%
%TO.C,J7*%
X10009000Y2000000D03*
X7469000Y9620000D03*
X12549000Y9620000D03*
%TD*%
%TO.C,J8*%
X30009000Y2000000D03*
X27469000Y9620000D03*
X32549000Y9620000D03*
%TD*%
D15*
%TO.C,U7*%
X67699000Y23562000D03*
X67699000Y22562000D03*
X68199000Y23062000D03*
X68699000Y23562000D03*
X68699000Y22562000D03*
%TD*%
D16*
%TO.C,J6*%
X78220000Y4860000D03*
D13*
X78220000Y2320000D03*
X75680000Y4860000D03*
X75680000Y2320000D03*
X73140000Y4860000D03*
X73140000Y2320000D03*
X70600000Y4860000D03*
X70600000Y2320000D03*
X68060000Y4860000D03*
X68060000Y2320000D03*
X65520000Y4860000D03*
X65520000Y2320000D03*
X62980000Y4860000D03*
X62980000Y2320000D03*
X60440000Y4860000D03*
X60440000Y2320000D03*
X57900000Y4860000D03*
X57900000Y2320000D03*
X55360000Y4860000D03*
X55360000Y2320000D03*
X52820000Y4860000D03*
X52820000Y2320000D03*
X50280000Y4860000D03*
X50280000Y2320000D03*
X47740000Y4860000D03*
X47740000Y2320000D03*
%TD*%
D17*
%TO.C,J5*%
X43942000Y12954000D03*
D13*
X46482000Y12954000D03*
X49022000Y12954000D03*
X51562000Y12954000D03*
X54102000Y12954000D03*
X56642000Y12954000D03*
X59182000Y12954000D03*
X61722000Y12954000D03*
X64262000Y12954000D03*
X66802000Y12954000D03*
X69342000Y12954000D03*
X71882000Y12954000D03*
X74422000Y12954000D03*
X76962000Y12954000D03*
X79502000Y12954000D03*
X82042000Y12954000D03*
X84582000Y12954000D03*
%TD*%
D17*
%TO.C,J3*%
X43942000Y61214000D03*
D13*
X46482000Y61214000D03*
X49022000Y61214000D03*
X51562000Y61214000D03*
X54102000Y61214000D03*
X56642000Y61214000D03*
X59182000Y61214000D03*
X61722000Y61214000D03*
%TD*%
D18*
%TO.C,J4*%
X89343000Y36226000D03*
X89343000Y42006000D03*
D19*
X88843000Y34796000D03*
D20*
X93023000Y34796000D03*
D19*
X88843000Y43436000D03*
D20*
X93023000Y43436000D03*
%TD*%
D12*
%TO.C,SW1*%
X90405000Y30932001D03*
X90405000Y23932001D03*
D13*
X92905000Y29682001D03*
X92905000Y25182001D03*
%TD*%
D21*
%TO.C,U1*%
X81098000Y58907000D03*
X79698000Y58907000D03*
X81798000Y58207000D03*
X80398000Y58207000D03*
X78998000Y58207000D03*
X81098000Y57507000D03*
X79698000Y57507000D03*
X81798000Y56807000D03*
X80398000Y56807000D03*
X78998000Y56807000D03*
X81098000Y56107000D03*
X79698000Y56107000D03*
%TD*%
D14*
%TO.C,J1*%
X10009000Y66000000D03*
X12549000Y58380000D03*
X7469000Y58380000D03*
%TD*%
D22*
%TO.C,JP2*%
X29950000Y21590000D03*
D23*
X31400000Y21590000D03*
%TD*%
D24*
%TO.C,JP1*%
X31325000Y25400000D03*
X30025000Y25400000D03*
%TD*%
D25*
%TO.C,JP3*%
X30025000Y17780000D03*
X31325000Y17780000D03*
%TD*%
M02*
