%TF.GenerationSoftware,KiCad,Pcbnew,10.0.3*%
%TF.CreationDate,2026-06-22T10:57:01-04:00*%
%TF.ProjectId,esp32bb,65737033-3262-4622-9e6b-696361645f70,100*%
%TF.SameCoordinates,Original*%
%TF.FileFunction,Legend,Bot*%
%TF.FilePolarity,Positive*%
%FSLAX46Y46*%
G04 Gerber Fmt 4.6, Leading zero omitted, Abs format (unit mm)*
G04 Created by KiCad (PCBNEW 10.0.3) date 2026-06-22 10:57:01*
%MOMM*%
%LPD*%
G01*
G04 APERTURE LIST*
G04 Aperture macros list*
%AMRoundRect*
0 Rectangle with rounded corners*
0 $1 Rounding radius*
0 $2 $3 $4 $5 $6 $7 $8 $9 X,Y pos of 4 corners*
0 Add a 4 corners polygon primitive as box body*
4,1,4,$2,$3,$4,$5,$6,$7,$8,$9,$2,$3,0*
0 Add four circle primitives for the rounded corners*
1,1,$1+$1,$2,$3*
1,1,$1+$1,$4,$5*
1,1,$1+$1,$6,$7*
1,1,$1+$1,$8,$9*
0 Add four rect primitives between the rounded corners*
20,1,$1+$1,$2,$3,$4,$5,0*
20,1,$1+$1,$4,$5,$6,$7,0*
20,1,$1+$1,$6,$7,$8,$9,0*
20,1,$1+$1,$8,$9,$2,$3,0*%
%AMFreePoly0*
4,1,23,0.586777,0.930194,0.656366,0.874698,0.666410,0.860940,1.166410,0.110940,1.198065,0.027751,1.190491,-0.060935,1.166410,-0.110940,0.666410,-0.860940,0.601795,-0.922156,0.517019,-0.949275,0.500000,-0.950000,-0.500000,-0.950000,-0.586777,-0.930194,-0.656366,-0.874698,-0.694986,-0.794504,-0.700000,-0.750000,-0.700000,0.750000,-0.680194,0.836777,-0.624698,0.906366,-0.544504,0.944986,
-0.500000,0.950000,0.500000,0.950000,0.586777,0.930194,0.586777,0.930194,$1*%
%AMFreePoly1*
4,1,24,0.586777,0.930194,0.656366,0.874698,0.694986,0.794504,0.700000,0.750000,0.700000,-0.750000,0.680194,-0.836777,0.624698,-0.906366,0.544504,-0.944986,0.500000,-0.950000,-0.650000,-0.950000,-0.736777,-0.930194,-0.806366,-0.874698,-0.844986,-0.794504,-0.844986,-0.705496,-0.816410,-0.639060,-0.390370,0.000000,-0.816410,0.639060,-0.848065,0.722249,-0.840491,0.810935,-0.795188,0.887551,
-0.721129,0.936924,-0.650000,0.950000,0.500000,0.950000,0.586777,0.930194,0.586777,0.930194,$1*%
G04 Aperture macros list end*
%ADD10C,0.150000*%
%ADD11C,0.152400*%
%ADD12C,0.304800*%
%ADD13C,0.120000*%
%ADD14C,0.010000*%
%ADD15RoundRect,0.321429X0.578571X-0.578571X0.578571X0.578571X-0.578571X0.578571X-0.578571X-0.578571X0*%
%ADD16C,1.800000*%
%ADD17C,2.800000*%
%ADD18C,2.100000*%
%ADD19C,2.990800*%
%ADD20C,1.000000*%
%ADD21RoundRect,0.200000X-0.850000X0.850000X-0.850000X-0.850000X0.850000X-0.850000X0.850000X0.850000X0*%
%ADD22RoundRect,0.200000X0.850000X-0.850000X0.850000X0.850000X-0.850000X0.850000X-0.850000X-0.850000X0*%
%ADD23C,1.050000*%
%ADD24O,2.500000X1.400000*%
%ADD25O,2.200000X1.400000*%
%ADD26C,1.150000*%
%ADD27FreePoly0,0.000000*%
%ADD28FreePoly1,0.000000*%
%ADD29RoundRect,0.200000X0.500000X0.750000X-0.500000X0.750000X-0.500000X-0.750000X0.500000X-0.750000X0*%
%ADD30RoundRect,0.200000X-0.500000X-0.750000X0.500000X-0.750000X0.500000X0.750000X-0.500000X0.750000X0*%
G04 APERTURE END LIST*
D10*
X17081500Y27876500D02*
X27876500Y27876500D01*
X27876500Y15557500D01*
X17081500Y15557500D01*
X17081500Y27876500D01*
X25857006Y20542569D02*
X25857006Y19828284D01*
X25857006Y19828284D02*
X25904625Y19685427D01*
X25904625Y19685427D02*
X25999863Y19590188D01*
X25999863Y19590188D02*
X26142720Y19542569D01*
X26142720Y19542569D02*
X26237958Y19542569D01*
X25380815Y19542569D02*
X25380815Y20542569D01*
X25380815Y20542569D02*
X24999863Y20542569D01*
X24999863Y20542569D02*
X24904625Y20494950D01*
X24904625Y20494950D02*
X24857006Y20447331D01*
X24857006Y20447331D02*
X24809387Y20352093D01*
X24809387Y20352093D02*
X24809387Y20209236D01*
X24809387Y20209236D02*
X24857006Y20113998D01*
X24857006Y20113998D02*
X24904625Y20066379D01*
X24904625Y20066379D02*
X24999863Y20018760D01*
X24999863Y20018760D02*
X25380815Y20018760D01*
X23857006Y19542569D02*
X24428434Y19542569D01*
X24142720Y19542569D02*
X24142720Y20542569D01*
X24142720Y20542569D02*
X24237958Y20399712D01*
X24237958Y20399712D02*
X24333196Y20304474D01*
X24333196Y20304474D02*
X24428434Y20256855D01*
X21999862Y20542569D02*
X21333196Y19542569D01*
X21333196Y20542569D02*
X21999862Y19542569D01*
X18476052Y20542569D02*
X18285576Y20542569D01*
X18285576Y20542569D02*
X18190338Y20494950D01*
X18190338Y20494950D02*
X18095100Y20399712D01*
X18095100Y20399712D02*
X18047481Y20209236D01*
X18047481Y20209236D02*
X18047481Y19875903D01*
X18047481Y19875903D02*
X18095100Y19685427D01*
X18095100Y19685427D02*
X18190338Y19590188D01*
X18190338Y19590188D02*
X18285576Y19542569D01*
X18285576Y19542569D02*
X18476052Y19542569D01*
X18476052Y19542569D02*
X18571290Y19590188D01*
X18571290Y19590188D02*
X18666528Y19685427D01*
X18666528Y19685427D02*
X18714147Y19875903D01*
X18714147Y19875903D02*
X18714147Y20209236D01*
X18714147Y20209236D02*
X18666528Y20399712D01*
X18666528Y20399712D02*
X18571290Y20494950D01*
X18571290Y20494950D02*
X18476052Y20542569D01*
X25857006Y18932625D02*
X25857006Y18218340D01*
X25857006Y18218340D02*
X25904625Y18075483D01*
X25904625Y18075483D02*
X25999863Y17980244D01*
X25999863Y17980244D02*
X26142720Y17932625D01*
X26142720Y17932625D02*
X26237958Y17932625D01*
X25380815Y17932625D02*
X25380815Y18932625D01*
X25380815Y18932625D02*
X24999863Y18932625D01*
X24999863Y18932625D02*
X24904625Y18885006D01*
X24904625Y18885006D02*
X24857006Y18837387D01*
X24857006Y18837387D02*
X24809387Y18742149D01*
X24809387Y18742149D02*
X24809387Y18599292D01*
X24809387Y18599292D02*
X24857006Y18504054D01*
X24857006Y18504054D02*
X24904625Y18456435D01*
X24904625Y18456435D02*
X24999863Y18408816D01*
X24999863Y18408816D02*
X25380815Y18408816D01*
X24428434Y18837387D02*
X24380815Y18885006D01*
X24380815Y18885006D02*
X24285577Y18932625D01*
X24285577Y18932625D02*
X24047482Y18932625D01*
X24047482Y18932625D02*
X23952244Y18885006D01*
X23952244Y18885006D02*
X23904625Y18837387D01*
X23904625Y18837387D02*
X23857006Y18742149D01*
X23857006Y18742149D02*
X23857006Y18646911D01*
X23857006Y18646911D02*
X23904625Y18504054D01*
X23904625Y18504054D02*
X24476053Y17932625D01*
X24476053Y17932625D02*
X23857006Y17932625D01*
X21714148Y18932625D02*
X21523672Y18932625D01*
X21523672Y18932625D02*
X21428434Y18885006D01*
X21428434Y18885006D02*
X21333196Y18789768D01*
X21333196Y18789768D02*
X21285577Y18599292D01*
X21285577Y18599292D02*
X21285577Y18265959D01*
X21285577Y18265959D02*
X21333196Y18075483D01*
X21333196Y18075483D02*
X21428434Y17980244D01*
X21428434Y17980244D02*
X21523672Y17932625D01*
X21523672Y17932625D02*
X21714148Y17932625D01*
X21714148Y17932625D02*
X21809386Y17980244D01*
X21809386Y17980244D02*
X21904624Y18075483D01*
X21904624Y18075483D02*
X21952243Y18265959D01*
X21952243Y18265959D02*
X21952243Y18599292D01*
X21952243Y18599292D02*
X21904624Y18789768D01*
X21904624Y18789768D02*
X21809386Y18885006D01*
X21809386Y18885006D02*
X21714148Y18932625D01*
X18666528Y18932625D02*
X17999862Y17932625D01*
X17999862Y18932625D02*
X18666528Y17932625D01*
X25857006Y17322681D02*
X25857006Y16608396D01*
X25857006Y16608396D02*
X25904625Y16465539D01*
X25904625Y16465539D02*
X25999863Y16370300D01*
X25999863Y16370300D02*
X26142720Y16322681D01*
X26142720Y16322681D02*
X26237958Y16322681D01*
X25380815Y16322681D02*
X25380815Y17322681D01*
X25380815Y17322681D02*
X24999863Y17322681D01*
X24999863Y17322681D02*
X24904625Y17275062D01*
X24904625Y17275062D02*
X24857006Y17227443D01*
X24857006Y17227443D02*
X24809387Y17132205D01*
X24809387Y17132205D02*
X24809387Y16989348D01*
X24809387Y16989348D02*
X24857006Y16894110D01*
X24857006Y16894110D02*
X24904625Y16846491D01*
X24904625Y16846491D02*
X24999863Y16798872D01*
X24999863Y16798872D02*
X25380815Y16798872D01*
X24476053Y17322681D02*
X23857006Y17322681D01*
X23857006Y17322681D02*
X24190339Y16941729D01*
X24190339Y16941729D02*
X24047482Y16941729D01*
X24047482Y16941729D02*
X23952244Y16894110D01*
X23952244Y16894110D02*
X23904625Y16846491D01*
X23904625Y16846491D02*
X23857006Y16751253D01*
X23857006Y16751253D02*
X23857006Y16513158D01*
X23857006Y16513158D02*
X23904625Y16417920D01*
X23904625Y16417920D02*
X23952244Y16370300D01*
X23952244Y16370300D02*
X24047482Y16322681D01*
X24047482Y16322681D02*
X24333196Y16322681D01*
X24333196Y16322681D02*
X24428434Y16370300D01*
X24428434Y16370300D02*
X24476053Y16417920D01*
X21999862Y17322681D02*
X21333196Y16322681D01*
X21333196Y17322681D02*
X21999862Y16322681D01*
X18476052Y17322681D02*
X18285576Y17322681D01*
X18285576Y17322681D02*
X18190338Y17275062D01*
X18190338Y17275062D02*
X18095100Y17179824D01*
X18095100Y17179824D02*
X18047481Y16989348D01*
X18047481Y16989348D02*
X18047481Y16656015D01*
X18047481Y16656015D02*
X18095100Y16465539D01*
X18095100Y16465539D02*
X18190338Y16370300D01*
X18190338Y16370300D02*
X18285576Y16322681D01*
X18285576Y16322681D02*
X18476052Y16322681D01*
X18476052Y16322681D02*
X18571290Y16370300D01*
X18571290Y16370300D02*
X18666528Y16465539D01*
X18666528Y16465539D02*
X18714147Y16656015D01*
X18714147Y16656015D02*
X18714147Y16989348D01*
X18714147Y16989348D02*
X18666528Y17179824D01*
X18666528Y17179824D02*
X18571290Y17275062D01*
X18571290Y17275062D02*
X18476052Y17322681D01*
X26746006Y27228681D02*
X26746006Y26514396D01*
X26746006Y26514396D02*
X26793625Y26371539D01*
X26793625Y26371539D02*
X26888863Y26276300D01*
X26888863Y26276300D02*
X27031720Y26228681D01*
X27031720Y26228681D02*
X27126958Y26228681D01*
X25793625Y27228681D02*
X26269815Y27228681D01*
X26269815Y27228681D02*
X26317434Y26752491D01*
X26317434Y26752491D02*
X26269815Y26800110D01*
X26269815Y26800110D02*
X26174577Y26847729D01*
X26174577Y26847729D02*
X25936482Y26847729D01*
X25936482Y26847729D02*
X25841244Y26800110D01*
X25841244Y26800110D02*
X25793625Y26752491D01*
X25793625Y26752491D02*
X25746006Y26657253D01*
X25746006Y26657253D02*
X25746006Y26419158D01*
X25746006Y26419158D02*
X25793625Y26323920D01*
X25793625Y26323920D02*
X25841244Y26276300D01*
X25841244Y26276300D02*
X25936482Y26228681D01*
X25936482Y26228681D02*
X26174577Y26228681D01*
X26174577Y26228681D02*
X26269815Y26276300D01*
X26269815Y26276300D02*
X26317434Y26323920D01*
X25317434Y26323920D02*
X25269815Y26276300D01*
X25269815Y26276300D02*
X25317434Y26228681D01*
X25317434Y26228681D02*
X25365053Y26276300D01*
X25365053Y26276300D02*
X25317434Y26323920D01*
X25317434Y26323920D02*
X25317434Y26228681D01*
X24317435Y26228681D02*
X24888863Y26228681D01*
X24603149Y26228681D02*
X24603149Y27228681D01*
X24603149Y27228681D02*
X24698387Y27085824D01*
X24698387Y27085824D02*
X24793625Y26990586D01*
X24793625Y26990586D02*
X24888863Y26942967D01*
X23936482Y27133443D02*
X23888863Y27181062D01*
X23888863Y27181062D02*
X23793625Y27228681D01*
X23793625Y27228681D02*
X23555530Y27228681D01*
X23555530Y27228681D02*
X23460292Y27181062D01*
X23460292Y27181062D02*
X23412673Y27133443D01*
X23412673Y27133443D02*
X23365054Y27038205D01*
X23365054Y27038205D02*
X23365054Y26942967D01*
X23365054Y26942967D02*
X23412673Y26800110D01*
X23412673Y26800110D02*
X23984101Y26228681D01*
X23984101Y26228681D02*
X23365054Y26228681D01*
X22193568Y21720423D02*
X21193568Y22053756D01*
X21193568Y22053756D02*
X22193568Y22387089D01*
X21193568Y22720423D02*
X22193568Y22720423D01*
X21812616Y22720423D02*
X21860235Y22815661D01*
X21860235Y22815661D02*
X21860235Y23006137D01*
X21860235Y23006137D02*
X21812616Y23101375D01*
X21812616Y23101375D02*
X21764997Y23148994D01*
X21764997Y23148994D02*
X21669759Y23196613D01*
X21669759Y23196613D02*
X21384045Y23196613D01*
X21384045Y23196613D02*
X21288807Y23148994D01*
X21288807Y23148994D02*
X21241188Y23101375D01*
X21241188Y23101375D02*
X21193568Y23006137D01*
X21193568Y23006137D02*
X21193568Y22815661D01*
X21193568Y22815661D02*
X21241188Y22720423D01*
X21193568Y24053756D02*
X21717378Y24053756D01*
X21717378Y24053756D02*
X21812616Y24006137D01*
X21812616Y24006137D02*
X21860235Y23910899D01*
X21860235Y23910899D02*
X21860235Y23720423D01*
X21860235Y23720423D02*
X21812616Y23625185D01*
X21241188Y24053756D02*
X21193568Y23958518D01*
X21193568Y23958518D02*
X21193568Y23720423D01*
X21193568Y23720423D02*
X21241188Y23625185D01*
X21241188Y23625185D02*
X21336426Y23577566D01*
X21336426Y23577566D02*
X21431664Y23577566D01*
X21431664Y23577566D02*
X21526902Y23625185D01*
X21526902Y23625185D02*
X21574521Y23720423D01*
X21574521Y23720423D02*
X21574521Y23958518D01*
X21574521Y23958518D02*
X21622140Y24053756D01*
X21860235Y24387090D02*
X21860235Y24768042D01*
X22193568Y24529947D02*
X21336426Y24529947D01*
X21336426Y24529947D02*
X21241188Y24577566D01*
X21241188Y24577566D02*
X21193568Y24672804D01*
X21193568Y24672804D02*
X21193568Y24768042D01*
X21860235Y24958519D02*
X21860235Y25339471D01*
X22193568Y25101376D02*
X21336426Y25101376D01*
X21336426Y25101376D02*
X21241188Y25148995D01*
X21241188Y25148995D02*
X21193568Y25244233D01*
X21193568Y25244233D02*
X21193568Y25339471D01*
X18497490Y21863280D02*
X18497490Y22196613D01*
X17973680Y22339470D02*
X17973680Y21863280D01*
X17973680Y21863280D02*
X18973680Y21863280D01*
X18973680Y21863280D02*
X18973680Y22339470D01*
X18021300Y22720423D02*
X17973680Y22863280D01*
X17973680Y22863280D02*
X17973680Y23101375D01*
X17973680Y23101375D02*
X18021300Y23196613D01*
X18021300Y23196613D02*
X18068919Y23244232D01*
X18068919Y23244232D02*
X18164157Y23291851D01*
X18164157Y23291851D02*
X18259395Y23291851D01*
X18259395Y23291851D02*
X18354633Y23244232D01*
X18354633Y23244232D02*
X18402252Y23196613D01*
X18402252Y23196613D02*
X18449871Y23101375D01*
X18449871Y23101375D02*
X18497490Y22910899D01*
X18497490Y22910899D02*
X18545109Y22815661D01*
X18545109Y22815661D02*
X18592728Y22768042D01*
X18592728Y22768042D02*
X18687966Y22720423D01*
X18687966Y22720423D02*
X18783204Y22720423D01*
X18783204Y22720423D02*
X18878442Y22768042D01*
X18878442Y22768042D02*
X18926061Y22815661D01*
X18926061Y22815661D02*
X18973680Y22910899D01*
X18973680Y22910899D02*
X18973680Y23148994D01*
X18973680Y23148994D02*
X18926061Y23291851D01*
X17973680Y23720423D02*
X18973680Y23720423D01*
X18973680Y23720423D02*
X18973680Y24101375D01*
X18973680Y24101375D02*
X18926061Y24196613D01*
X18926061Y24196613D02*
X18878442Y24244232D01*
X18878442Y24244232D02*
X18783204Y24291851D01*
X18783204Y24291851D02*
X18640347Y24291851D01*
X18640347Y24291851D02*
X18545109Y24244232D01*
X18545109Y24244232D02*
X18497490Y24196613D01*
X18497490Y24196613D02*
X18449871Y24101375D01*
X18449871Y24101375D02*
X18449871Y23720423D01*
X18973680Y25339471D02*
X17973680Y25672804D01*
X17973680Y25672804D02*
X18973680Y26006137D01*
X17973680Y26339471D02*
X18973680Y26339471D01*
X18973680Y26339471D02*
X17973680Y26910899D01*
X17973680Y26910899D02*
X18973680Y26910899D01*
D11*
X1748264Y29032454D02*
X1022549Y29032454D01*
X1022549Y29032454D02*
X877406Y28984073D01*
X877406Y28984073D02*
X780645Y28887311D01*
X780645Y28887311D02*
X732264Y28742168D01*
X732264Y28742168D02*
X732264Y28645406D01*
X732264Y30000073D02*
X732264Y29516263D01*
X732264Y29516263D02*
X1748264Y29516263D01*
X829025Y30919311D02*
X780645Y30870930D01*
X780645Y30870930D02*
X732264Y30725787D01*
X732264Y30725787D02*
X732264Y30629025D01*
X732264Y30629025D02*
X780645Y30483882D01*
X780645Y30483882D02*
X877406Y30387120D01*
X877406Y30387120D02*
X974168Y30338739D01*
X974168Y30338739D02*
X1167692Y30290358D01*
X1167692Y30290358D02*
X1312835Y30290358D01*
X1312835Y30290358D02*
X1506359Y30338739D01*
X1506359Y30338739D02*
X1603121Y30387120D01*
X1603121Y30387120D02*
X1699883Y30483882D01*
X1699883Y30483882D02*
X1748264Y30629025D01*
X1748264Y30629025D02*
X1748264Y30725787D01*
X1748264Y30725787D02*
X1699883Y30870930D01*
X1699883Y30870930D02*
X1651502Y30919311D01*
X1748264Y31645025D02*
X1022549Y31645025D01*
X1022549Y31645025D02*
X877406Y31596644D01*
X877406Y31596644D02*
X780645Y31499882D01*
X780645Y31499882D02*
X732264Y31354739D01*
X732264Y31354739D02*
X732264Y31257977D01*
X732264Y32612644D02*
X732264Y32128834D01*
X732264Y32128834D02*
X1748264Y32128834D01*
X829025Y33531882D02*
X780645Y33483501D01*
X780645Y33483501D02*
X732264Y33338358D01*
X732264Y33338358D02*
X732264Y33241596D01*
X732264Y33241596D02*
X780645Y33096453D01*
X780645Y33096453D02*
X877406Y32999691D01*
X877406Y32999691D02*
X974168Y32951310D01*
X974168Y32951310D02*
X1167692Y32902929D01*
X1167692Y32902929D02*
X1312835Y32902929D01*
X1312835Y32902929D02*
X1506359Y32951310D01*
X1506359Y32951310D02*
X1603121Y32999691D01*
X1603121Y32999691D02*
X1699883Y33096453D01*
X1699883Y33096453D02*
X1748264Y33241596D01*
X1748264Y33241596D02*
X1748264Y33338358D01*
X1748264Y33338358D02*
X1699883Y33483501D01*
X1699883Y33483501D02*
X1651502Y33531882D01*
X1748264Y34257596D02*
X1022549Y34257596D01*
X1022549Y34257596D02*
X877406Y34209215D01*
X877406Y34209215D02*
X780645Y34112453D01*
X780645Y34112453D02*
X732264Y33967310D01*
X732264Y33967310D02*
X732264Y33870548D01*
X732264Y35225215D02*
X732264Y34741405D01*
X732264Y34741405D02*
X1748264Y34741405D01*
X829025Y36144453D02*
X780645Y36096072D01*
X780645Y36096072D02*
X732264Y35950929D01*
X732264Y35950929D02*
X732264Y35854167D01*
X732264Y35854167D02*
X780645Y35709024D01*
X780645Y35709024D02*
X877406Y35612262D01*
X877406Y35612262D02*
X974168Y35563881D01*
X974168Y35563881D02*
X1167692Y35515500D01*
X1167692Y35515500D02*
X1312835Y35515500D01*
X1312835Y35515500D02*
X1506359Y35563881D01*
X1506359Y35563881D02*
X1603121Y35612262D01*
X1603121Y35612262D02*
X1699883Y35709024D01*
X1699883Y35709024D02*
X1748264Y35854167D01*
X1748264Y35854167D02*
X1748264Y35950929D01*
X1748264Y35950929D02*
X1699883Y36096072D01*
X1699883Y36096072D02*
X1651502Y36144453D01*
X1748264Y36870167D02*
X1022549Y36870167D01*
X1022549Y36870167D02*
X877406Y36821786D01*
X877406Y36821786D02*
X780645Y36725024D01*
X780645Y36725024D02*
X732264Y36579881D01*
X732264Y36579881D02*
X732264Y36483119D01*
X732264Y37837786D02*
X732264Y37353976D01*
X732264Y37353976D02*
X1748264Y37353976D01*
X829025Y38757024D02*
X780645Y38708643D01*
X780645Y38708643D02*
X732264Y38563500D01*
X732264Y38563500D02*
X732264Y38466738D01*
X732264Y38466738D02*
X780645Y38321595D01*
X780645Y38321595D02*
X877406Y38224833D01*
X877406Y38224833D02*
X974168Y38176452D01*
X974168Y38176452D02*
X1167692Y38128071D01*
X1167692Y38128071D02*
X1312835Y38128071D01*
X1312835Y38128071D02*
X1506359Y38176452D01*
X1506359Y38176452D02*
X1603121Y38224833D01*
X1603121Y38224833D02*
X1699883Y38321595D01*
X1699883Y38321595D02*
X1748264Y38466738D01*
X1748264Y38466738D02*
X1748264Y38563500D01*
X1748264Y38563500D02*
X1699883Y38708643D01*
X1699883Y38708643D02*
X1651502Y38757024D01*
D12*
X79827616Y32160469D02*
X79827616Y33684469D01*
X79827616Y33684469D02*
X79464759Y33684469D01*
X79464759Y33684469D02*
X79247045Y33611898D01*
X79247045Y33611898D02*
X79101902Y33466755D01*
X79101902Y33466755D02*
X79029331Y33321612D01*
X79029331Y33321612D02*
X78956759Y33031326D01*
X78956759Y33031326D02*
X78956759Y32813612D01*
X78956759Y32813612D02*
X79029331Y32523326D01*
X79029331Y32523326D02*
X79101902Y32378183D01*
X79101902Y32378183D02*
X79247045Y32233040D01*
X79247045Y32233040D02*
X79464759Y32160469D01*
X79464759Y32160469D02*
X79827616Y32160469D01*
X77723045Y32233040D02*
X77868188Y32160469D01*
X77868188Y32160469D02*
X78158474Y32160469D01*
X78158474Y32160469D02*
X78303616Y32233040D01*
X78303616Y32233040D02*
X78376188Y32378183D01*
X78376188Y32378183D02*
X78376188Y32958755D01*
X78376188Y32958755D02*
X78303616Y33103898D01*
X78303616Y33103898D02*
X78158474Y33176469D01*
X78158474Y33176469D02*
X77868188Y33176469D01*
X77868188Y33176469D02*
X77723045Y33103898D01*
X77723045Y33103898D02*
X77650474Y32958755D01*
X77650474Y32958755D02*
X77650474Y32813612D01*
X77650474Y32813612D02*
X78376188Y32668469D01*
X77069902Y32233040D02*
X76924759Y32160469D01*
X76924759Y32160469D02*
X76634473Y32160469D01*
X76634473Y32160469D02*
X76489330Y32233040D01*
X76489330Y32233040D02*
X76416759Y32378183D01*
X76416759Y32378183D02*
X76416759Y32450755D01*
X76416759Y32450755D02*
X76489330Y32595898D01*
X76489330Y32595898D02*
X76634473Y32668469D01*
X76634473Y32668469D02*
X76852188Y32668469D01*
X76852188Y32668469D02*
X76997330Y32741040D01*
X76997330Y32741040D02*
X77069902Y32886183D01*
X77069902Y32886183D02*
X77069902Y32958755D01*
X77069902Y32958755D02*
X76997330Y33103898D01*
X76997330Y33103898D02*
X76852188Y33176469D01*
X76852188Y33176469D02*
X76634473Y33176469D01*
X76634473Y33176469D02*
X76489330Y33103898D01*
X75763616Y32160469D02*
X75763616Y33176469D01*
X75763616Y33684469D02*
X75836188Y33611898D01*
X75836188Y33611898D02*
X75763616Y33539326D01*
X75763616Y33539326D02*
X75691045Y33611898D01*
X75691045Y33611898D02*
X75763616Y33684469D01*
X75763616Y33684469D02*
X75763616Y33539326D01*
X74384760Y33176469D02*
X74384760Y31942755D01*
X74384760Y31942755D02*
X74457331Y31797612D01*
X74457331Y31797612D02*
X74529902Y31725040D01*
X74529902Y31725040D02*
X74675045Y31652469D01*
X74675045Y31652469D02*
X74892760Y31652469D01*
X74892760Y31652469D02*
X75037902Y31725040D01*
X74384760Y32233040D02*
X74529902Y32160469D01*
X74529902Y32160469D02*
X74820188Y32160469D01*
X74820188Y32160469D02*
X74965331Y32233040D01*
X74965331Y32233040D02*
X75037902Y32305612D01*
X75037902Y32305612D02*
X75110474Y32450755D01*
X75110474Y32450755D02*
X75110474Y32886183D01*
X75110474Y32886183D02*
X75037902Y33031326D01*
X75037902Y33031326D02*
X74965331Y33103898D01*
X74965331Y33103898D02*
X74820188Y33176469D01*
X74820188Y33176469D02*
X74529902Y33176469D01*
X74529902Y33176469D02*
X74384760Y33103898D01*
X73659045Y33176469D02*
X73659045Y32160469D01*
X73659045Y33031326D02*
X73586474Y33103898D01*
X73586474Y33103898D02*
X73441331Y33176469D01*
X73441331Y33176469D02*
X73223617Y33176469D01*
X73223617Y33176469D02*
X73078474Y33103898D01*
X73078474Y33103898D02*
X73005903Y32958755D01*
X73005903Y32958755D02*
X73005903Y32160469D01*
X71699617Y32233040D02*
X71844760Y32160469D01*
X71844760Y32160469D02*
X72135046Y32160469D01*
X72135046Y32160469D02*
X72280188Y32233040D01*
X72280188Y32233040D02*
X72352760Y32378183D01*
X72352760Y32378183D02*
X72352760Y32958755D01*
X72352760Y32958755D02*
X72280188Y33103898D01*
X72280188Y33103898D02*
X72135046Y33176469D01*
X72135046Y33176469D02*
X71844760Y33176469D01*
X71844760Y33176469D02*
X71699617Y33103898D01*
X71699617Y33103898D02*
X71627046Y32958755D01*
X71627046Y32958755D02*
X71627046Y32813612D01*
X71627046Y32813612D02*
X72352760Y32668469D01*
X70320760Y32160469D02*
X70320760Y33684469D01*
X70320760Y32233040D02*
X70465902Y32160469D01*
X70465902Y32160469D02*
X70756188Y32160469D01*
X70756188Y32160469D02*
X70901331Y32233040D01*
X70901331Y32233040D02*
X70973902Y32305612D01*
X70973902Y32305612D02*
X71046474Y32450755D01*
X71046474Y32450755D02*
X71046474Y32886183D01*
X71046474Y32886183D02*
X70973902Y33031326D01*
X70973902Y33031326D02*
X70901331Y33103898D01*
X70901331Y33103898D02*
X70756188Y33176469D01*
X70756188Y33176469D02*
X70465902Y33176469D01*
X70465902Y33176469D02*
X70320760Y33103898D01*
X68433902Y32160469D02*
X68433902Y33684469D01*
X68433902Y33103898D02*
X68288760Y33176469D01*
X68288760Y33176469D02*
X67998474Y33176469D01*
X67998474Y33176469D02*
X67853331Y33103898D01*
X67853331Y33103898D02*
X67780760Y33031326D01*
X67780760Y33031326D02*
X67708188Y32886183D01*
X67708188Y32886183D02*
X67708188Y32450755D01*
X67708188Y32450755D02*
X67780760Y32305612D01*
X67780760Y32305612D02*
X67853331Y32233040D01*
X67853331Y32233040D02*
X67998474Y32160469D01*
X67998474Y32160469D02*
X68288760Y32160469D01*
X68288760Y32160469D02*
X68433902Y32233040D01*
X67200188Y33176469D02*
X66837331Y32160469D01*
X66474474Y33176469D02*
X66837331Y32160469D01*
X66837331Y32160469D02*
X66982474Y31797612D01*
X66982474Y31797612D02*
X67055045Y31725040D01*
X67055045Y31725040D02*
X67200188Y31652469D01*
X65893902Y32305612D02*
X65821331Y32233040D01*
X65821331Y32233040D02*
X65893902Y32160469D01*
X65893902Y32160469D02*
X65966474Y32233040D01*
X65966474Y32233040D02*
X65893902Y32305612D01*
X65893902Y32305612D02*
X65893902Y32160469D01*
X65893902Y33103898D02*
X65821331Y33031326D01*
X65821331Y33031326D02*
X65893902Y32958755D01*
X65893902Y32958755D02*
X65966474Y33031326D01*
X65966474Y33031326D02*
X65893902Y33103898D01*
X65893902Y33103898D02*
X65893902Y32958755D01*
X73804189Y30432628D02*
X73804189Y29706914D01*
X74312189Y31230914D02*
X73804189Y30432628D01*
X73804189Y30432628D02*
X73296189Y31230914D01*
X72135046Y29706914D02*
X72135046Y30505200D01*
X72135046Y30505200D02*
X72207617Y30650343D01*
X72207617Y30650343D02*
X72352760Y30722914D01*
X72352760Y30722914D02*
X72643046Y30722914D01*
X72643046Y30722914D02*
X72788188Y30650343D01*
X72135046Y29779485D02*
X72280188Y29706914D01*
X72280188Y29706914D02*
X72643046Y29706914D01*
X72643046Y29706914D02*
X72788188Y29779485D01*
X72788188Y29779485D02*
X72860760Y29924628D01*
X72860760Y29924628D02*
X72860760Y30069771D01*
X72860760Y30069771D02*
X72788188Y30214914D01*
X72788188Y30214914D02*
X72643046Y30287485D01*
X72643046Y30287485D02*
X72280188Y30287485D01*
X72280188Y30287485D02*
X72135046Y30360057D01*
X71409331Y30722914D02*
X71409331Y29706914D01*
X71409331Y30577771D02*
X71336760Y30650343D01*
X71336760Y30650343D02*
X71191617Y30722914D01*
X71191617Y30722914D02*
X70973903Y30722914D01*
X70973903Y30722914D02*
X70828760Y30650343D01*
X70828760Y30650343D02*
X70756189Y30505200D01*
X70756189Y30505200D02*
X70756189Y29706914D01*
X70030474Y30722914D02*
X70030474Y29706914D01*
X70030474Y30577771D02*
X69957903Y30650343D01*
X69957903Y30650343D02*
X69812760Y30722914D01*
X69812760Y30722914D02*
X69595046Y30722914D01*
X69595046Y30722914D02*
X69449903Y30650343D01*
X69449903Y30650343D02*
X69377332Y30505200D01*
X69377332Y30505200D02*
X69377332Y29706914D01*
X68651617Y29706914D02*
X68651617Y30722914D01*
X68651617Y31230914D02*
X68724189Y31158343D01*
X68724189Y31158343D02*
X68651617Y31085771D01*
X68651617Y31085771D02*
X68579046Y31158343D01*
X68579046Y31158343D02*
X68651617Y31230914D01*
X68651617Y31230914D02*
X68651617Y31085771D01*
X67272761Y29779485D02*
X67417903Y29706914D01*
X67417903Y29706914D02*
X67708189Y29706914D01*
X67708189Y29706914D02*
X67853332Y29779485D01*
X67853332Y29779485D02*
X67925903Y29852057D01*
X67925903Y29852057D02*
X67998475Y29997200D01*
X67998475Y29997200D02*
X67998475Y30432628D01*
X67998475Y30432628D02*
X67925903Y30577771D01*
X67925903Y30577771D02*
X67853332Y30650343D01*
X67853332Y30650343D02*
X67708189Y30722914D01*
X67708189Y30722914D02*
X67417903Y30722914D01*
X67417903Y30722914D02*
X67272761Y30650343D01*
X66619617Y29706914D02*
X66619617Y31230914D01*
X66474475Y30287485D02*
X66039046Y29706914D01*
X66039046Y30722914D02*
X66619617Y30142343D01*
X64442475Y31230914D02*
X63934475Y29706914D01*
X63934475Y29706914D02*
X63426475Y31230914D01*
X62265332Y29706914D02*
X62265332Y30505200D01*
X62265332Y30505200D02*
X62337903Y30650343D01*
X62337903Y30650343D02*
X62483046Y30722914D01*
X62483046Y30722914D02*
X62773332Y30722914D01*
X62773332Y30722914D02*
X62918474Y30650343D01*
X62265332Y29779485D02*
X62410474Y29706914D01*
X62410474Y29706914D02*
X62773332Y29706914D01*
X62773332Y29706914D02*
X62918474Y29779485D01*
X62918474Y29779485D02*
X62991046Y29924628D01*
X62991046Y29924628D02*
X62991046Y30069771D01*
X62991046Y30069771D02*
X62918474Y30214914D01*
X62918474Y30214914D02*
X62773332Y30287485D01*
X62773332Y30287485D02*
X62410474Y30287485D01*
X62410474Y30287485D02*
X62265332Y30360057D01*
X61321903Y29706914D02*
X61467046Y29779485D01*
X61467046Y29779485D02*
X61539617Y29924628D01*
X61539617Y29924628D02*
X61539617Y31230914D01*
X60523617Y29706914D02*
X60668760Y29779485D01*
X60668760Y29779485D02*
X60741331Y29924628D01*
X60741331Y29924628D02*
X60741331Y31230914D01*
X59362474Y29779485D02*
X59507617Y29706914D01*
X59507617Y29706914D02*
X59797903Y29706914D01*
X59797903Y29706914D02*
X59943045Y29779485D01*
X59943045Y29779485D02*
X60015617Y29924628D01*
X60015617Y29924628D02*
X60015617Y30505200D01*
X60015617Y30505200D02*
X59943045Y30650343D01*
X59943045Y30650343D02*
X59797903Y30722914D01*
X59797903Y30722914D02*
X59507617Y30722914D01*
X59507617Y30722914D02*
X59362474Y30650343D01*
X59362474Y30650343D02*
X59289903Y30505200D01*
X59289903Y30505200D02*
X59289903Y30360057D01*
X59289903Y30360057D02*
X60015617Y30214914D01*
X59507617Y31303485D02*
X59725331Y31085771D01*
X58056188Y29779485D02*
X58201331Y29706914D01*
X58201331Y29706914D02*
X58491617Y29706914D01*
X58491617Y29706914D02*
X58636759Y29779485D01*
X58636759Y29779485D02*
X58709331Y29924628D01*
X58709331Y29924628D02*
X58709331Y30505200D01*
X58709331Y30505200D02*
X58636759Y30650343D01*
X58636759Y30650343D02*
X58491617Y30722914D01*
X58491617Y30722914D02*
X58201331Y30722914D01*
X58201331Y30722914D02*
X58056188Y30650343D01*
X58056188Y30650343D02*
X57983617Y30505200D01*
X57983617Y30505200D02*
X57983617Y30360057D01*
X57983617Y30360057D02*
X58709331Y30214914D01*
X57257902Y29779485D02*
X57257902Y29706914D01*
X57257902Y29706914D02*
X57330473Y29561771D01*
X57330473Y29561771D02*
X57403045Y29489200D01*
X55443616Y29706914D02*
X55443616Y30722914D01*
X55443616Y31230914D02*
X55516188Y31158343D01*
X55516188Y31158343D02*
X55443616Y31085771D01*
X55443616Y31085771D02*
X55371045Y31158343D01*
X55371045Y31158343D02*
X55443616Y31230914D01*
X55443616Y31230914D02*
X55443616Y31085771D01*
X54717902Y30722914D02*
X54717902Y29706914D01*
X54717902Y30577771D02*
X54645331Y30650343D01*
X54645331Y30650343D02*
X54500188Y30722914D01*
X54500188Y30722914D02*
X54282474Y30722914D01*
X54282474Y30722914D02*
X54137331Y30650343D01*
X54137331Y30650343D02*
X54064760Y30505200D01*
X54064760Y30505200D02*
X54064760Y29706914D01*
X52685903Y30722914D02*
X52685903Y29489200D01*
X52685903Y29489200D02*
X52758474Y29344057D01*
X52758474Y29344057D02*
X52831045Y29271485D01*
X52831045Y29271485D02*
X52976188Y29198914D01*
X52976188Y29198914D02*
X53193903Y29198914D01*
X53193903Y29198914D02*
X53339045Y29271485D01*
X52685903Y29779485D02*
X52831045Y29706914D01*
X52831045Y29706914D02*
X53121331Y29706914D01*
X53121331Y29706914D02*
X53266474Y29779485D01*
X53266474Y29779485D02*
X53339045Y29852057D01*
X53339045Y29852057D02*
X53411617Y29997200D01*
X53411617Y29997200D02*
X53411617Y30432628D01*
X53411617Y30432628D02*
X53339045Y30577771D01*
X53339045Y30577771D02*
X53266474Y30650343D01*
X53266474Y30650343D02*
X53121331Y30722914D01*
X53121331Y30722914D02*
X52831045Y30722914D01*
X52831045Y30722914D02*
X52685903Y30650343D01*
X51960188Y29852057D02*
X51887617Y29779485D01*
X51887617Y29779485D02*
X51960188Y29706914D01*
X51960188Y29706914D02*
X52032760Y29779485D01*
X52032760Y29779485D02*
X51960188Y29852057D01*
X51960188Y29852057D02*
X51960188Y29706914D01*
X74167046Y28632216D02*
X74094474Y28704788D01*
X74094474Y28704788D02*
X73949332Y28777359D01*
X73949332Y28777359D02*
X73586474Y28777359D01*
X73586474Y28777359D02*
X73441332Y28704788D01*
X73441332Y28704788D02*
X73368760Y28632216D01*
X73368760Y28632216D02*
X73296189Y28487073D01*
X73296189Y28487073D02*
X73296189Y28341930D01*
X73296189Y28341930D02*
X73368760Y28124216D01*
X73368760Y28124216D02*
X74239617Y27253359D01*
X74239617Y27253359D02*
X73296189Y27253359D01*
X72352760Y28777359D02*
X72207617Y28777359D01*
X72207617Y28777359D02*
X72062474Y28704788D01*
X72062474Y28704788D02*
X71989903Y28632216D01*
X71989903Y28632216D02*
X71917331Y28487073D01*
X71917331Y28487073D02*
X71844760Y28196788D01*
X71844760Y28196788D02*
X71844760Y27833930D01*
X71844760Y27833930D02*
X71917331Y27543645D01*
X71917331Y27543645D02*
X71989903Y27398502D01*
X71989903Y27398502D02*
X72062474Y27325930D01*
X72062474Y27325930D02*
X72207617Y27253359D01*
X72207617Y27253359D02*
X72352760Y27253359D01*
X72352760Y27253359D02*
X72497903Y27325930D01*
X72497903Y27325930D02*
X72570474Y27398502D01*
X72570474Y27398502D02*
X72643045Y27543645D01*
X72643045Y27543645D02*
X72715617Y27833930D01*
X72715617Y27833930D02*
X72715617Y28196788D01*
X72715617Y28196788D02*
X72643045Y28487073D01*
X72643045Y28487073D02*
X72570474Y28632216D01*
X72570474Y28632216D02*
X72497903Y28704788D01*
X72497903Y28704788D02*
X72352760Y28777359D01*
X71264188Y28632216D02*
X71191616Y28704788D01*
X71191616Y28704788D02*
X71046474Y28777359D01*
X71046474Y28777359D02*
X70683616Y28777359D01*
X70683616Y28777359D02*
X70538474Y28704788D01*
X70538474Y28704788D02*
X70465902Y28632216D01*
X70465902Y28632216D02*
X70393331Y28487073D01*
X70393331Y28487073D02*
X70393331Y28341930D01*
X70393331Y28341930D02*
X70465902Y28124216D01*
X70465902Y28124216D02*
X71336759Y27253359D01*
X71336759Y27253359D02*
X70393331Y27253359D01*
X69087045Y28777359D02*
X69377330Y28777359D01*
X69377330Y28777359D02*
X69522473Y28704788D01*
X69522473Y28704788D02*
X69595045Y28632216D01*
X69595045Y28632216D02*
X69740187Y28414502D01*
X69740187Y28414502D02*
X69812759Y28124216D01*
X69812759Y28124216D02*
X69812759Y27543645D01*
X69812759Y27543645D02*
X69740187Y27398502D01*
X69740187Y27398502D02*
X69667616Y27325930D01*
X69667616Y27325930D02*
X69522473Y27253359D01*
X69522473Y27253359D02*
X69232187Y27253359D01*
X69232187Y27253359D02*
X69087045Y27325930D01*
X69087045Y27325930D02*
X69014473Y27398502D01*
X69014473Y27398502D02*
X68941902Y27543645D01*
X68941902Y27543645D02*
X68941902Y27906502D01*
X68941902Y27906502D02*
X69014473Y28051645D01*
X69014473Y28051645D02*
X69087045Y28124216D01*
X69087045Y28124216D02*
X69232187Y28196788D01*
X69232187Y28196788D02*
X69522473Y28196788D01*
X69522473Y28196788D02*
X69667616Y28124216D01*
X69667616Y28124216D02*
X69740187Y28051645D01*
X69740187Y28051645D02*
X69812759Y27906502D01*
X68288758Y27833930D02*
X67127616Y27833930D01*
X66111616Y28777359D02*
X65966473Y28777359D01*
X65966473Y28777359D02*
X65821330Y28704788D01*
X65821330Y28704788D02*
X65748759Y28632216D01*
X65748759Y28632216D02*
X65676187Y28487073D01*
X65676187Y28487073D02*
X65603616Y28196788D01*
X65603616Y28196788D02*
X65603616Y27833930D01*
X65603616Y27833930D02*
X65676187Y27543645D01*
X65676187Y27543645D02*
X65748759Y27398502D01*
X65748759Y27398502D02*
X65821330Y27325930D01*
X65821330Y27325930D02*
X65966473Y27253359D01*
X65966473Y27253359D02*
X66111616Y27253359D01*
X66111616Y27253359D02*
X66256759Y27325930D01*
X66256759Y27325930D02*
X66329330Y27398502D01*
X66329330Y27398502D02*
X66401901Y27543645D01*
X66401901Y27543645D02*
X66474473Y27833930D01*
X66474473Y27833930D02*
X66474473Y28196788D01*
X66474473Y28196788D02*
X66401901Y28487073D01*
X66401901Y28487073D02*
X66329330Y28632216D01*
X66329330Y28632216D02*
X66256759Y28704788D01*
X66256759Y28704788D02*
X66111616Y28777359D01*
X64297330Y28777359D02*
X64587615Y28777359D01*
X64587615Y28777359D02*
X64732758Y28704788D01*
X64732758Y28704788D02*
X64805330Y28632216D01*
X64805330Y28632216D02*
X64950472Y28414502D01*
X64950472Y28414502D02*
X65023044Y28124216D01*
X65023044Y28124216D02*
X65023044Y27543645D01*
X65023044Y27543645D02*
X64950472Y27398502D01*
X64950472Y27398502D02*
X64877901Y27325930D01*
X64877901Y27325930D02*
X64732758Y27253359D01*
X64732758Y27253359D02*
X64442472Y27253359D01*
X64442472Y27253359D02*
X64297330Y27325930D01*
X64297330Y27325930D02*
X64224758Y27398502D01*
X64224758Y27398502D02*
X64152187Y27543645D01*
X64152187Y27543645D02*
X64152187Y27906502D01*
X64152187Y27906502D02*
X64224758Y28051645D01*
X64224758Y28051645D02*
X64297330Y28124216D01*
X64297330Y28124216D02*
X64442472Y28196788D01*
X64442472Y28196788D02*
X64732758Y28196788D01*
X64732758Y28196788D02*
X64877901Y28124216D01*
X64877901Y28124216D02*
X64950472Y28051645D01*
X64950472Y28051645D02*
X65023044Y27906502D01*
X63499043Y27833930D02*
X62337901Y27833930D01*
X60813901Y27253359D02*
X61684758Y27253359D01*
X61249329Y27253359D02*
X61249329Y28777359D01*
X61249329Y28777359D02*
X61394472Y28559645D01*
X61394472Y28559645D02*
X61539615Y28414502D01*
X61539615Y28414502D02*
X61684758Y28341930D01*
X59943043Y28124216D02*
X60088186Y28196788D01*
X60088186Y28196788D02*
X60160757Y28269359D01*
X60160757Y28269359D02*
X60233329Y28414502D01*
X60233329Y28414502D02*
X60233329Y28487073D01*
X60233329Y28487073D02*
X60160757Y28632216D01*
X60160757Y28632216D02*
X60088186Y28704788D01*
X60088186Y28704788D02*
X59943043Y28777359D01*
X59943043Y28777359D02*
X59652757Y28777359D01*
X59652757Y28777359D02*
X59507615Y28704788D01*
X59507615Y28704788D02*
X59435043Y28632216D01*
X59435043Y28632216D02*
X59362472Y28487073D01*
X59362472Y28487073D02*
X59362472Y28414502D01*
X59362472Y28414502D02*
X59435043Y28269359D01*
X59435043Y28269359D02*
X59507615Y28196788D01*
X59507615Y28196788D02*
X59652757Y28124216D01*
X59652757Y28124216D02*
X59943043Y28124216D01*
X59943043Y28124216D02*
X60088186Y28051645D01*
X60088186Y28051645D02*
X60160757Y27979073D01*
X60160757Y27979073D02*
X60233329Y27833930D01*
X60233329Y27833930D02*
X60233329Y27543645D01*
X60233329Y27543645D02*
X60160757Y27398502D01*
X60160757Y27398502D02*
X60088186Y27325930D01*
X60088186Y27325930D02*
X59943043Y27253359D01*
X59943043Y27253359D02*
X59652757Y27253359D01*
X59652757Y27253359D02*
X59507615Y27325930D01*
X59507615Y27325930D02*
X59435043Y27398502D01*
X59435043Y27398502D02*
X59362472Y27543645D01*
X59362472Y27543645D02*
X59362472Y27833930D01*
X59362472Y27833930D02*
X59435043Y27979073D01*
X59435043Y27979073D02*
X59507615Y28051645D01*
X59507615Y28051645D02*
X59652757Y28124216D01*
D10*
X35123333Y22135181D02*
X35123333Y21420896D01*
X35123333Y21420896D02*
X35170952Y21278039D01*
X35170952Y21278039D02*
X35266190Y21182800D01*
X35266190Y21182800D02*
X35409047Y21135181D01*
X35409047Y21135181D02*
X35504285Y21135181D01*
X34647142Y21135181D02*
X34647142Y22135181D01*
X34647142Y22135181D02*
X34266190Y22135181D01*
X34266190Y22135181D02*
X34170952Y22087562D01*
X34170952Y22087562D02*
X34123333Y22039943D01*
X34123333Y22039943D02*
X34075714Y21944705D01*
X34075714Y21944705D02*
X34075714Y21801848D01*
X34075714Y21801848D02*
X34123333Y21706610D01*
X34123333Y21706610D02*
X34170952Y21658991D01*
X34170952Y21658991D02*
X34266190Y21611372D01*
X34266190Y21611372D02*
X34647142Y21611372D01*
X33694761Y22039943D02*
X33647142Y22087562D01*
X33647142Y22087562D02*
X33551904Y22135181D01*
X33551904Y22135181D02*
X33313809Y22135181D01*
X33313809Y22135181D02*
X33218571Y22087562D01*
X33218571Y22087562D02*
X33170952Y22039943D01*
X33170952Y22039943D02*
X33123333Y21944705D01*
X33123333Y21944705D02*
X33123333Y21849467D01*
X33123333Y21849467D02*
X33170952Y21706610D01*
X33170952Y21706610D02*
X33742380Y21135181D01*
X33742380Y21135181D02*
X33123333Y21135181D01*
X35123333Y25945181D02*
X35123333Y25230896D01*
X35123333Y25230896D02*
X35170952Y25088039D01*
X35170952Y25088039D02*
X35266190Y24992800D01*
X35266190Y24992800D02*
X35409047Y24945181D01*
X35409047Y24945181D02*
X35504285Y24945181D01*
X34647142Y24945181D02*
X34647142Y25945181D01*
X34647142Y25945181D02*
X34266190Y25945181D01*
X34266190Y25945181D02*
X34170952Y25897562D01*
X34170952Y25897562D02*
X34123333Y25849943D01*
X34123333Y25849943D02*
X34075714Y25754705D01*
X34075714Y25754705D02*
X34075714Y25611848D01*
X34075714Y25611848D02*
X34123333Y25516610D01*
X34123333Y25516610D02*
X34170952Y25468991D01*
X34170952Y25468991D02*
X34266190Y25421372D01*
X34266190Y25421372D02*
X34647142Y25421372D01*
X33123333Y24945181D02*
X33694761Y24945181D01*
X33409047Y24945181D02*
X33409047Y25945181D01*
X33409047Y25945181D02*
X33504285Y25802324D01*
X33504285Y25802324D02*
X33599523Y25707086D01*
X33599523Y25707086D02*
X33694761Y25659467D01*
X35123333Y18325181D02*
X35123333Y17610896D01*
X35123333Y17610896D02*
X35170952Y17468039D01*
X35170952Y17468039D02*
X35266190Y17372800D01*
X35266190Y17372800D02*
X35409047Y17325181D01*
X35409047Y17325181D02*
X35504285Y17325181D01*
X34647142Y17325181D02*
X34647142Y18325181D01*
X34647142Y18325181D02*
X34266190Y18325181D01*
X34266190Y18325181D02*
X34170952Y18277562D01*
X34170952Y18277562D02*
X34123333Y18229943D01*
X34123333Y18229943D02*
X34075714Y18134705D01*
X34075714Y18134705D02*
X34075714Y17991848D01*
X34075714Y17991848D02*
X34123333Y17896610D01*
X34123333Y17896610D02*
X34170952Y17848991D01*
X34170952Y17848991D02*
X34266190Y17801372D01*
X34266190Y17801372D02*
X34647142Y17801372D01*
X33742380Y18325181D02*
X33123333Y18325181D01*
X33123333Y18325181D02*
X33456666Y17944229D01*
X33456666Y17944229D02*
X33313809Y17944229D01*
X33313809Y17944229D02*
X33218571Y17896610D01*
X33218571Y17896610D02*
X33170952Y17848991D01*
X33170952Y17848991D02*
X33123333Y17753753D01*
X33123333Y17753753D02*
X33123333Y17515658D01*
X33123333Y17515658D02*
X33170952Y17420420D01*
X33170952Y17420420D02*
X33218571Y17372800D01*
X33218571Y17372800D02*
X33313809Y17325181D01*
X33313809Y17325181D02*
X33599523Y17325181D01*
X33599523Y17325181D02*
X33694761Y17372800D01*
X33694761Y17372800D02*
X33742380Y17420420D01*
%TO.C,JP2*%
D13*
X29275000Y22590000D02*
X29275000Y20590000D01*
X29275000Y20590000D02*
X32075000Y20590000D01*
X32075000Y22590000D02*
X29275000Y22590000D01*
X32075000Y20590000D02*
X32075000Y22590000D01*
%TO.C,JP1*%
X29275000Y26400000D02*
X29275000Y24400000D01*
X29275000Y24400000D02*
X32075000Y24400000D01*
X32075000Y26400000D02*
X29275000Y26400000D01*
X32075000Y24400000D02*
X32075000Y26400000D01*
%TO.C,JP3*%
X29275000Y18780000D02*
X29275000Y16780000D01*
X29275000Y16780000D02*
X32075000Y16780000D01*
X32075000Y18780000D02*
X29275000Y18780000D01*
X32075000Y16780000D02*
X32075000Y18780000D01*
D14*
%TO.C,REF\u002A\u002A*%
X58944353Y39170203D02*
X58896715Y39140531D01*
X58843176Y39097177D01*
X58843176Y38451215D01*
X58843347Y38262262D01*
X58844077Y38113396D01*
X58845695Y37999345D01*
X58848529Y37914841D01*
X58852908Y37854614D01*
X58859159Y37813392D01*
X58867611Y37785907D01*
X58878592Y37766887D01*
X58886379Y37757515D01*
X58949537Y37716346D01*
X59021457Y37718025D01*
X59084458Y37753130D01*
X59137998Y37796484D01*
X59137998Y39097177D01*
X59084458Y39140531D01*
X59032785Y39172067D01*
X58990587Y39183884D01*
X58944353Y39170203D01*
G36*
X59032785Y39172067D02*
G01*
X59084458Y39140531D01*
X59137998Y39097177D01*
X59137998Y37796484D01*
X59084458Y37753130D01*
X59021457Y37718025D01*
X58949537Y37716346D01*
X58886379Y37757515D01*
X58878592Y37766887D01*
X58867611Y37785907D01*
X58859159Y37813392D01*
X58852908Y37854614D01*
X58848529Y37914841D01*
X58845695Y37999345D01*
X58844077Y38113396D01*
X58843347Y38262262D01*
X58843176Y38451215D01*
X58843176Y39097177D01*
X58896715Y39140531D01*
X58944353Y39170203D01*
X58990587Y39183884D01*
X59032785Y39172067D01*
G37*
X73232730Y39138527D02*
X73219509Y39123313D01*
X73209139Y39103686D01*
X73201273Y39074389D01*
X73195567Y39030164D01*
X73191677Y38965753D01*
X73189258Y38875899D01*
X73187964Y38755343D01*
X73187452Y38598829D01*
X73187373Y38446831D01*
X73187513Y38258299D01*
X73188162Y38109867D01*
X73189666Y37996276D01*
X73192369Y37912268D01*
X73196616Y37852587D01*
X73202752Y37811975D01*
X73211121Y37785173D01*
X73222069Y37766924D01*
X73232730Y37755134D01*
X73299031Y37715597D01*
X73369676Y37719146D01*
X73432884Y37762266D01*
X73447407Y37779100D01*
X73458757Y37798633D01*
X73467325Y37826262D01*
X73473502Y37867388D01*
X73477678Y37927409D01*
X73480245Y38011726D01*
X73481592Y38125737D01*
X73482112Y38274843D01*
X73482194Y38443654D01*
X73482194Y39072553D01*
X73426528Y39128219D01*
X73357914Y39175052D01*
X73291357Y39176739D01*
X73232730Y39138527D01*
G36*
X73357914Y39175052D02*
G01*
X73426528Y39128219D01*
X73482194Y39072553D01*
X73482194Y38443654D01*
X73482112Y38274843D01*
X73481592Y38125737D01*
X73480245Y38011726D01*
X73477678Y37927409D01*
X73473502Y37867388D01*
X73467325Y37826262D01*
X73458757Y37798633D01*
X73447407Y37779100D01*
X73432884Y37762266D01*
X73369676Y37719146D01*
X73299031Y37715597D01*
X73232730Y37755134D01*
X73222069Y37766924D01*
X73211121Y37785173D01*
X73202752Y37811975D01*
X73196616Y37852587D01*
X73192369Y37912268D01*
X73189666Y37996276D01*
X73188162Y38109867D01*
X73187513Y38258299D01*
X73187373Y38446831D01*
X73187452Y38598829D01*
X73187964Y38755343D01*
X73189258Y38875899D01*
X73191677Y38965753D01*
X73195567Y39030164D01*
X73201273Y39074389D01*
X73209139Y39103686D01*
X73219509Y39123313D01*
X73232730Y39138527D01*
X73291357Y39176739D01*
X73357914Y39175052D01*
G37*
X72986844Y51996156D02*
X72781742Y51925043D01*
X72590785Y51813111D01*
X72420243Y51660375D01*
X72276387Y51466849D01*
X72211768Y51344871D01*
X72155842Y51174257D01*
X72128735Y50977289D01*
X72131738Y50774795D01*
X72165067Y50591301D01*
X72256162Y50367076D01*
X72388258Y50172578D01*
X72554642Y50011633D01*
X72748598Y49888067D01*
X72963414Y49805708D01*
X73192375Y49768383D01*
X73428767Y49779918D01*
X73545291Y49804570D01*
X73772385Y49892909D01*
X73974081Y50027710D01*
X74145515Y50204817D01*
X74281820Y50420073D01*
X74293352Y50443581D01*
X74333217Y50531795D01*
X74358249Y50606090D01*
X74371839Y50684465D01*
X74377382Y50784920D01*
X74378302Y50894226D01*
X74376780Y51025552D01*
X74369914Y51120491D01*
X74354250Y51197247D01*
X74326333Y51274026D01*
X74291873Y51349777D01*
X74163338Y51564810D01*
X74005052Y51738920D01*
X73823287Y51872124D01*
X73624313Y51964434D01*
X73414400Y52015866D01*
X73199821Y52026435D01*
X72986844Y51996156D01*
G36*
X73414400Y52015866D02*
G01*
X73624313Y51964434D01*
X73823287Y51872124D01*
X74005052Y51738920D01*
X74163338Y51564810D01*
X74291873Y51349777D01*
X74326333Y51274026D01*
X74354250Y51197247D01*
X74369914Y51120491D01*
X74376780Y51025552D01*
X74378302Y50894226D01*
X74377382Y50784920D01*
X74371839Y50684465D01*
X74358249Y50606090D01*
X74333217Y50531795D01*
X74293352Y50443581D01*
X74281820Y50420073D01*
X74145515Y50204817D01*
X73974081Y50027710D01*
X73772385Y49892909D01*
X73545291Y49804570D01*
X73428767Y49779918D01*
X73192375Y49768383D01*
X72963414Y49805708D01*
X72748598Y49888067D01*
X72554642Y50011633D01*
X72388258Y50172578D01*
X72256162Y50367076D01*
X72165067Y50591301D01*
X72131738Y50774795D01*
X72128735Y50977289D01*
X72155842Y51174257D01*
X72211768Y51344871D01*
X72276387Y51466849D01*
X72420243Y51660375D01*
X72590785Y51813111D01*
X72781742Y51925043D01*
X72986844Y51996156D01*
X73199821Y52026435D01*
X73414400Y52015866D01*
G37*
X57388537Y39183690D02*
X57230419Y39182930D01*
X57107692Y39181340D01*
X57015374Y39178655D01*
X56948481Y39174610D01*
X56902032Y39168940D01*
X56871043Y39161380D01*
X56850532Y39151665D01*
X56840606Y39144197D01*
X56789089Y39078835D01*
X56782857Y39010972D01*
X56814693Y38949323D01*
X56835512Y38924688D01*
X56857915Y38907890D01*
X56890383Y38897430D01*
X56941394Y38891805D01*
X57019430Y38889517D01*
X57132970Y38889065D01*
X57155269Y38889063D01*
X57448444Y38889063D01*
X57448444Y38344777D01*
X57448637Y38173218D01*
X57449514Y38041211D01*
X57451522Y37942955D01*
X57455106Y37872644D01*
X57460713Y37824477D01*
X57468789Y37792649D01*
X57479782Y37771358D01*
X57493801Y37755134D01*
X57559961Y37715266D01*
X57629026Y37718408D01*
X57691660Y37763895D01*
X57696262Y37769532D01*
X57711243Y37790842D01*
X57722657Y37815775D01*
X57730986Y37850391D01*
X57736713Y37900747D01*
X57740321Y37972902D01*
X57742294Y38072914D01*
X57743114Y38206842D01*
X57743265Y38359175D01*
X57743265Y38889063D01*
X58023233Y38889063D01*
X58143378Y38889876D01*
X58226555Y38893044D01*
X58281137Y38899661D01*
X58315494Y38910821D01*
X58338000Y38927616D01*
X58340733Y38930536D01*
X58373594Y38997310D01*
X58370688Y39072800D01*
X58332908Y39138527D01*
X58318298Y39151276D01*
X58299460Y39161385D01*
X58271372Y39169160D01*
X58229010Y39174905D01*
X58167350Y39178926D01*
X58081368Y39181528D01*
X57966042Y39183018D01*
X57816348Y39183701D01*
X57627262Y39183881D01*
X57587028Y39183884D01*
X57388537Y39183690D01*
G36*
X57627262Y39183881D02*
G01*
X57816348Y39183701D01*
X57966042Y39183018D01*
X58081368Y39181528D01*
X58167350Y39178926D01*
X58229010Y39174905D01*
X58271372Y39169160D01*
X58299460Y39161385D01*
X58318298Y39151276D01*
X58332908Y39138527D01*
X58370688Y39072800D01*
X58373594Y38997310D01*
X58340733Y38930536D01*
X58338000Y38927616D01*
X58315494Y38910821D01*
X58281137Y38899661D01*
X58226555Y38893044D01*
X58143378Y38889876D01*
X58023233Y38889063D01*
X57743265Y38889063D01*
X57743265Y38359175D01*
X57743114Y38206842D01*
X57742294Y38072914D01*
X57740321Y37972902D01*
X57736713Y37900747D01*
X57730986Y37850391D01*
X57722657Y37815775D01*
X57711243Y37790842D01*
X57696262Y37769532D01*
X57691660Y37763895D01*
X57629026Y37718408D01*
X57559961Y37715266D01*
X57493801Y37755134D01*
X57479782Y37771358D01*
X57468789Y37792649D01*
X57460713Y37824477D01*
X57455106Y37872644D01*
X57451522Y37942955D01*
X57449514Y38041211D01*
X57448637Y38173218D01*
X57448444Y38344777D01*
X57448444Y38889063D01*
X57155269Y38889063D01*
X57132970Y38889065D01*
X57019430Y38889517D01*
X56941394Y38891805D01*
X56890383Y38897430D01*
X56857915Y38907890D01*
X56835512Y38924688D01*
X56814693Y38949323D01*
X56782857Y39010972D01*
X56789089Y39078835D01*
X56840606Y39144197D01*
X56850532Y39151665D01*
X56871043Y39161380D01*
X56902032Y39168940D01*
X56948481Y39174610D01*
X57015374Y39178655D01*
X57107692Y39181340D01*
X57230419Y39182930D01*
X57388537Y39183690D01*
X57587028Y39183884D01*
X57627262Y39183881D01*
G37*
X54845718Y39172903D02*
X54782681Y39128219D01*
X54727015Y39072553D01*
X54727015Y38450920D01*
X54727161Y38266341D01*
X54727850Y38121617D01*
X54729463Y38011245D01*
X54732380Y37929724D01*
X54736978Y37871551D01*
X54743639Y37831223D01*
X54752742Y37803240D01*
X54764666Y37782097D01*
X54774019Y37769532D01*
X54835755Y37720165D01*
X54906643Y37714807D01*
X54971434Y37745081D01*
X54992843Y37762954D01*
X55007154Y37786695D01*
X55015786Y37824925D01*
X55020158Y37886267D01*
X55021690Y37979340D01*
X55021837Y38051242D01*
X55021837Y38322098D01*
X56019694Y38322098D01*
X56019694Y38075693D01*
X56020726Y37963018D01*
X56024854Y37885582D01*
X56033629Y37833292D01*
X56048598Y37796056D01*
X56066697Y37769532D01*
X56128779Y37720304D01*
X56198988Y37714475D01*
X56266201Y37749465D01*
X56284552Y37767807D01*
X56297512Y37792123D01*
X56306061Y37829999D01*
X56311175Y37889022D01*
X56313831Y37976778D01*
X56315009Y38100854D01*
X56315146Y38129331D01*
X56316118Y38363108D01*
X56316619Y38555772D01*
X56316456Y38711565D01*
X56315435Y38834729D01*
X56313363Y38929507D01*
X56310047Y39000141D01*
X56305293Y39050874D01*
X56298909Y39085948D01*
X56290700Y39109607D01*
X56280473Y39126091D01*
X56269158Y39138527D01*
X56205151Y39178306D01*
X56138397Y39172903D01*
X56075360Y39128219D01*
X56049851Y39099390D01*
X56033591Y39067545D01*
X56024519Y39022192D01*
X56020574Y38952834D01*
X56019695Y38848978D01*
X56019694Y38844736D01*
X56019694Y38616920D01*
X55021837Y38616920D01*
X55021837Y38855045D01*
X55020819Y38964749D01*
X55016729Y39038824D01*
X55008015Y39086973D01*
X54993125Y39118899D01*
X54976480Y39138527D01*
X54912473Y39178306D01*
X54845718Y39172903D01*
G36*
X56269158Y39138527D02*
G01*
X56280473Y39126091D01*
X56290700Y39109607D01*
X56298909Y39085948D01*
X56305293Y39050874D01*
X56310047Y39000141D01*
X56313363Y38929507D01*
X56315435Y38834729D01*
X56316456Y38711565D01*
X56316619Y38555772D01*
X56316118Y38363108D01*
X56315146Y38129331D01*
X56315009Y38100854D01*
X56313831Y37976778D01*
X56311175Y37889022D01*
X56306061Y37829999D01*
X56297512Y37792123D01*
X56284552Y37767807D01*
X56266201Y37749465D01*
X56198988Y37714475D01*
X56128779Y37720304D01*
X56066697Y37769532D01*
X56048598Y37796056D01*
X56033629Y37833292D01*
X56024854Y37885582D01*
X56020726Y37963018D01*
X56019694Y38075693D01*
X56019694Y38322098D01*
X55021837Y38322098D01*
X55021837Y38051242D01*
X55021690Y37979340D01*
X55020158Y37886267D01*
X55015786Y37824925D01*
X55007154Y37786695D01*
X54992843Y37762954D01*
X54971434Y37745081D01*
X54906643Y37714807D01*
X54835755Y37720165D01*
X54774019Y37769532D01*
X54764666Y37782097D01*
X54752742Y37803240D01*
X54743639Y37831223D01*
X54736978Y37871551D01*
X54732380Y37929724D01*
X54729463Y38011245D01*
X54727850Y38121617D01*
X54727161Y38266341D01*
X54727015Y38450920D01*
X54727015Y39072553D01*
X54782681Y39128219D01*
X54845718Y39172903D01*
X54912473Y39178306D01*
X54976480Y39138527D01*
X54993125Y39118899D01*
X55008015Y39086973D01*
X55016729Y39038824D01*
X55020819Y38964749D01*
X55021837Y38855045D01*
X55021837Y38616920D01*
X56019694Y38616920D01*
X56019694Y38844736D01*
X56019695Y38848978D01*
X56020574Y38952834D01*
X56024519Y39022192D01*
X56033591Y39067545D01*
X56049851Y39099390D01*
X56075360Y39128219D01*
X56138397Y39172903D01*
X56205151Y39178306D01*
X56269158Y39138527D01*
G37*
X65313270Y39183466D02*
X65054159Y39174705D01*
X64833774Y39148137D01*
X64648481Y39102172D01*
X64494645Y39035217D01*
X64368634Y38945684D01*
X64266813Y38831981D01*
X64185549Y38692518D01*
X64183950Y38689117D01*
X64135451Y38564298D01*
X64118171Y38453754D01*
X64132175Y38342503D01*
X64177532Y38215567D01*
X64186134Y38196251D01*
X64244794Y38083194D01*
X64310720Y37995835D01*
X64395806Y37921573D01*
X64511946Y37847809D01*
X64518693Y37843958D01*
X64619796Y37795392D01*
X64734071Y37759121D01*
X64868859Y37733894D01*
X65031505Y37718461D01*
X65229351Y37711569D01*
X65299253Y37710970D01*
X65632116Y37709777D01*
X65679119Y37769532D01*
X65693062Y37789181D01*
X65703939Y37812127D01*
X65712129Y37843871D01*
X65718013Y37889918D01*
X65721969Y37955767D01*
X65723259Y38004598D01*
X65408623Y38004598D01*
X65220020Y38004598D01*
X65109655Y38007826D01*
X64996359Y38016319D01*
X64903375Y38028297D01*
X64897762Y38029306D01*
X64732610Y38073612D01*
X64604510Y38140178D01*
X64509410Y38232093D01*
X64443257Y38352445D01*
X64431753Y38384342D01*
X64420478Y38434020D01*
X64425360Y38483100D01*
X64449113Y38548393D01*
X64463431Y38580468D01*
X64510318Y38665703D01*
X64566809Y38725501D01*
X64628965Y38767143D01*
X64753468Y38821332D01*
X64912806Y38860585D01*
X65098427Y38883188D01*
X65232864Y38888163D01*
X65408623Y38889063D01*
X65408623Y38004598D01*
X65723259Y38004598D01*
X65724378Y38046922D01*
X65725619Y38168885D01*
X65726072Y38327159D01*
X65726123Y38450920D01*
X65726123Y39072553D01*
X65670457Y39128219D01*
X65645752Y39150782D01*
X65619039Y39166234D01*
X65581736Y39175902D01*
X65525257Y39181113D01*
X65441022Y39183195D01*
X65320445Y39183476D01*
X65313270Y39183466D01*
G36*
X65721969Y37955767D02*
G01*
X65718013Y37889918D01*
X65712129Y37843871D01*
X65703939Y37812127D01*
X65693062Y37789181D01*
X65679119Y37769532D01*
X65632116Y37709777D01*
X65299253Y37710970D01*
X65229351Y37711569D01*
X65031505Y37718461D01*
X64868859Y37733894D01*
X64734071Y37759121D01*
X64619796Y37795392D01*
X64518693Y37843958D01*
X64511946Y37847809D01*
X64395806Y37921573D01*
X64310720Y37995835D01*
X64244794Y38083194D01*
X64186134Y38196251D01*
X64177532Y38215567D01*
X64132175Y38342503D01*
X64120655Y38434020D01*
X64420478Y38434020D01*
X64431753Y38384342D01*
X64443257Y38352445D01*
X64509410Y38232093D01*
X64604510Y38140178D01*
X64732610Y38073612D01*
X64897762Y38029306D01*
X64903375Y38028297D01*
X64996359Y38016319D01*
X65109655Y38007826D01*
X65220020Y38004598D01*
X65408623Y38004598D01*
X65408623Y38889063D01*
X65232864Y38888163D01*
X65098427Y38883188D01*
X64912806Y38860585D01*
X64753468Y38821332D01*
X64628965Y38767143D01*
X64566809Y38725501D01*
X64510318Y38665703D01*
X64463431Y38580468D01*
X64449113Y38548393D01*
X64425360Y38483100D01*
X64420478Y38434020D01*
X64120655Y38434020D01*
X64118171Y38453754D01*
X64135451Y38564298D01*
X64183950Y38689117D01*
X64185549Y38692518D01*
X64266813Y38831981D01*
X64368634Y38945684D01*
X64494645Y39035217D01*
X64648481Y39102172D01*
X64833774Y39148137D01*
X65054159Y39174705D01*
X65313270Y39183466D01*
X65320445Y39183476D01*
X65441022Y39183195D01*
X65525257Y39181113D01*
X65581736Y39175902D01*
X65619039Y39166234D01*
X65645752Y39150782D01*
X65670457Y39128219D01*
X65726123Y39072553D01*
X65726123Y38450920D01*
X65726072Y38327159D01*
X65725619Y38168885D01*
X65724378Y38046922D01*
X65723259Y38004598D01*
X65721969Y37955767D01*
G37*
X79656377Y39183886D02*
X79577060Y39183080D01*
X79344649Y39177472D01*
X79150006Y39160815D01*
X78986496Y39131320D01*
X78847486Y39087203D01*
X78726341Y39026675D01*
X78616429Y38947950D01*
X78577171Y38913752D01*
X78512049Y38833735D01*
X78453328Y38725154D01*
X78408069Y38604797D01*
X78383335Y38489453D01*
X78380765Y38446831D01*
X78396870Y38328678D01*
X78440027Y38199618D01*
X78502504Y38077458D01*
X78576567Y37980008D01*
X78588597Y37968250D01*
X78690499Y37885606D01*
X78802088Y37821091D01*
X78929798Y37773017D01*
X79080062Y37739693D01*
X79259314Y37719428D01*
X79473987Y37710531D01*
X79572317Y37709777D01*
X79697340Y37710379D01*
X79785262Y37712896D01*
X79844333Y37718396D01*
X79882800Y37727945D01*
X79908912Y37742611D01*
X79922908Y37755134D01*
X79936129Y37770348D01*
X79946500Y37789975D01*
X79954365Y37819272D01*
X79960071Y37863497D01*
X79963961Y37927908D01*
X79966380Y38017763D01*
X79967674Y38138318D01*
X79968186Y38294833D01*
X79968265Y38446831D01*
X79968765Y38649560D01*
X79968657Y38811509D01*
X79966728Y38889063D01*
X79673444Y38889063D01*
X79673444Y38004598D01*
X79486346Y38004770D01*
X79373764Y38007999D01*
X79255852Y38016317D01*
X79157473Y38027952D01*
X79154480Y38028431D01*
X78995480Y38066873D01*
X78872154Y38126744D01*
X78778343Y38211942D01*
X78718737Y38304186D01*
X78682010Y38406511D01*
X78684858Y38502591D01*
X78727482Y38605581D01*
X78810854Y38712124D01*
X78926386Y38791073D01*
X79076557Y38843844D01*
X79176919Y38862519D01*
X79290843Y38875634D01*
X79411585Y38885127D01*
X79514281Y38889073D01*
X79520364Y38889092D01*
X79673444Y38889063D01*
X79966728Y38889063D01*
X79965529Y38937218D01*
X79956966Y39031229D01*
X79940558Y39098080D01*
X79913890Y39142314D01*
X79874551Y39168471D01*
X79820128Y39181091D01*
X79748207Y39184716D01*
X79656377Y39183886D01*
G36*
X79968657Y38811509D02*
G01*
X79968765Y38649560D01*
X79968265Y38446831D01*
X79968186Y38294833D01*
X79967674Y38138318D01*
X79966380Y38017763D01*
X79963961Y37927908D01*
X79960071Y37863497D01*
X79954365Y37819272D01*
X79946500Y37789975D01*
X79936129Y37770348D01*
X79922908Y37755134D01*
X79908912Y37742611D01*
X79882800Y37727945D01*
X79844333Y37718396D01*
X79785262Y37712896D01*
X79697340Y37710379D01*
X79572317Y37709777D01*
X79473987Y37710531D01*
X79259314Y37719428D01*
X79080062Y37739693D01*
X78929798Y37773017D01*
X78802088Y37821091D01*
X78690499Y37885606D01*
X78588597Y37968250D01*
X78576567Y37980008D01*
X78502504Y38077458D01*
X78440027Y38199618D01*
X78396870Y38328678D01*
X78386261Y38406511D01*
X78682010Y38406511D01*
X78718737Y38304186D01*
X78778343Y38211942D01*
X78872154Y38126744D01*
X78995480Y38066873D01*
X79154480Y38028431D01*
X79157473Y38027952D01*
X79255852Y38016317D01*
X79373764Y38007999D01*
X79486346Y38004770D01*
X79673444Y38004598D01*
X79673444Y38889063D01*
X79520364Y38889092D01*
X79514281Y38889073D01*
X79411585Y38885127D01*
X79290843Y38875634D01*
X79176919Y38862519D01*
X79076557Y38843844D01*
X78926386Y38791073D01*
X78810854Y38712124D01*
X78727482Y38605581D01*
X78684858Y38502591D01*
X78682010Y38406511D01*
X78386261Y38406511D01*
X78380765Y38446831D01*
X78383335Y38489453D01*
X78408069Y38604797D01*
X78453328Y38725154D01*
X78512049Y38833735D01*
X78577171Y38913752D01*
X78616429Y38947950D01*
X78726341Y39026675D01*
X78847486Y39087203D01*
X78986496Y39131320D01*
X79150006Y39160815D01*
X79344649Y39177472D01*
X79577060Y39183080D01*
X79656377Y39183886D01*
X79748207Y39184716D01*
X79820128Y39181091D01*
X79874551Y39168471D01*
X79913890Y39142314D01*
X79940558Y39098080D01*
X79956966Y39031229D01*
X79965529Y38937218D01*
X79966728Y38889063D01*
X79968657Y38811509D01*
G37*
X69970815Y39175082D02*
X69923473Y39147310D01*
X69861572Y39101892D01*
X69781903Y39036688D01*
X69681260Y38949560D01*
X69556432Y38838367D01*
X69404212Y38700970D01*
X69229962Y38543001D01*
X68867105Y38213950D01*
X68855765Y38655612D01*
X68851671Y38807643D01*
X68847722Y38920860D01*
X68843042Y39001797D01*
X68836759Y39056984D01*
X68827998Y39092955D01*
X68815886Y39116242D01*
X68799549Y39133378D01*
X68790887Y39140579D01*
X68721517Y39178654D01*
X68655507Y39173087D01*
X68603144Y39140560D01*
X68549605Y39097235D01*
X68542946Y38464518D01*
X68541103Y38278436D01*
X68540165Y38132256D01*
X68540457Y38020526D01*
X68542303Y37937795D01*
X68546030Y37878611D01*
X68551960Y37837524D01*
X68560420Y37809081D01*
X68571733Y37787832D01*
X68584280Y37770789D01*
X68611424Y37739182D01*
X68638433Y37718231D01*
X68669050Y37710189D01*
X68707023Y37717312D01*
X68756098Y37741851D01*
X68820020Y37786063D01*
X68902535Y37852201D01*
X69007390Y37942518D01*
X69138331Y38059269D01*
X69286658Y38193418D01*
X69819605Y38676848D01*
X69830944Y38236630D01*
X69835045Y38084876D01*
X69839005Y37971923D01*
X69843701Y37891225D01*
X69850013Y37836236D01*
X69858817Y37800412D01*
X69870992Y37777207D01*
X69887417Y37760076D01*
X69895823Y37753094D01*
X69970114Y37714743D01*
X70040312Y37720528D01*
X70101441Y37769532D01*
X70115425Y37789247D01*
X70126324Y37812271D01*
X70134521Y37844128D01*
X70140400Y37890342D01*
X70144344Y37956437D01*
X70146736Y38047938D01*
X70147959Y38170366D01*
X70148398Y38329248D01*
X70148444Y38446831D01*
X70148297Y38630744D01*
X70147599Y38774825D01*
X70145967Y38884597D01*
X70143019Y38965584D01*
X70138369Y39023309D01*
X70131637Y39063296D01*
X70122437Y39091070D01*
X70110386Y39112154D01*
X70101441Y39124129D01*
X70078766Y39152497D01*
X70057575Y39173915D01*
X70034658Y39186245D01*
X70006808Y39187347D01*
X69970815Y39175082D01*
G36*
X70034658Y39186245D02*
G01*
X70057575Y39173915D01*
X70078766Y39152497D01*
X70101441Y39124129D01*
X70110386Y39112154D01*
X70122437Y39091070D01*
X70131637Y39063296D01*
X70138369Y39023309D01*
X70143019Y38965584D01*
X70145967Y38884597D01*
X70147599Y38774825D01*
X70148297Y38630744D01*
X70148444Y38446831D01*
X70148398Y38329248D01*
X70147959Y38170366D01*
X70146736Y38047938D01*
X70144344Y37956437D01*
X70140400Y37890342D01*
X70134521Y37844128D01*
X70126324Y37812271D01*
X70115425Y37789247D01*
X70101441Y37769532D01*
X70040312Y37720528D01*
X69970114Y37714743D01*
X69895823Y37753094D01*
X69887417Y37760076D01*
X69870992Y37777207D01*
X69858817Y37800412D01*
X69850013Y37836236D01*
X69843701Y37891225D01*
X69839005Y37971923D01*
X69835045Y38084876D01*
X69830944Y38236630D01*
X69819605Y38676848D01*
X69286658Y38193418D01*
X69138331Y38059269D01*
X69007390Y37942518D01*
X68902535Y37852201D01*
X68820020Y37786063D01*
X68756098Y37741851D01*
X68707023Y37717312D01*
X68669050Y37710189D01*
X68638433Y37718231D01*
X68611424Y37739182D01*
X68584280Y37770789D01*
X68571733Y37787832D01*
X68560420Y37809081D01*
X68551960Y37837524D01*
X68546030Y37878611D01*
X68542303Y37937795D01*
X68540457Y38020526D01*
X68540165Y38132256D01*
X68541103Y38278436D01*
X68542946Y38464518D01*
X68549605Y39097235D01*
X68603144Y39140560D01*
X68655507Y39173087D01*
X68721517Y39178654D01*
X68790887Y39140579D01*
X68799549Y39133378D01*
X68815886Y39116242D01*
X68827998Y39092955D01*
X68836759Y39056984D01*
X68843042Y39001797D01*
X68847722Y38920860D01*
X68851671Y38807643D01*
X68855765Y38655612D01*
X68867105Y38213950D01*
X69229962Y38543001D01*
X69404212Y38700970D01*
X69556432Y38838367D01*
X69681260Y38949560D01*
X69781903Y39036688D01*
X69861572Y39101892D01*
X69923473Y39147310D01*
X69970815Y39175082D01*
X70006808Y39187347D01*
X70034658Y39186245D01*
G37*
X71276553Y39172771D02*
X71138908Y39149675D01*
X71033194Y39113772D01*
X70964420Y39066499D01*
X70945679Y39039529D01*
X70926621Y38976802D01*
X70939446Y38920055D01*
X70979933Y38866242D01*
X71042842Y38841067D01*
X71134123Y38843112D01*
X71204724Y38856751D01*
X71361606Y38882737D01*
X71521934Y38885207D01*
X71701389Y38864114D01*
X71750958Y38855177D01*
X71917823Y38808131D01*
X72048366Y38738148D01*
X72141156Y38646421D01*
X72194761Y38534143D01*
X72205848Y38476095D01*
X72198591Y38358324D01*
X72151739Y38254127D01*
X72069562Y38165535D01*
X71956329Y38094579D01*
X71816309Y38043290D01*
X71653771Y38013698D01*
X71472985Y38007834D01*
X71278218Y38027729D01*
X71267221Y38029605D01*
X71189754Y38044034D01*
X71146802Y38057971D01*
X71128185Y38078651D01*
X71123724Y38113307D01*
X71123623Y38131659D01*
X71123623Y38208706D01*
X71261185Y38208706D01*
X71382662Y38217027D01*
X71465561Y38243545D01*
X71513794Y38290588D01*
X71531276Y38360487D01*
X71531490Y38369610D01*
X71521261Y38429355D01*
X71486188Y38472016D01*
X71420910Y38500248D01*
X71320070Y38516706D01*
X71222395Y38522757D01*
X71080431Y38526229D01*
X70977457Y38520931D01*
X70907227Y38501384D01*
X70863494Y38462104D01*
X70840010Y38397611D01*
X70830529Y38302423D01*
X70828801Y38177402D01*
X70831632Y38037854D01*
X70840147Y37942930D01*
X70854386Y37892253D01*
X70857149Y37888284D01*
X70935330Y37824961D01*
X71049955Y37774815D01*
X71193760Y37738915D01*
X71359476Y37718333D01*
X71539838Y37714140D01*
X71727578Y37727408D01*
X71837998Y37743705D01*
X72011188Y37792726D01*
X72172154Y37872867D01*
X72306924Y37976879D01*
X72327408Y37997668D01*
X72393961Y38085064D01*
X72454011Y38193379D01*
X72500544Y38306937D01*
X72526543Y38410060D01*
X72529676Y38449666D01*
X72516336Y38532283D01*
X72480880Y38635074D01*
X72430111Y38743271D01*
X72370832Y38842108D01*
X72318459Y38908125D01*
X72196006Y39006325D01*
X72037712Y39084485D01*
X71849249Y39140838D01*
X71636290Y39173614D01*
X71441123Y39181623D01*
X71276553Y39172771D01*
G36*
X71636290Y39173614D02*
G01*
X71849249Y39140838D01*
X72037712Y39084485D01*
X72196006Y39006325D01*
X72318459Y38908125D01*
X72370832Y38842108D01*
X72430111Y38743271D01*
X72480880Y38635074D01*
X72516336Y38532283D01*
X72529676Y38449666D01*
X72526543Y38410060D01*
X72500544Y38306937D01*
X72454011Y38193379D01*
X72393961Y38085064D01*
X72327408Y37997668D01*
X72306924Y37976879D01*
X72172154Y37872867D01*
X72011188Y37792726D01*
X71837998Y37743705D01*
X71727578Y37727408D01*
X71539838Y37714140D01*
X71359476Y37718333D01*
X71193760Y37738915D01*
X71049955Y37774815D01*
X70935330Y37824961D01*
X70857149Y37888284D01*
X70854386Y37892253D01*
X70840147Y37942930D01*
X70831632Y38037854D01*
X70828801Y38177402D01*
X70830529Y38302423D01*
X70840010Y38397611D01*
X70863494Y38462104D01*
X70907227Y38501384D01*
X70977457Y38520931D01*
X71080431Y38526229D01*
X71222395Y38522757D01*
X71320070Y38516706D01*
X71420910Y38500248D01*
X71486188Y38472016D01*
X71521261Y38429355D01*
X71531490Y38369610D01*
X71531276Y38360487D01*
X71513794Y38290588D01*
X71465561Y38243545D01*
X71382662Y38217027D01*
X71261185Y38208706D01*
X71123623Y38208706D01*
X71123623Y38131659D01*
X71123724Y38113307D01*
X71128185Y38078651D01*
X71146802Y38057971D01*
X71189754Y38044034D01*
X71267221Y38029605D01*
X71278218Y38027729D01*
X71472985Y38007834D01*
X71653771Y38013698D01*
X71816309Y38043290D01*
X71956329Y38094579D01*
X72069562Y38165535D01*
X72151739Y38254127D01*
X72198591Y38358324D01*
X72205848Y38476095D01*
X72194761Y38534143D01*
X72141156Y38646421D01*
X72048366Y38738148D01*
X71917823Y38808131D01*
X71750958Y38855177D01*
X71701389Y38864114D01*
X71521934Y38885207D01*
X71361606Y38882737D01*
X71204724Y38856751D01*
X71134123Y38843112D01*
X71042842Y38841067D01*
X70979933Y38866242D01*
X70939446Y38920055D01*
X70926621Y38976802D01*
X70945679Y39039529D01*
X70964420Y39066499D01*
X71033194Y39113772D01*
X71138908Y39149675D01*
X71276553Y39172771D01*
X71441123Y39181623D01*
X71636290Y39173614D01*
G37*
X66896237Y39183497D02*
X66742838Y39181660D01*
X66625285Y39177366D01*
X66538824Y39169605D01*
X66478700Y39157367D01*
X66440160Y39139642D01*
X66418448Y39115421D01*
X66408810Y39083695D01*
X66406492Y39043454D01*
X66406480Y39038702D01*
X66408492Y38993186D01*
X66418005Y38958008D01*
X66440229Y38931749D01*
X66480378Y38912988D01*
X66543664Y38900304D01*
X66635298Y38892278D01*
X66760493Y38887488D01*
X66924461Y38884516D01*
X66974717Y38883857D01*
X67461033Y38877723D01*
X67467835Y38747322D01*
X67474636Y38616920D01*
X67136841Y38616920D01*
X67004873Y38616433D01*
X66910643Y38614374D01*
X66846535Y38609845D01*
X66804936Y38601947D01*
X66778230Y38589782D01*
X66758802Y38572452D01*
X66758678Y38572314D01*
X66723443Y38504776D01*
X66724717Y38431779D01*
X66761696Y38369552D01*
X66769015Y38363156D01*
X66794990Y38346672D01*
X66830583Y38335204D01*
X66883727Y38327889D01*
X66962352Y38323862D01*
X67074390Y38322260D01*
X67146046Y38322098D01*
X67472373Y38322098D01*
X67472373Y38004598D01*
X66976959Y38004598D01*
X66813394Y38004312D01*
X66689183Y38003143D01*
X66598325Y38000623D01*
X66534820Y37996285D01*
X66492667Y37989663D01*
X66465864Y37980290D01*
X66448411Y37967698D01*
X66444013Y37963125D01*
X66411540Y37899751D01*
X66409164Y37827653D01*
X66435805Y37765142D01*
X66456883Y37745081D01*
X66478810Y37734037D01*
X66512785Y37725492D01*
X66564182Y37719148D01*
X66638375Y37714705D01*
X66740739Y37711864D01*
X66876647Y37710325D01*
X67051475Y37709790D01*
X67091000Y37709777D01*
X67268756Y37709893D01*
X67406738Y37710535D01*
X67510524Y37712143D01*
X67585697Y37715156D01*
X67637839Y37720014D01*
X67672529Y37727156D01*
X67695350Y37737023D01*
X67711883Y37750054D01*
X67720953Y37759411D01*
X67734606Y37775983D01*
X67745272Y37796513D01*
X67753320Y37826384D01*
X67759116Y37870979D01*
X67763027Y37935683D01*
X67765423Y38025880D01*
X67766670Y38146953D01*
X67767136Y38304287D01*
X67767194Y38436709D01*
X67767051Y38622265D01*
X67766374Y38767935D01*
X67764788Y38879189D01*
X67761919Y38961499D01*
X67757393Y39020334D01*
X67750836Y39061166D01*
X67741874Y39089465D01*
X67730133Y39110702D01*
X67720191Y39124129D01*
X67673188Y39183884D01*
X67090237Y39183884D01*
X66896237Y39183497D01*
G36*
X67720191Y39124129D02*
G01*
X67730133Y39110702D01*
X67741874Y39089465D01*
X67750836Y39061166D01*
X67757393Y39020334D01*
X67761919Y38961499D01*
X67764788Y38879189D01*
X67766374Y38767935D01*
X67767051Y38622265D01*
X67767194Y38436709D01*
X67767136Y38304287D01*
X67766670Y38146953D01*
X67765423Y38025880D01*
X67763027Y37935683D01*
X67759116Y37870979D01*
X67753320Y37826384D01*
X67745272Y37796513D01*
X67734606Y37775983D01*
X67720953Y37759411D01*
X67711883Y37750054D01*
X67695350Y37737023D01*
X67672529Y37727156D01*
X67637839Y37720014D01*
X67585697Y37715156D01*
X67510524Y37712143D01*
X67406738Y37710535D01*
X67268756Y37709893D01*
X67091000Y37709777D01*
X67051475Y37709790D01*
X66876647Y37710325D01*
X66740739Y37711864D01*
X66638375Y37714705D01*
X66564182Y37719148D01*
X66512785Y37725492D01*
X66478810Y37734037D01*
X66456883Y37745081D01*
X66435805Y37765142D01*
X66409164Y37827653D01*
X66411540Y37899751D01*
X66444013Y37963125D01*
X66448411Y37967698D01*
X66465864Y37980290D01*
X66492667Y37989663D01*
X66534820Y37996285D01*
X66598325Y38000623D01*
X66689183Y38003143D01*
X66813394Y38004312D01*
X66976959Y38004598D01*
X67472373Y38004598D01*
X67472373Y38322098D01*
X67146046Y38322098D01*
X67074390Y38322260D01*
X66962352Y38323862D01*
X66883727Y38327889D01*
X66830583Y38335204D01*
X66794990Y38346672D01*
X66769015Y38363156D01*
X66761696Y38369552D01*
X66724717Y38431779D01*
X66723443Y38504776D01*
X66758678Y38572314D01*
X66758802Y38572452D01*
X66778230Y38589782D01*
X66804936Y38601947D01*
X66846535Y38609845D01*
X66910643Y38614374D01*
X67004873Y38616433D01*
X67136841Y38616920D01*
X67474636Y38616920D01*
X67467835Y38747322D01*
X67461033Y38877723D01*
X66974717Y38883857D01*
X66924461Y38884516D01*
X66760493Y38887488D01*
X66635298Y38892278D01*
X66543664Y38900304D01*
X66480378Y38912988D01*
X66440229Y38931749D01*
X66418005Y38958008D01*
X66408492Y38993186D01*
X66406480Y39038702D01*
X66406492Y39043454D01*
X66408810Y39083695D01*
X66418448Y39115421D01*
X66440160Y39139642D01*
X66478700Y39157367D01*
X66538824Y39169605D01*
X66625285Y39177366D01*
X66742838Y39181660D01*
X66896237Y39183497D01*
X67090237Y39183884D01*
X67673188Y39183884D01*
X67720191Y39124129D01*
G37*
X76826646Y39183725D02*
X76687210Y39182977D01*
X76581963Y39181237D01*
X76505324Y39178100D01*
X76451710Y39173164D01*
X76415537Y39166024D01*
X76391221Y39156276D01*
X76373181Y39143516D01*
X76366649Y39137644D01*
X76326922Y39075250D01*
X76319769Y39003559D01*
X76345903Y38939913D01*
X76357987Y38927050D01*
X76377532Y38914579D01*
X76409003Y38904957D01*
X76458236Y38897718D01*
X76531066Y38892394D01*
X76633329Y38888515D01*
X76770862Y38885613D01*
X76896603Y38883848D01*
X77394248Y38877723D01*
X77401049Y38747322D01*
X77407850Y38616920D01*
X77070055Y38616920D01*
X76923406Y38615655D01*
X76816044Y38610363D01*
X76741937Y38598799D01*
X76695049Y38578719D01*
X76669347Y38547879D01*
X76658796Y38504033D01*
X76657194Y38463340D01*
X76662173Y38413409D01*
X76680964Y38376617D01*
X76719347Y38351042D01*
X76783100Y38334761D01*
X76878004Y38325851D01*
X77009838Y38322390D01*
X77081794Y38322098D01*
X77405587Y38322098D01*
X77405587Y38004598D01*
X76906658Y38004598D01*
X76743113Y38004371D01*
X76618817Y38003348D01*
X76527666Y38001021D01*
X76463552Y37996882D01*
X76420370Y37990420D01*
X76392013Y37981129D01*
X76372375Y37968498D01*
X76362373Y37959241D01*
X76328062Y37905214D01*
X76317015Y37857188D01*
X76332789Y37798526D01*
X76362373Y37755134D01*
X76378156Y37741474D01*
X76398531Y37730867D01*
X76428978Y37722929D01*
X76474977Y37717274D01*
X76542010Y37713518D01*
X76635558Y37711277D01*
X76761100Y37710166D01*
X76924118Y37709801D01*
X77008712Y37709777D01*
X77189868Y37709937D01*
X77331148Y37710675D01*
X77438032Y37712373D01*
X77516002Y37715418D01*
X77570539Y37720194D01*
X77607122Y37727085D01*
X77631233Y37736476D01*
X77648353Y37748752D01*
X77655051Y37755134D01*
X77668308Y37770395D01*
X77678699Y37790084D01*
X77686571Y37819476D01*
X77692273Y37863847D01*
X77696152Y37928474D01*
X77698557Y38018633D01*
X77699836Y38139599D01*
X77700335Y38296649D01*
X77700408Y38442877D01*
X77700341Y38630143D01*
X77699870Y38777349D01*
X77698593Y38889795D01*
X77696109Y38972778D01*
X77692016Y39031597D01*
X77685911Y39071550D01*
X77677392Y39097936D01*
X77666058Y39116052D01*
X77651505Y39131197D01*
X77647920Y39134574D01*
X77630521Y39149522D01*
X77610305Y39161097D01*
X77581664Y39169732D01*
X77538989Y39175855D01*
X77476675Y39179898D01*
X77389112Y39182291D01*
X77270693Y39183466D01*
X77115811Y39183852D01*
X77005857Y39183884D01*
X76826646Y39183725D01*
G36*
X77115811Y39183852D02*
G01*
X77270693Y39183466D01*
X77389112Y39182291D01*
X77476675Y39179898D01*
X77538989Y39175855D01*
X77581664Y39169732D01*
X77610305Y39161097D01*
X77630521Y39149522D01*
X77647920Y39134574D01*
X77651505Y39131197D01*
X77666058Y39116052D01*
X77677392Y39097936D01*
X77685911Y39071550D01*
X77692016Y39031597D01*
X77696109Y38972778D01*
X77698593Y38889795D01*
X77699870Y38777349D01*
X77700341Y38630143D01*
X77700408Y38442877D01*
X77700335Y38296649D01*
X77699836Y38139599D01*
X77698557Y38018633D01*
X77696152Y37928474D01*
X77692273Y37863847D01*
X77686571Y37819476D01*
X77678699Y37790084D01*
X77668308Y37770395D01*
X77655051Y37755134D01*
X77648353Y37748752D01*
X77631233Y37736476D01*
X77607122Y37727085D01*
X77570539Y37720194D01*
X77516002Y37715418D01*
X77438032Y37712373D01*
X77331148Y37710675D01*
X77189868Y37709937D01*
X77008712Y37709777D01*
X76924118Y37709801D01*
X76761100Y37710166D01*
X76635558Y37711277D01*
X76542010Y37713518D01*
X76474977Y37717274D01*
X76428978Y37722929D01*
X76398531Y37730867D01*
X76378156Y37741474D01*
X76362373Y37755134D01*
X76332789Y37798526D01*
X76317015Y37857188D01*
X76328062Y37905214D01*
X76362373Y37959241D01*
X76372375Y37968498D01*
X76392013Y37981129D01*
X76420370Y37990420D01*
X76463552Y37996882D01*
X76527666Y38001021D01*
X76618817Y38003348D01*
X76743113Y38004371D01*
X76906658Y38004598D01*
X77405587Y38004598D01*
X77405587Y38322098D01*
X77081794Y38322098D01*
X77009838Y38322390D01*
X76878004Y38325851D01*
X76783100Y38334761D01*
X76719347Y38351042D01*
X76680964Y38376617D01*
X76662173Y38413409D01*
X76657194Y38463340D01*
X76658796Y38504033D01*
X76669347Y38547879D01*
X76695049Y38578719D01*
X76741937Y38598799D01*
X76816044Y38610363D01*
X76923406Y38615655D01*
X77070055Y38616920D01*
X77407850Y38616920D01*
X77401049Y38747322D01*
X77394248Y38877723D01*
X76896603Y38883848D01*
X76770862Y38885613D01*
X76633329Y38888515D01*
X76531066Y38892394D01*
X76458236Y38897718D01*
X76409003Y38904957D01*
X76377532Y38914579D01*
X76357987Y38927050D01*
X76345903Y38939913D01*
X76319769Y39003559D01*
X76326922Y39075250D01*
X76366649Y39137644D01*
X76373181Y39143516D01*
X76391221Y39156276D01*
X76415537Y39166024D01*
X76451710Y39173164D01*
X76505324Y39178100D01*
X76581963Y39181237D01*
X76687210Y39182977D01*
X76826646Y39183725D01*
X77005857Y39183884D01*
X77115811Y39183852D01*
G37*
X59836215Y39179932D02*
X59796861Y39165868D01*
X59795342Y39165180D01*
X59741900Y39124396D01*
X59712455Y39082445D01*
X59706693Y39062776D01*
X59706978Y39036640D01*
X59715085Y38999409D01*
X59732792Y38946449D01*
X59761876Y38873132D01*
X59804113Y38774826D01*
X59861280Y38646901D01*
X59935154Y38484725D01*
X59975816Y38396084D01*
X60049241Y38237842D01*
X60118169Y38092320D01*
X60179968Y37964840D01*
X60232009Y37860721D01*
X60271659Y37785284D01*
X60296289Y37743849D01*
X60301163Y37738125D01*
X60363522Y37712875D01*
X60433960Y37716257D01*
X60490452Y37746967D01*
X60492754Y37749465D01*
X60515226Y37783485D01*
X60552922Y37849749D01*
X60601194Y37939728D01*
X60655392Y38044891D01*
X60674870Y38083644D01*
X60821898Y38378137D01*
X60982157Y38058228D01*
X61039359Y37947694D01*
X61092429Y37851833D01*
X61137031Y37777984D01*
X61168830Y37733484D01*
X61179607Y37724048D01*
X61263374Y37711268D01*
X61332496Y37738125D01*
X61352829Y37766828D01*
X61388014Y37830619D01*
X61435181Y37923221D01*
X61491460Y38038357D01*
X61553981Y38169751D01*
X61619873Y38311125D01*
X61686266Y38456203D01*
X61750290Y38598707D01*
X61809074Y38732360D01*
X61859748Y38850886D01*
X61899442Y38948008D01*
X61925285Y39017448D01*
X61934408Y39052930D01*
X61934315Y39054215D01*
X61912119Y39098863D01*
X61867754Y39144337D01*
X61865141Y39146315D01*
X61810614Y39177137D01*
X61760179Y39176839D01*
X61741276Y39171028D01*
X61718241Y39158470D01*
X61693780Y39133766D01*
X61664958Y39091793D01*
X61628840Y39027425D01*
X61582492Y38935537D01*
X61522981Y38811006D01*
X61469313Y38696054D01*
X61407568Y38562805D01*
X61352240Y38442977D01*
X61306203Y38342829D01*
X61272330Y38268622D01*
X61253498Y38226616D01*
X61250751Y38220045D01*
X61238398Y38230787D01*
X61210007Y38275764D01*
X61169355Y38348412D01*
X61120221Y38442166D01*
X61100669Y38480848D01*
X61034435Y38611465D01*
X60983356Y38706589D01*
X60943240Y38771748D01*
X60909896Y38812475D01*
X60879131Y38834299D01*
X60846755Y38842751D01*
X60825656Y38843706D01*
X60788438Y38840408D01*
X60755824Y38826768D01*
X60723418Y38797166D01*
X60686824Y38745984D01*
X60641646Y38667602D01*
X60583488Y38556400D01*
X60551400Y38493142D01*
X60499352Y38392325D01*
X60453956Y38308720D01*
X60419220Y38249380D01*
X60399147Y38221361D01*
X60396417Y38220194D01*
X60383454Y38242246D01*
X60354431Y38299507D01*
X60312255Y38385984D01*
X60259832Y38495684D01*
X60200069Y38622614D01*
X60170671Y38685661D01*
X60094192Y38848370D01*
X60032608Y38973571D01*
X59982722Y39065349D01*
X59941337Y39127790D01*
X59905256Y39164977D01*
X59871281Y39180996D01*
X59836215Y39179932D01*
G36*
X59905256Y39164977D02*
G01*
X59941337Y39127790D01*
X59982722Y39065349D01*
X60032608Y38973571D01*
X60094192Y38848370D01*
X60170671Y38685661D01*
X60200069Y38622614D01*
X60259832Y38495684D01*
X60312255Y38385984D01*
X60354431Y38299507D01*
X60383454Y38242246D01*
X60396417Y38220194D01*
X60399147Y38221361D01*
X60419220Y38249380D01*
X60453956Y38308720D01*
X60499352Y38392325D01*
X60551400Y38493142D01*
X60583488Y38556400D01*
X60641646Y38667602D01*
X60686824Y38745984D01*
X60723418Y38797166D01*
X60755824Y38826768D01*
X60788438Y38840408D01*
X60825656Y38843706D01*
X60846755Y38842751D01*
X60879131Y38834299D01*
X60909896Y38812475D01*
X60943240Y38771748D01*
X60983356Y38706589D01*
X61034435Y38611465D01*
X61100669Y38480848D01*
X61120221Y38442166D01*
X61169355Y38348412D01*
X61210007Y38275764D01*
X61238398Y38230787D01*
X61250751Y38220045D01*
X61253498Y38226616D01*
X61272330Y38268622D01*
X61306203Y38342829D01*
X61352240Y38442977D01*
X61407568Y38562805D01*
X61469313Y38696054D01*
X61522981Y38811006D01*
X61582492Y38935537D01*
X61628840Y39027425D01*
X61664958Y39091793D01*
X61693780Y39133766D01*
X61718241Y39158470D01*
X61741276Y39171028D01*
X61760179Y39176839D01*
X61810614Y39177137D01*
X61865141Y39146315D01*
X61867754Y39144337D01*
X61912119Y39098863D01*
X61934315Y39054215D01*
X61934408Y39052930D01*
X61925285Y39017448D01*
X61899442Y38948008D01*
X61859748Y38850886D01*
X61809074Y38732360D01*
X61750290Y38598707D01*
X61686266Y38456203D01*
X61619873Y38311125D01*
X61553981Y38169751D01*
X61491460Y38038357D01*
X61435181Y37923221D01*
X61388014Y37830619D01*
X61352829Y37766828D01*
X61332496Y37738125D01*
X61263374Y37711268D01*
X61179607Y37724048D01*
X61168830Y37733484D01*
X61137031Y37777984D01*
X61092429Y37851833D01*
X61039359Y37947694D01*
X60982157Y38058228D01*
X60821898Y38378137D01*
X60674870Y38083644D01*
X60655392Y38044891D01*
X60601194Y37939728D01*
X60552922Y37849749D01*
X60515226Y37783485D01*
X60492754Y37749465D01*
X60490452Y37746967D01*
X60433960Y37716257D01*
X60363522Y37712875D01*
X60301163Y37738125D01*
X60296289Y37743849D01*
X60271659Y37785284D01*
X60232009Y37860721D01*
X60179968Y37964840D01*
X60118169Y38092320D01*
X60049241Y38237842D01*
X59975816Y38396084D01*
X59935154Y38484725D01*
X59861280Y38646901D01*
X59804113Y38774826D01*
X59761876Y38873132D01*
X59732792Y38946449D01*
X59715085Y38999409D01*
X59706978Y39036640D01*
X59706693Y39062776D01*
X59712455Y39082445D01*
X59741900Y39124396D01*
X59795342Y39165180D01*
X59796861Y39165868D01*
X59836215Y39179932D01*
X59871281Y39180996D01*
X59905256Y39164977D01*
G37*
X74775346Y39181304D02*
X74625048Y39170797D01*
X74485263Y39154386D01*
X74364117Y39132690D01*
X74269734Y39106327D01*
X74210241Y39075913D01*
X74201109Y39066960D01*
X74169355Y38997489D01*
X74178984Y38926169D01*
X74228237Y38865150D01*
X74230587Y38863402D01*
X74259557Y38844601D01*
X74289799Y38834715D01*
X74331981Y38833514D01*
X74396772Y38840770D01*
X74494841Y38856253D01*
X74502730Y38857556D01*
X74648857Y38875508D01*
X74806514Y38884364D01*
X74964636Y38884450D01*
X75112160Y38876092D01*
X75238020Y38859618D01*
X75331152Y38835354D01*
X75337271Y38832915D01*
X75404835Y38795060D01*
X75428573Y38756750D01*
X75409990Y38719073D01*
X75350591Y38683117D01*
X75251881Y38649971D01*
X75115365Y38620723D01*
X75024337Y38606641D01*
X74835118Y38579554D01*
X74684625Y38554793D01*
X74566446Y38530214D01*
X74474171Y38503672D01*
X74401390Y38473024D01*
X74341690Y38436125D01*
X74288662Y38390832D01*
X74246049Y38346354D01*
X74195494Y38284382D01*
X74170615Y38231093D01*
X74162834Y38165438D01*
X74162551Y38141394D01*
X74168395Y38061606D01*
X74191751Y38002247D01*
X74232173Y37949561D01*
X74314324Y37869023D01*
X74405932Y37807603D01*
X74513804Y37763298D01*
X74644745Y37734105D01*
X74805564Y37718021D01*
X75003066Y37713044D01*
X75035676Y37713128D01*
X75167381Y37715858D01*
X75297995Y37722061D01*
X75413281Y37730847D01*
X75499000Y37741327D01*
X75505933Y37742530D01*
X75591159Y37762719D01*
X75663447Y37788222D01*
X75704370Y37811538D01*
X75742454Y37873048D01*
X75745105Y37944675D01*
X75712275Y38008506D01*
X75704930Y38015724D01*
X75674568Y38037170D01*
X75636598Y38046410D01*
X75577832Y38044837D01*
X75506492Y38036664D01*
X75426777Y38029363D01*
X75315029Y38023203D01*
X75184572Y38018733D01*
X75048726Y38016501D01*
X75012998Y38016354D01*
X74876646Y38016904D01*
X74776856Y38019551D01*
X74704848Y38025214D01*
X74651840Y38034811D01*
X74609053Y38049260D01*
X74583340Y38061295D01*
X74526837Y38094712D01*
X74490813Y38124976D01*
X74485548Y38133555D01*
X74496655Y38168981D01*
X74549457Y38203276D01*
X74640296Y38234883D01*
X74765512Y38262246D01*
X74802404Y38268341D01*
X74995098Y38298607D01*
X75148884Y38323904D01*
X75269697Y38346071D01*
X75363475Y38366947D01*
X75436151Y38388370D01*
X75493663Y38412178D01*
X75541945Y38440209D01*
X75586933Y38474302D01*
X75634563Y38516295D01*
X75650591Y38531018D01*
X75706786Y38585963D01*
X75736532Y38629496D01*
X75748169Y38679312D01*
X75750051Y38742088D01*
X75729331Y38865192D01*
X75667409Y38969786D01*
X75564639Y39055532D01*
X75421378Y39122093D01*
X75319158Y39151948D01*
X75208063Y39171230D01*
X75074979Y39182138D01*
X74928032Y39185290D01*
X74775346Y39181304D01*
G36*
X75074979Y39182138D02*
G01*
X75208063Y39171230D01*
X75319158Y39151948D01*
X75421378Y39122093D01*
X75564639Y39055532D01*
X75667409Y38969786D01*
X75729331Y38865192D01*
X75750051Y38742088D01*
X75748169Y38679312D01*
X75736532Y38629496D01*
X75706786Y38585963D01*
X75650591Y38531018D01*
X75634563Y38516295D01*
X75586933Y38474302D01*
X75541945Y38440209D01*
X75493663Y38412178D01*
X75436151Y38388370D01*
X75363475Y38366947D01*
X75269697Y38346071D01*
X75148884Y38323904D01*
X74995098Y38298607D01*
X74802404Y38268341D01*
X74765512Y38262246D01*
X74640296Y38234883D01*
X74549457Y38203276D01*
X74496655Y38168981D01*
X74485548Y38133555D01*
X74490813Y38124976D01*
X74526837Y38094712D01*
X74583340Y38061295D01*
X74609053Y38049260D01*
X74651840Y38034811D01*
X74704848Y38025214D01*
X74776856Y38019551D01*
X74876646Y38016904D01*
X75012998Y38016354D01*
X75048726Y38016501D01*
X75184572Y38018733D01*
X75315029Y38023203D01*
X75426777Y38029363D01*
X75506492Y38036664D01*
X75577832Y38044837D01*
X75636598Y38046410D01*
X75674568Y38037170D01*
X75704930Y38015724D01*
X75712275Y38008506D01*
X75745105Y37944675D01*
X75742454Y37873048D01*
X75704370Y37811538D01*
X75663447Y37788222D01*
X75591159Y37762719D01*
X75505933Y37742530D01*
X75499000Y37741327D01*
X75413281Y37730847D01*
X75297995Y37722061D01*
X75167381Y37715858D01*
X75035676Y37713128D01*
X75003066Y37713044D01*
X74805564Y37718021D01*
X74644745Y37734105D01*
X74513804Y37763298D01*
X74405932Y37807603D01*
X74314324Y37869023D01*
X74232173Y37949561D01*
X74191751Y38002247D01*
X74168395Y38061606D01*
X74162551Y38141394D01*
X74162834Y38165438D01*
X74170615Y38231093D01*
X74195494Y38284382D01*
X74246049Y38346354D01*
X74288662Y38390832D01*
X74341690Y38436125D01*
X74401390Y38473024D01*
X74474171Y38503672D01*
X74566446Y38530214D01*
X74684625Y38554793D01*
X74835118Y38579554D01*
X75024337Y38606641D01*
X75115365Y38620723D01*
X75251881Y38649971D01*
X75350591Y38683117D01*
X75409990Y38719073D01*
X75428573Y38756750D01*
X75404835Y38795060D01*
X75337271Y38832915D01*
X75331152Y38835354D01*
X75238020Y38859618D01*
X75112160Y38876092D01*
X74964636Y38884450D01*
X74806514Y38884364D01*
X74648857Y38875508D01*
X74502730Y38857556D01*
X74494841Y38856253D01*
X74396772Y38840770D01*
X74331981Y38833514D01*
X74289799Y38834715D01*
X74259557Y38844601D01*
X74230587Y38863402D01*
X74228237Y38865150D01*
X74178984Y38926169D01*
X74169355Y38997489D01*
X74201109Y39066960D01*
X74210241Y39075913D01*
X74269734Y39106327D01*
X74364117Y39132690D01*
X74485263Y39154386D01*
X74625048Y39170797D01*
X74775346Y39181304D01*
X74928032Y39185290D01*
X75074979Y39182138D01*
G37*
X66688807Y49760223D02*
X66394294Y49727981D01*
X66108961Y49670271D01*
X65821200Y49584083D01*
X65519404Y49466407D01*
X65191966Y49314233D01*
X65132999Y49284757D01*
X64997676Y49218090D01*
X64870049Y49158061D01*
X64762713Y49110401D01*
X64688264Y49080845D01*
X64676827Y49077124D01*
X64567226Y49044286D01*
X65057845Y48330547D01*
X65177794Y48156105D01*
X65287461Y47996730D01*
X65383117Y47857832D01*
X65461031Y47744822D01*
X65517475Y47663110D01*
X65548719Y47618109D01*
X65553795Y47610982D01*
X65574412Y47625883D01*
X65625161Y47670680D01*
X65696966Y47737235D01*
X65736594Y47774853D01*
X65961118Y47953432D01*
X66213274Y48089132D01*
X66430560Y48163463D01*
X66560993Y48186807D01*
X66724307Y48201033D01*
X66901293Y48205876D01*
X67072744Y48201074D01*
X67219452Y48186362D01*
X67277993Y48175095D01*
X67541853Y48084315D01*
X67779622Y47945704D01*
X67991124Y47759515D01*
X68176184Y47526001D01*
X68334625Y47245416D01*
X68466271Y46918013D01*
X68570946Y46544045D01*
X68633155Y46223903D01*
X68649386Y46082574D01*
X68660444Y45899996D01*
X68666437Y45689291D01*
X68667473Y45463578D01*
X68663657Y45235978D01*
X68655097Y45019611D01*
X68641899Y44827598D01*
X68624170Y44673057D01*
X68620333Y44649214D01*
X68535749Y44265140D01*
X68420505Y43925217D01*
X68273897Y43627922D01*
X68095226Y43371732D01*
X67968400Y43233225D01*
X67740475Y43045172D01*
X67490512Y42905780D01*
X67222730Y42815805D01*
X66941344Y42776006D01*
X66650571Y42787143D01*
X66354627Y42849974D01*
X66179660Y42911453D01*
X65937534Y43034564D01*
X65687980Y43211163D01*
X65548191Y43330588D01*
X65469699Y43399709D01*
X65408030Y43450421D01*
X65372928Y43474856D01*
X65368570Y43475602D01*
X65352903Y43450633D01*
X65312308Y43384652D01*
X65250243Y43283315D01*
X65170167Y43152279D01*
X65075538Y42997200D01*
X64969814Y42823735D01*
X64910967Y42727104D01*
X64461474Y41988799D01*
X65022683Y41711451D01*
X65225596Y41611828D01*
X65389973Y41533271D01*
X65525861Y41471878D01*
X65643309Y41423747D01*
X65752364Y41384977D01*
X65863074Y41351667D01*
X65985487Y41319914D01*
X66102818Y41292031D01*
X66207105Y41270454D01*
X66316168Y41254149D01*
X66440927Y41242209D01*
X66592297Y41233730D01*
X66781199Y41227808D01*
X66908517Y41225251D01*
X67090177Y41223506D01*
X67264367Y41224386D01*
X67419557Y41227640D01*
X67544223Y41233016D01*
X67626834Y41240265D01*
X67631730Y41240988D01*
X68060709Y41333795D01*
X68463551Y41474551D01*
X68840112Y41663161D01*
X69190252Y41899534D01*
X69513828Y42183576D01*
X69810700Y42515195D01*
X70025701Y42809925D01*
X70254589Y43195702D01*
X70439611Y43603105D01*
X70581662Y44035400D01*
X70681636Y44495854D01*
X70740428Y44987733D01*
X70758951Y45487201D01*
X70743717Y45970366D01*
X70695844Y46416158D01*
X70613811Y46832095D01*
X70496097Y47225696D01*
X70341181Y47604482D01*
X70322683Y47643725D01*
X70118894Y48010560D01*
X69868598Y48359640D01*
X69578885Y48683740D01*
X69256846Y48975634D01*
X68909574Y49228096D01*
X68585987Y49413286D01*
X68259096Y49558330D01*
X67931511Y49663397D01*
X67590552Y49731347D01*
X67223535Y49765040D01*
X67004108Y49770008D01*
X66688807Y49760223D01*
G36*
X67223535Y49765040D02*
G01*
X67590552Y49731347D01*
X67931511Y49663397D01*
X68259096Y49558330D01*
X68585987Y49413286D01*
X68909574Y49228096D01*
X69256846Y48975634D01*
X69578885Y48683740D01*
X69868598Y48359640D01*
X70118894Y48010560D01*
X70322683Y47643725D01*
X70341181Y47604482D01*
X70496097Y47225696D01*
X70613811Y46832095D01*
X70695844Y46416158D01*
X70743717Y45970366D01*
X70758951Y45487201D01*
X70740428Y44987733D01*
X70681636Y44495854D01*
X70581662Y44035400D01*
X70439611Y43603105D01*
X70254589Y43195702D01*
X70025701Y42809925D01*
X69810700Y42515195D01*
X69513828Y42183576D01*
X69190252Y41899534D01*
X68840112Y41663161D01*
X68463551Y41474551D01*
X68060709Y41333795D01*
X67631730Y41240988D01*
X67626834Y41240265D01*
X67544223Y41233016D01*
X67419557Y41227640D01*
X67264367Y41224386D01*
X67090177Y41223506D01*
X66908517Y41225251D01*
X66781199Y41227808D01*
X66592297Y41233730D01*
X66440927Y41242209D01*
X66316168Y41254149D01*
X66207105Y41270454D01*
X66102818Y41292031D01*
X65985487Y41319914D01*
X65863074Y41351667D01*
X65752364Y41384977D01*
X65643309Y41423747D01*
X65525861Y41471878D01*
X65389973Y41533271D01*
X65225596Y41611828D01*
X65022683Y41711451D01*
X64461474Y41988799D01*
X64910967Y42727104D01*
X64969814Y42823735D01*
X65075538Y42997200D01*
X65170167Y43152279D01*
X65250243Y43283315D01*
X65312308Y43384652D01*
X65352903Y43450633D01*
X65368570Y43475602D01*
X65372928Y43474856D01*
X65408030Y43450421D01*
X65469699Y43399709D01*
X65548191Y43330588D01*
X65687980Y43211163D01*
X65937534Y43034564D01*
X66179660Y42911453D01*
X66354627Y42849974D01*
X66650571Y42787143D01*
X66941344Y42776006D01*
X67222730Y42815805D01*
X67490512Y42905780D01*
X67740475Y43045172D01*
X67968400Y43233225D01*
X68095226Y43371732D01*
X68273897Y43627922D01*
X68420505Y43925217D01*
X68535749Y44265140D01*
X68620333Y44649214D01*
X68624170Y44673057D01*
X68641899Y44827598D01*
X68655097Y45019611D01*
X68663657Y45235978D01*
X68667473Y45463578D01*
X68666437Y45689291D01*
X68660444Y45899996D01*
X68649386Y46082574D01*
X68633155Y46223903D01*
X68570946Y46544045D01*
X68466271Y46918013D01*
X68334625Y47245416D01*
X68176184Y47526001D01*
X67991124Y47759515D01*
X67779622Y47945704D01*
X67541853Y48084315D01*
X67277993Y48175095D01*
X67219452Y48186362D01*
X67072744Y48201074D01*
X66901293Y48205876D01*
X66724307Y48201033D01*
X66560993Y48186807D01*
X66430560Y48163463D01*
X66213274Y48089132D01*
X65961118Y47953432D01*
X65736594Y47774853D01*
X65696966Y47737235D01*
X65625161Y47670680D01*
X65574412Y47625883D01*
X65553795Y47610982D01*
X65548719Y47618109D01*
X65517475Y47663110D01*
X65461031Y47744822D01*
X65383117Y47857832D01*
X65287461Y47996730D01*
X65177794Y48156105D01*
X65057845Y48330547D01*
X64567226Y49044286D01*
X64676827Y49077124D01*
X64688264Y49080845D01*
X64762713Y49110401D01*
X64870049Y49158061D01*
X64997676Y49218090D01*
X65132999Y49284757D01*
X65191966Y49314233D01*
X65519404Y49466407D01*
X65821200Y49584083D01*
X66108961Y49670271D01*
X66394294Y49727981D01*
X66688807Y49760223D01*
X67004108Y49770008D01*
X67223535Y49765040D01*
G37*
X53953033Y50165382D02*
X53720746Y50164429D01*
X53641796Y50163948D01*
X52556151Y50156807D01*
X52542495Y45991753D01*
X52540692Y45426959D01*
X52539092Y44914136D01*
X52537594Y44450629D01*
X52536094Y44033786D01*
X52534491Y43660955D01*
X52532680Y43329481D01*
X52530560Y43036714D01*
X52528028Y42779998D01*
X52524980Y42556682D01*
X52521315Y42364113D01*
X52516929Y42199637D01*
X52511720Y42060602D01*
X52505584Y41944356D01*
X52498420Y41848244D01*
X52490125Y41769614D01*
X52480595Y41705813D01*
X52469728Y41654189D01*
X52457421Y41612088D01*
X52443572Y41576857D01*
X52428077Y41545844D01*
X52410835Y41516396D01*
X52391742Y41485859D01*
X52370695Y41451582D01*
X52366381Y41444280D01*
X52294004Y41320779D01*
X53340024Y41327932D01*
X54386044Y41335086D01*
X54399699Y41564858D01*
X54407135Y41675127D01*
X54414883Y41738878D01*
X54425397Y41764173D01*
X54441128Y41759078D01*
X54454323Y41744502D01*
X54511803Y41691409D01*
X54605487Y41623163D01*
X54722175Y41547920D01*
X54848669Y41473833D01*
X54971769Y41409057D01*
X55066287Y41366439D01*
X55287726Y41296405D01*
X55541793Y41246796D01*
X55809734Y41219506D01*
X56072789Y41216431D01*
X56312205Y41239468D01*
X56316147Y41240127D01*
X56643747Y41322331D01*
X56950413Y41453300D01*
X57233186Y41630220D01*
X57489108Y41850274D01*
X57715222Y42110649D01*
X57908570Y42408528D01*
X58066194Y42741096D01*
X58152016Y42987452D01*
X58208611Y43193555D01*
X58250582Y43393133D01*
X58279211Y43598310D01*
X58295782Y43821209D01*
X58301577Y44073955D01*
X58299011Y44280338D01*
X56283675Y44280338D01*
X56274138Y43934268D01*
X56244054Y43636533D01*
X56192497Y43384490D01*
X56118542Y43175498D01*
X56021262Y43006914D01*
X55899734Y42876094D01*
X55759454Y42783615D01*
X55686460Y42749091D01*
X55623153Y42728393D01*
X55552573Y42718923D01*
X55457758Y42718085D01*
X55355613Y42721772D01*
X55154739Y42739490D01*
X54995866Y42774187D01*
X54945936Y42791567D01*
X54831925Y42842898D01*
X54711677Y42907357D01*
X54659162Y42939624D01*
X54522603Y43029195D01*
X54522603Y45868294D01*
X54672818Y45958335D01*
X54882308Y46060077D01*
X55096342Y46120249D01*
X55307091Y46139204D01*
X55506727Y46117299D01*
X55687423Y46054887D01*
X55841351Y45952324D01*
X55891019Y45903094D01*
X56010738Y45741789D01*
X56107636Y45546529D01*
X56182523Y45313969D01*
X56236207Y45040761D01*
X56269500Y44723559D01*
X56283211Y44359016D01*
X56283675Y44280338D01*
X58299011Y44280338D01*
X58297942Y44366244D01*
X58274918Y44815842D01*
X58228622Y45221372D01*
X58157836Y45588743D01*
X58061339Y45923863D01*
X57937913Y46232637D01*
X57893869Y46324178D01*
X57716460Y46622704D01*
X57502070Y46887993D01*
X57255741Y47115763D01*
X56982513Y47301732D01*
X56687426Y47441618D01*
X56510541Y47499322D01*
X56336822Y47533578D01*
X56127795Y47553959D01*
X55900986Y47560475D01*
X55673916Y47553134D01*
X55464108Y47531945D01*
X55295648Y47498705D01*
X55095143Y47433518D01*
X54900805Y47349693D01*
X54730776Y47255720D01*
X54640279Y47191942D01*
X54577856Y47144516D01*
X54534147Y47115639D01*
X54524204Y47111538D01*
X54521121Y47137959D01*
X54518247Y47213661D01*
X54515645Y47333302D01*
X54513379Y47491538D01*
X54511512Y47683027D01*
X54510109Y47902426D01*
X54509233Y48144393D01*
X54508947Y48390853D01*
X54509106Y48706524D01*
X54509892Y48972663D01*
X54511762Y49194359D01*
X54515175Y49376704D01*
X54520591Y49524788D01*
X54528469Y49643701D01*
X54539267Y49738535D01*
X54553445Y49814380D01*
X54571461Y49876326D01*
X54593775Y49929464D01*
X54620846Y49978885D01*
X54653133Y50029679D01*
X54657287Y50035969D01*
X54698929Y50101755D01*
X54724071Y50146992D01*
X54727441Y50156534D01*
X54701097Y50159545D01*
X54625931Y50161994D01*
X54507743Y50163842D01*
X54352331Y50165049D01*
X54165494Y50165576D01*
X53953033Y50165382D01*
G36*
X58301577Y44073955D02*
G01*
X58295782Y43821209D01*
X58279211Y43598310D01*
X58250582Y43393133D01*
X58208611Y43193555D01*
X58152016Y42987452D01*
X58066194Y42741096D01*
X57908570Y42408528D01*
X57715222Y42110649D01*
X57489108Y41850274D01*
X57233186Y41630220D01*
X56950413Y41453300D01*
X56643747Y41322331D01*
X56316147Y41240127D01*
X56312205Y41239468D01*
X56072789Y41216431D01*
X55809734Y41219506D01*
X55541793Y41246796D01*
X55287726Y41296405D01*
X55066287Y41366439D01*
X54971769Y41409057D01*
X54848669Y41473833D01*
X54722175Y41547920D01*
X54605487Y41623163D01*
X54511803Y41691409D01*
X54454323Y41744502D01*
X54441128Y41759078D01*
X54425397Y41764173D01*
X54414883Y41738878D01*
X54407135Y41675127D01*
X54399699Y41564858D01*
X54386044Y41335086D01*
X53340024Y41327932D01*
X52294004Y41320779D01*
X52366381Y41444280D01*
X52370695Y41451582D01*
X52391742Y41485859D01*
X52410835Y41516396D01*
X52428077Y41545844D01*
X52443572Y41576857D01*
X52457421Y41612088D01*
X52469728Y41654189D01*
X52480595Y41705813D01*
X52490125Y41769614D01*
X52498420Y41848244D01*
X52505584Y41944356D01*
X52511720Y42060602D01*
X52516929Y42199637D01*
X52521315Y42364113D01*
X52524980Y42556682D01*
X52528028Y42779998D01*
X52530560Y43036714D01*
X52532680Y43329481D01*
X52534491Y43660955D01*
X52536094Y44033786D01*
X52537594Y44450629D01*
X52539092Y44914136D01*
X52540692Y45426959D01*
X52542101Y45868294D01*
X54522603Y45868294D01*
X54522603Y43029195D01*
X54659162Y42939624D01*
X54711677Y42907357D01*
X54831925Y42842898D01*
X54945936Y42791567D01*
X54995866Y42774187D01*
X55154739Y42739490D01*
X55355613Y42721772D01*
X55457758Y42718085D01*
X55552573Y42718923D01*
X55623153Y42728393D01*
X55686460Y42749091D01*
X55759454Y42783615D01*
X55899734Y42876094D01*
X56021262Y43006914D01*
X56118542Y43175498D01*
X56192497Y43384490D01*
X56244054Y43636533D01*
X56274138Y43934268D01*
X56283675Y44280338D01*
X56283211Y44359016D01*
X56269500Y44723559D01*
X56236207Y45040761D01*
X56182523Y45313969D01*
X56107636Y45546529D01*
X56010738Y45741789D01*
X55891019Y45903094D01*
X55841351Y45952324D01*
X55687423Y46054887D01*
X55506727Y46117299D01*
X55307091Y46139204D01*
X55096342Y46120249D01*
X54882308Y46060077D01*
X54672818Y45958335D01*
X54522603Y45868294D01*
X52542101Y45868294D01*
X52542495Y45991753D01*
X52556151Y50156807D01*
X53641796Y50163948D01*
X53720746Y50164429D01*
X53953033Y50165382D01*
X54165494Y50165576D01*
X54352331Y50165049D01*
X54507743Y50163842D01*
X54625931Y50161994D01*
X54701097Y50159545D01*
X54727441Y50156534D01*
X54724071Y50146992D01*
X54698929Y50101755D01*
X54657287Y50035969D01*
X54653133Y50029679D01*
X54620846Y49978885D01*
X54593775Y49929464D01*
X54571461Y49876326D01*
X54553445Y49814380D01*
X54539267Y49738535D01*
X54528469Y49643701D01*
X54520591Y49524788D01*
X54515175Y49376704D01*
X54511762Y49194359D01*
X54509892Y48972663D01*
X54509106Y48706524D01*
X54508947Y48390853D01*
X54509233Y48144393D01*
X54510109Y47902426D01*
X54511512Y47683027D01*
X54513379Y47491538D01*
X54515645Y47333302D01*
X54518247Y47213661D01*
X54521121Y47137959D01*
X54524204Y47111538D01*
X54534147Y47115639D01*
X54577856Y47144516D01*
X54640279Y47191942D01*
X54730776Y47255720D01*
X54900805Y47349693D01*
X55095143Y47433518D01*
X55295648Y47498705D01*
X55464108Y47531945D01*
X55673916Y47553134D01*
X55900986Y47560475D01*
X56127795Y47553959D01*
X56336822Y47533578D01*
X56510541Y47499322D01*
X56687426Y47441618D01*
X56982513Y47301732D01*
X57255741Y47115763D01*
X57502070Y46887993D01*
X57716460Y46622704D01*
X57893869Y46324178D01*
X57937913Y46232637D01*
X58061339Y45923863D01*
X58157836Y45588743D01*
X58228622Y45221372D01*
X58274918Y44815842D01*
X58297942Y44366244D01*
X58299011Y44280338D01*
X58301577Y44073955D01*
G37*
X61263049Y47564632D02*
X61127728Y47554389D01*
X60740558Y47502878D01*
X60397679Y47420717D01*
X60097420Y47306778D01*
X59838112Y47159928D01*
X59618084Y46979038D01*
X59435666Y46762978D01*
X59289189Y46510616D01*
X59182229Y46237559D01*
X59155079Y46150459D01*
X59131436Y46068893D01*
X59111023Y45988471D01*
X59093561Y45904801D01*
X59078770Y45813492D01*
X59066373Y45710153D01*
X59056089Y45590391D01*
X59047642Y45449817D01*
X59040752Y45284038D01*
X59035139Y45088664D01*
X59030527Y44859302D01*
X59026635Y44591563D01*
X59023185Y44281053D01*
X59019898Y43923382D01*
X59017549Y43642936D01*
X59001742Y41717452D01*
X58899323Y41532157D01*
X58850825Y41442889D01*
X58814734Y41373552D01*
X58797517Y41336646D01*
X58796904Y41334146D01*
X58823220Y41331285D01*
X58898189Y41328649D01*
X59015839Y41326311D01*
X59170200Y41324347D01*
X59355300Y41322830D01*
X59565168Y41321835D01*
X59793833Y41321435D01*
X59821097Y41321430D01*
X60845291Y41321430D01*
X60845291Y41553581D01*
X60847037Y41658493D01*
X60851698Y41738729D01*
X60858404Y41781749D01*
X60861368Y41785731D01*
X60888477Y41769050D01*
X60944269Y41725269D01*
X61016785Y41663784D01*
X61018411Y41662362D01*
X61150743Y41563840D01*
X61317867Y41464911D01*
X61500900Y41375294D01*
X61680957Y41304707D01*
X61760237Y41280586D01*
X61918009Y41249949D01*
X62111603Y41230398D01*
X62323296Y41222213D01*
X62535368Y41225673D01*
X62730096Y41241055D01*
X62866366Y41263189D01*
X63200546Y41361324D01*
X63501397Y41501181D01*
X63766961Y41681026D01*
X63995279Y41899124D01*
X64184394Y42153739D01*
X64332347Y42443136D01*
X64396175Y42618742D01*
X64436177Y42789424D01*
X64462687Y42994322D01*
X64474953Y43214536D01*
X64474550Y43246580D01*
X62627388Y43246580D01*
X62612070Y43082947D01*
X62561065Y42946958D01*
X62466796Y42820792D01*
X62430589Y42783797D01*
X62301880Y42683779D01*
X62153115Y42619706D01*
X61974887Y42588691D01*
X61787202Y42586407D01*
X61609186Y42601486D01*
X61472888Y42630979D01*
X61413694Y42653131D01*
X61307005Y42713504D01*
X61193963Y42798411D01*
X61090825Y42893705D01*
X61013849Y42985240D01*
X60993409Y43018819D01*
X60977519Y43065843D01*
X60966222Y43140667D01*
X60958991Y43250440D01*
X60955300Y43402308D01*
X60954538Y43546845D01*
X60955054Y43715356D01*
X60957140Y43837201D01*
X60961598Y43920334D01*
X60969235Y43972708D01*
X60980854Y44002274D01*
X60997260Y44016987D01*
X61002334Y44019330D01*
X61046430Y44026547D01*
X61133400Y44032450D01*
X61251500Y44036507D01*
X61388986Y44038185D01*
X61418839Y44038187D01*
X61602614Y44035254D01*
X61744593Y44026531D01*
X61857409Y44010823D01*
X61950598Y43987882D01*
X62181754Y43900465D01*
X62363027Y43792990D01*
X62495986Y43663738D01*
X62582199Y43510990D01*
X62623238Y43333028D01*
X62627388Y43246580D01*
X64474550Y43246580D01*
X64472224Y43431166D01*
X64453748Y43625311D01*
X64439336Y43703748D01*
X64347310Y43994983D01*
X64207377Y44262946D01*
X64022177Y44505068D01*
X63794352Y44718779D01*
X63526543Y44901508D01*
X63221393Y45050686D01*
X62961957Y45141273D01*
X62788566Y45188864D01*
X62622718Y45225845D01*
X62453671Y45253415D01*
X62270683Y45272776D01*
X62063011Y45285129D01*
X61819913Y45291674D01*
X61600128Y45293517D01*
X60948406Y45295301D01*
X60960891Y45491202D01*
X60996343Y45703757D01*
X61071759Y45886457D01*
X61183927Y46034738D01*
X61329636Y46144040D01*
X61457936Y46197376D01*
X61641765Y46230990D01*
X61860606Y46235817D01*
X62104200Y46213637D01*
X62362290Y46166228D01*
X62624615Y46095371D01*
X62880918Y46002845D01*
X63067176Y45918222D01*
X63156789Y45874769D01*
X63225142Y45844420D01*
X63259903Y45832577D01*
X63261789Y45832957D01*
X63273785Y45859482D01*
X63303738Y45929790D01*
X63348830Y46037145D01*
X63406243Y46174810D01*
X63473158Y46336051D01*
X63541176Y46500605D01*
X63813103Y47159672D01*
X63619681Y47191441D01*
X63535846Y47207381D01*
X63409817Y47234153D01*
X63252392Y47269327D01*
X63074367Y47310472D01*
X62886537Y47355158D01*
X62811742Y47373317D01*
X62488162Y47448369D01*
X62204868Y47504638D01*
X61951285Y47543262D01*
X61716838Y47565377D01*
X61490951Y47572122D01*
X61263049Y47564632D01*
G36*
X64474953Y43214536D02*
G01*
X64462687Y42994322D01*
X64436177Y42789424D01*
X64396175Y42618742D01*
X64332347Y42443136D01*
X64184394Y42153739D01*
X63995279Y41899124D01*
X63766961Y41681026D01*
X63501397Y41501181D01*
X63200546Y41361324D01*
X62866366Y41263189D01*
X62730096Y41241055D01*
X62535368Y41225673D01*
X62323296Y41222213D01*
X62111603Y41230398D01*
X61918009Y41249949D01*
X61760237Y41280586D01*
X61680957Y41304707D01*
X61500900Y41375294D01*
X61317867Y41464911D01*
X61150743Y41563840D01*
X61018411Y41662362D01*
X61016785Y41663784D01*
X60944269Y41725269D01*
X60888477Y41769050D01*
X60861368Y41785731D01*
X60858404Y41781749D01*
X60851698Y41738729D01*
X60847037Y41658493D01*
X60845291Y41553581D01*
X60845291Y41321430D01*
X59821097Y41321430D01*
X59793833Y41321435D01*
X59565168Y41321835D01*
X59355300Y41322830D01*
X59170200Y41324347D01*
X59015839Y41326311D01*
X58898189Y41328649D01*
X58823220Y41331285D01*
X58796904Y41334146D01*
X58797517Y41336646D01*
X58814734Y41373552D01*
X58850825Y41442889D01*
X58899323Y41532157D01*
X59001742Y41717452D01*
X59016760Y43546845D01*
X60954538Y43546845D01*
X60955300Y43402308D01*
X60958991Y43250440D01*
X60966222Y43140667D01*
X60977519Y43065843D01*
X60993409Y43018819D01*
X61013849Y42985240D01*
X61090825Y42893705D01*
X61193963Y42798411D01*
X61307005Y42713504D01*
X61413694Y42653131D01*
X61472888Y42630979D01*
X61609186Y42601486D01*
X61787202Y42586407D01*
X61974887Y42588691D01*
X62153115Y42619706D01*
X62301880Y42683779D01*
X62430589Y42783797D01*
X62466796Y42820792D01*
X62561065Y42946958D01*
X62612070Y43082947D01*
X62627388Y43246580D01*
X62623238Y43333028D01*
X62582199Y43510990D01*
X62495986Y43663738D01*
X62363027Y43792990D01*
X62181754Y43900465D01*
X61950598Y43987882D01*
X61857409Y44010823D01*
X61744593Y44026531D01*
X61602614Y44035254D01*
X61418839Y44038187D01*
X61388986Y44038185D01*
X61251500Y44036507D01*
X61133400Y44032450D01*
X61046430Y44026547D01*
X61002334Y44019330D01*
X60997260Y44016987D01*
X60980854Y44002274D01*
X60969235Y43972708D01*
X60961598Y43920334D01*
X60957140Y43837201D01*
X60955054Y43715356D01*
X60954538Y43546845D01*
X59016760Y43546845D01*
X59017549Y43642936D01*
X59019898Y43923382D01*
X59023185Y44281053D01*
X59026635Y44591563D01*
X59030527Y44859302D01*
X59035139Y45088664D01*
X59040752Y45284038D01*
X59047642Y45449817D01*
X59056089Y45590391D01*
X59066373Y45710153D01*
X59078770Y45813492D01*
X59093561Y45904801D01*
X59111023Y45988471D01*
X59131436Y46068893D01*
X59155079Y46150459D01*
X59182229Y46237559D01*
X59289189Y46510616D01*
X59435666Y46762978D01*
X59618084Y46979038D01*
X59838112Y47159928D01*
X60097420Y47306778D01*
X60397679Y47420717D01*
X60740558Y47502878D01*
X61127728Y47554389D01*
X61263049Y47564632D01*
X61490951Y47572122D01*
X61716838Y47565377D01*
X61951285Y47543262D01*
X62204868Y47504638D01*
X62488162Y47448369D01*
X62811742Y47373317D01*
X62886537Y47355158D01*
X63074367Y47310472D01*
X63252392Y47269327D01*
X63409817Y47234153D01*
X63535846Y47207381D01*
X63619681Y47191441D01*
X63813103Y47159672D01*
X63541176Y46500605D01*
X63473158Y46336051D01*
X63406243Y46174810D01*
X63348830Y46037145D01*
X63303738Y45929790D01*
X63273785Y45859482D01*
X63261789Y45832957D01*
X63259903Y45832577D01*
X63225142Y45844420D01*
X63156789Y45874769D01*
X63067176Y45918222D01*
X62880918Y46002845D01*
X62624615Y46095371D01*
X62362290Y46166228D01*
X62104200Y46213637D01*
X61860606Y46235817D01*
X61641765Y46230990D01*
X61457936Y46197376D01*
X61329636Y46144040D01*
X61183927Y46034738D01*
X61071759Y45886457D01*
X60996343Y45703757D01*
X60960891Y45491202D01*
X60948406Y45295301D01*
X61600128Y45293517D01*
X61819913Y45291674D01*
X62063011Y45285129D01*
X62270683Y45272776D01*
X62453671Y45253415D01*
X62622718Y45225845D01*
X62788566Y45188864D01*
X62961957Y45141273D01*
X63221393Y45050686D01*
X63526543Y44901508D01*
X63794352Y44718779D01*
X64022177Y44505068D01*
X64207377Y44262946D01*
X64347310Y43994983D01*
X64439336Y43703748D01*
X64453748Y43625311D01*
X64472224Y43431166D01*
X64474550Y43246580D01*
X64474953Y43214536D01*
G37*
X79411446Y51126459D02*
X78885244Y51126387D01*
X78640303Y51126377D01*
X74719699Y51126377D01*
X74719699Y50895266D01*
X74695032Y50614024D01*
X74620584Y50354641D01*
X74495686Y50115576D01*
X74319670Y49895286D01*
X74260118Y49835790D01*
X74045895Y49667029D01*
X73809690Y49543948D01*
X73558517Y49466490D01*
X73299393Y49434601D01*
X73039333Y49448224D01*
X72785353Y49507303D01*
X72544469Y49611783D01*
X72323696Y49761607D01*
X72224543Y49851999D01*
X72039773Y50073624D01*
X71904284Y50317339D01*
X71819256Y50580357D01*
X71785872Y50859894D01*
X71785428Y50887394D01*
X71783678Y51126368D01*
X71678645Y51126372D01*
X71585470Y51113727D01*
X71500356Y51082960D01*
X71494731Y51079781D01*
X71475508Y51069806D01*
X71457855Y51062038D01*
X71441708Y51054213D01*
X71427005Y51044070D01*
X71413681Y51029345D01*
X71401672Y51007775D01*
X71390915Y50977099D01*
X71381346Y50935053D01*
X71372901Y50879374D01*
X71365516Y50807801D01*
X71359127Y50718070D01*
X71353671Y50607918D01*
X71349084Y50475084D01*
X71345302Y50317304D01*
X71342260Y50132316D01*
X71339897Y49917856D01*
X71338147Y49671663D01*
X71336947Y49391473D01*
X71336232Y49075025D01*
X71335940Y48720054D01*
X71336007Y48324300D01*
X71336368Y47885498D01*
X71336960Y47401386D01*
X71337719Y46869702D01*
X71338581Y46288183D01*
X71339482Y45654567D01*
X71339587Y45577371D01*
X71340395Y44939713D01*
X71341081Y44354418D01*
X71341717Y43819222D01*
X71342376Y43331864D01*
X71343131Y42890083D01*
X71344053Y42491618D01*
X71345216Y42134205D01*
X71346693Y41815585D01*
X71348555Y41533494D01*
X71350876Y41285672D01*
X71353729Y41069857D01*
X71357185Y40883787D01*
X71361318Y40725200D01*
X71366200Y40591836D01*
X71371904Y40481431D01*
X71378502Y40391725D01*
X71386068Y40320456D01*
X71394673Y40265362D01*
X71404390Y40224182D01*
X71415293Y40194654D01*
X71427453Y40174516D01*
X71440943Y40161507D01*
X71455837Y40153364D01*
X71472206Y40147827D01*
X71490123Y40142634D01*
X71509661Y40135523D01*
X71514434Y40133358D01*
X71529434Y40128494D01*
X71554541Y40124024D01*
X71591946Y40119934D01*
X71643842Y40116207D01*
X71712420Y40112827D01*
X71799873Y40109779D01*
X71908394Y40107046D01*
X72040174Y40104613D01*
X72197406Y40102463D01*
X72382281Y40100581D01*
X72596993Y40098951D01*
X72843734Y40097557D01*
X73124694Y40096383D01*
X73442068Y40095413D01*
X73798047Y40094631D01*
X74194822Y40094021D01*
X74634588Y40093568D01*
X75119535Y40093255D01*
X75651856Y40093066D01*
X76233743Y40092987D01*
X76867389Y40093000D01*
X77072644Y40093020D01*
X77720347Y40093124D01*
X78315644Y40093294D01*
X78860755Y40093547D01*
X79357897Y40093902D01*
X79809290Y40094374D01*
X80217151Y40094982D01*
X80583700Y40095742D01*
X80911154Y40096673D01*
X81201732Y40097791D01*
X81457652Y40099114D01*
X81681133Y40100659D01*
X81874394Y40102443D01*
X82039652Y40104484D01*
X82179127Y40106799D01*
X82295037Y40109406D01*
X82389600Y40112322D01*
X82465034Y40115564D01*
X82523558Y40119149D01*
X82567391Y40123095D01*
X82598752Y40127419D01*
X82619857Y40132138D01*
X82631363Y40136460D01*
X82651812Y40145084D01*
X82670587Y40151443D01*
X82687760Y40157797D01*
X82703402Y40166403D01*
X82717584Y40179520D01*
X82730377Y40199406D01*
X82741852Y40228321D01*
X82752080Y40268521D01*
X82761133Y40322267D01*
X82769080Y40391815D01*
X82775994Y40479426D01*
X82781945Y40587356D01*
X82787005Y40717865D01*
X82791245Y40873211D01*
X82794735Y41055652D01*
X82797547Y41267447D01*
X82798283Y41348742D01*
X82069361Y41348742D01*
X79492987Y41348742D01*
X79542561Y41423850D01*
X79591878Y41501032D01*
X79633640Y41574531D01*
X79668441Y41649488D01*
X79696877Y41731047D01*
X79719540Y41824352D01*
X79737025Y41934547D01*
X79749926Y42066775D01*
X79758837Y42226180D01*
X79764352Y42417905D01*
X79767064Y42647093D01*
X79767569Y42918888D01*
X79766459Y43238434D01*
X79765830Y43357068D01*
X79758732Y44628877D01*
X78953033Y43531990D01*
X78724779Y43220817D01*
X78527025Y42949857D01*
X78357635Y42715522D01*
X78214473Y42514220D01*
X78095405Y42342363D01*
X77998295Y42196360D01*
X77921007Y42072622D01*
X77861407Y41967559D01*
X77817359Y41877580D01*
X77786728Y41799097D01*
X77767378Y41728520D01*
X77757175Y41662258D01*
X77753983Y41596723D01*
X77755667Y41528323D01*
X77756097Y41519726D01*
X77764968Y41348628D01*
X76353236Y41348685D01*
X74941505Y41348742D01*
X75151516Y41560500D01*
X75208504Y41618418D01*
X75262566Y41674775D01*
X75316076Y41732678D01*
X75371404Y41795236D01*
X75430925Y41865557D01*
X75497011Y41946749D01*
X75572034Y42041919D01*
X75658367Y42154177D01*
X75758383Y42286630D01*
X75874454Y42442386D01*
X76008952Y42624554D01*
X76164251Y42836240D01*
X76342722Y43080554D01*
X76546740Y43360603D01*
X76778675Y43679496D01*
X76968782Y43941080D01*
X77207372Y44269708D01*
X77415508Y44557043D01*
X77595075Y44805813D01*
X77747957Y45018746D01*
X77876041Y45198570D01*
X77981212Y45348014D01*
X78065355Y45469804D01*
X78130357Y45566669D01*
X78178103Y45641338D01*
X78210477Y45696537D01*
X78229366Y45734996D01*
X78236655Y45759441D01*
X78234464Y45772294D01*
X78207913Y45806496D01*
X78150508Y45878892D01*
X78065713Y45985180D01*
X77956992Y46121055D01*
X77827808Y46282216D01*
X77681626Y46464357D01*
X77521909Y46663178D01*
X77352121Y46874373D01*
X77175726Y47093641D01*
X76996187Y47316677D01*
X76897435Y47439280D01*
X74445548Y47439280D01*
X74241742Y47070570D01*
X74241742Y41717452D01*
X74445548Y41348742D01*
X73240111Y41348742D01*
X72952341Y41348826D01*
X72714647Y41349203D01*
X72522482Y41350065D01*
X72371298Y41351600D01*
X72256548Y41354000D01*
X72173685Y41357454D01*
X72118162Y41362151D01*
X72085430Y41368283D01*
X72070943Y41376039D01*
X72070153Y41385609D01*
X72078513Y41397183D01*
X72078599Y41397279D01*
X72113036Y41447093D01*
X72158637Y41528090D01*
X72198908Y41608945D01*
X72275291Y41772075D01*
X72283081Y44605678D01*
X72290871Y47439280D01*
X74445548Y47439280D01*
X76897435Y47439280D01*
X76816969Y47539179D01*
X76641536Y47756843D01*
X76473350Y47965367D01*
X76315877Y48160446D01*
X76172579Y48337779D01*
X76046921Y48493061D01*
X75942366Y48621990D01*
X75862379Y48720262D01*
X75815398Y48777559D01*
X75632963Y48991820D01*
X75457452Y49185170D01*
X75295016Y49351280D01*
X75151805Y49483820D01*
X75050171Y49565079D01*
X74929998Y49651538D01*
X77693840Y49651538D01*
X77693064Y49489354D01*
X77700788Y49370117D01*
X77729828Y49259574D01*
X77774782Y49154784D01*
X77804004Y49095584D01*
X77835423Y49036926D01*
X77871909Y48974914D01*
X77916331Y48905655D01*
X77971561Y48825254D01*
X78040469Y48729819D01*
X78125923Y48615453D01*
X78230796Y48478265D01*
X78357955Y48314358D01*
X78510273Y48119840D01*
X78690618Y47890815D01*
X78901862Y47623391D01*
X78925721Y47593217D01*
X79758732Y46539805D01*
X79766796Y47706478D01*
X79768420Y48055931D01*
X79768074Y48351770D01*
X79765742Y48594970D01*
X79761407Y48786507D01*
X79755051Y48927356D01*
X79746659Y49018492D01*
X79743838Y49035780D01*
X79699584Y49217883D01*
X79641602Y49382050D01*
X79575437Y49514046D01*
X79535687Y49570028D01*
X79467102Y49651538D01*
X80768453Y49651538D01*
X81078885Y49651272D01*
X81338477Y49650409D01*
X81551014Y49648846D01*
X81720276Y49646483D01*
X81850048Y49643220D01*
X81944111Y49638955D01*
X82006248Y49633587D01*
X82040241Y49627017D01*
X82049874Y49619142D01*
X82049208Y49617398D01*
X82021620Y49575757D01*
X81975564Y49509752D01*
X81951735Y49476369D01*
X81927099Y49443056D01*
X81904955Y49413266D01*
X81885164Y49384067D01*
X81867586Y49352526D01*
X81852081Y49315714D01*
X81838511Y49270697D01*
X81826736Y49214545D01*
X81816616Y49144325D01*
X81808013Y49057106D01*
X81800786Y48949957D01*
X81794796Y48819945D01*
X81789904Y48664139D01*
X81785971Y48479607D01*
X81782857Y48263419D01*
X81780422Y48012641D01*
X81778527Y47724342D01*
X81777033Y47395591D01*
X81775801Y47023457D01*
X81774690Y46605006D01*
X81773562Y46137309D01*
X81772508Y45707646D01*
X81771512Y45228647D01*
X81770994Y44771638D01*
X81770941Y44339536D01*
X81771338Y43935262D01*
X81772172Y43561735D01*
X81773429Y43221873D01*
X81775094Y42918596D01*
X81777156Y42654823D01*
X81779599Y42433473D01*
X81782410Y42257465D01*
X81785576Y42129717D01*
X81789082Y42053151D01*
X81789745Y42045059D01*
X81813905Y41859432D01*
X81851624Y41710353D01*
X81909064Y41580250D01*
X81992389Y41451548D01*
X82002811Y41437506D01*
X82069361Y41348742D01*
X82798283Y41348742D01*
X82799752Y41510855D01*
X82801421Y41788133D01*
X82802625Y42101541D01*
X82803435Y42453336D01*
X82803922Y42845777D01*
X82804156Y43281123D01*
X82804211Y43761632D01*
X82804156Y44289562D01*
X82804062Y44867172D01*
X82804002Y45496721D01*
X82804000Y45621699D01*
X82803965Y46257878D01*
X82803847Y46841675D01*
X82803628Y47375332D01*
X82803292Y47861091D01*
X82802822Y48301195D01*
X82802198Y48697884D01*
X82801406Y49053401D01*
X82800426Y49369988D01*
X82799242Y49649887D01*
X82797836Y49895339D01*
X82796190Y50108587D01*
X82794288Y50291872D01*
X82792113Y50447436D01*
X82789645Y50577522D01*
X82786869Y50684371D01*
X82783767Y50770225D01*
X82780321Y50837326D01*
X82776515Y50887916D01*
X82772330Y50924236D01*
X82767749Y50948530D01*
X82762755Y50963038D01*
X82762570Y50963400D01*
X82752285Y50985563D01*
X82743718Y51005628D01*
X82734241Y51023699D01*
X82721226Y51039879D01*
X82702043Y51054274D01*
X82674065Y51066986D01*
X82634663Y51078120D01*
X82581208Y51087779D01*
X82511071Y51096068D01*
X82421624Y51103090D01*
X82310238Y51108950D01*
X82174284Y51113750D01*
X82011135Y51117596D01*
X81818161Y51120591D01*
X81592733Y51122839D01*
X81332224Y51124444D01*
X81034004Y51125509D01*
X80695445Y51126140D01*
X80313918Y51126439D01*
X79886794Y51126510D01*
X79411446Y51126459D01*
G36*
X82797547Y41267447D02*
G01*
X82794735Y41055652D01*
X82791245Y40873211D01*
X82787005Y40717865D01*
X82781945Y40587356D01*
X82775994Y40479426D01*
X82769080Y40391815D01*
X82761133Y40322267D01*
X82752080Y40268521D01*
X82741852Y40228321D01*
X82730377Y40199406D01*
X82717584Y40179520D01*
X82703402Y40166403D01*
X82687760Y40157797D01*
X82670587Y40151443D01*
X82651812Y40145084D01*
X82631363Y40136460D01*
X82619857Y40132138D01*
X82598752Y40127419D01*
X82567391Y40123095D01*
X82523558Y40119149D01*
X82465034Y40115564D01*
X82389600Y40112322D01*
X82295037Y40109406D01*
X82179127Y40106799D01*
X82039652Y40104484D01*
X81874394Y40102443D01*
X81681133Y40100659D01*
X81457652Y40099114D01*
X81201732Y40097791D01*
X80911154Y40096673D01*
X80583700Y40095742D01*
X80217151Y40094982D01*
X79809290Y40094374D01*
X79357897Y40093902D01*
X78860755Y40093547D01*
X78315644Y40093294D01*
X77720347Y40093124D01*
X77072644Y40093020D01*
X76867389Y40093000D01*
X76233743Y40092987D01*
X75651856Y40093066D01*
X75119535Y40093255D01*
X74634588Y40093568D01*
X74194822Y40094021D01*
X73798047Y40094631D01*
X73442068Y40095413D01*
X73124694Y40096383D01*
X72843734Y40097557D01*
X72596993Y40098951D01*
X72382281Y40100581D01*
X72197406Y40102463D01*
X72040174Y40104613D01*
X71908394Y40107046D01*
X71799873Y40109779D01*
X71712420Y40112827D01*
X71643842Y40116207D01*
X71591946Y40119934D01*
X71554541Y40124024D01*
X71529434Y40128494D01*
X71514434Y40133358D01*
X71509661Y40135523D01*
X71490123Y40142634D01*
X71472206Y40147827D01*
X71455837Y40153364D01*
X71440943Y40161507D01*
X71427453Y40174516D01*
X71415293Y40194654D01*
X71404390Y40224182D01*
X71394673Y40265362D01*
X71386068Y40320456D01*
X71378502Y40391725D01*
X71371904Y40481431D01*
X71366200Y40591836D01*
X71361318Y40725200D01*
X71357185Y40883787D01*
X71353729Y41069857D01*
X71350876Y41285672D01*
X71349940Y41385609D01*
X72070153Y41385609D01*
X72070943Y41376039D01*
X72085430Y41368283D01*
X72118162Y41362151D01*
X72173685Y41357454D01*
X72256548Y41354000D01*
X72371298Y41351600D01*
X72522482Y41350065D01*
X72714647Y41349203D01*
X72952341Y41348826D01*
X73240111Y41348742D01*
X74445548Y41348742D01*
X74241742Y41717452D01*
X74241742Y47070570D01*
X74445548Y47439280D01*
X72290871Y47439280D01*
X72283081Y44605678D01*
X72275291Y41772075D01*
X72198908Y41608945D01*
X72158637Y41528090D01*
X72113036Y41447093D01*
X72078599Y41397279D01*
X72078513Y41397183D01*
X72070153Y41385609D01*
X71349940Y41385609D01*
X71348555Y41533494D01*
X71346693Y41815585D01*
X71345216Y42134205D01*
X71344053Y42491618D01*
X71343131Y42890083D01*
X71342376Y43331864D01*
X71341717Y43819222D01*
X71341081Y44354418D01*
X71340395Y44939713D01*
X71339587Y45577371D01*
X71339482Y45654567D01*
X71338581Y46288183D01*
X71337719Y46869702D01*
X71336960Y47401386D01*
X71336368Y47885498D01*
X71336007Y48324300D01*
X71335940Y48720054D01*
X71336232Y49075025D01*
X71336947Y49391473D01*
X71338147Y49671663D01*
X71339897Y49917856D01*
X71342260Y50132316D01*
X71345302Y50317304D01*
X71349084Y50475084D01*
X71353671Y50607918D01*
X71359127Y50718070D01*
X71365516Y50807801D01*
X71372901Y50879374D01*
X71381346Y50935053D01*
X71390915Y50977099D01*
X71401672Y51007775D01*
X71413681Y51029345D01*
X71427005Y51044070D01*
X71441708Y51054213D01*
X71457855Y51062038D01*
X71475508Y51069806D01*
X71494731Y51079781D01*
X71500356Y51082960D01*
X71585470Y51113727D01*
X71678645Y51126372D01*
X71783678Y51126368D01*
X71785428Y50887394D01*
X71785872Y50859894D01*
X71819256Y50580357D01*
X71904284Y50317339D01*
X72039773Y50073624D01*
X72224543Y49851999D01*
X72323696Y49761607D01*
X72544469Y49611783D01*
X72785353Y49507303D01*
X73039333Y49448224D01*
X73299393Y49434601D01*
X73558517Y49466490D01*
X73809690Y49543948D01*
X74016166Y49651538D01*
X74929998Y49651538D01*
X75050171Y49565079D01*
X75151805Y49483820D01*
X75295016Y49351280D01*
X75457452Y49185170D01*
X75632963Y48991820D01*
X75815398Y48777559D01*
X75862379Y48720262D01*
X75942366Y48621990D01*
X76046921Y48493061D01*
X76172579Y48337779D01*
X76315877Y48160446D01*
X76473350Y47965367D01*
X76641536Y47756843D01*
X76816969Y47539179D01*
X76897435Y47439280D01*
X76996187Y47316677D01*
X77175726Y47093641D01*
X77352121Y46874373D01*
X77521909Y46663178D01*
X77681626Y46464357D01*
X77827808Y46282216D01*
X77956992Y46121055D01*
X78065713Y45985180D01*
X78150508Y45878892D01*
X78207913Y45806496D01*
X78234464Y45772294D01*
X78236655Y45759441D01*
X78229366Y45734996D01*
X78210477Y45696537D01*
X78178103Y45641338D01*
X78130357Y45566669D01*
X78065355Y45469804D01*
X77981212Y45348014D01*
X77876041Y45198570D01*
X77747957Y45018746D01*
X77595075Y44805813D01*
X77415508Y44557043D01*
X77207372Y44269708D01*
X76968782Y43941080D01*
X76778675Y43679496D01*
X76546740Y43360603D01*
X76342722Y43080554D01*
X76164251Y42836240D01*
X76008952Y42624554D01*
X75874454Y42442386D01*
X75758383Y42286630D01*
X75658367Y42154177D01*
X75572034Y42041919D01*
X75497011Y41946749D01*
X75430925Y41865557D01*
X75371404Y41795236D01*
X75316076Y41732678D01*
X75262566Y41674775D01*
X75208504Y41618418D01*
X75151516Y41560500D01*
X74941505Y41348742D01*
X76353236Y41348685D01*
X77764968Y41348628D01*
X77756097Y41519726D01*
X77755667Y41528323D01*
X77753983Y41596723D01*
X77757175Y41662258D01*
X77767378Y41728520D01*
X77786728Y41799097D01*
X77817359Y41877580D01*
X77861407Y41967559D01*
X77921007Y42072622D01*
X77998295Y42196360D01*
X78095405Y42342363D01*
X78214473Y42514220D01*
X78357635Y42715522D01*
X78527025Y42949857D01*
X78724779Y43220817D01*
X78953033Y43531990D01*
X79758732Y44628877D01*
X79765830Y43357068D01*
X79766459Y43238434D01*
X79767569Y42918888D01*
X79767064Y42647093D01*
X79764352Y42417905D01*
X79758837Y42226180D01*
X79749926Y42066775D01*
X79737025Y41934547D01*
X79719540Y41824352D01*
X79696877Y41731047D01*
X79668441Y41649488D01*
X79633640Y41574531D01*
X79591878Y41501032D01*
X79542561Y41423850D01*
X79492987Y41348742D01*
X82069361Y41348742D01*
X82002811Y41437506D01*
X81992389Y41451548D01*
X81909064Y41580250D01*
X81851624Y41710353D01*
X81813905Y41859432D01*
X81789745Y42045059D01*
X81789082Y42053151D01*
X81785576Y42129717D01*
X81782410Y42257465D01*
X81779599Y42433473D01*
X81777156Y42654823D01*
X81775094Y42918596D01*
X81773429Y43221873D01*
X81772172Y43561735D01*
X81771338Y43935262D01*
X81770941Y44339536D01*
X81770994Y44771638D01*
X81771512Y45228647D01*
X81772508Y45707646D01*
X81773562Y46137309D01*
X81774690Y46605006D01*
X81775801Y47023457D01*
X81777033Y47395591D01*
X81778527Y47724342D01*
X81780422Y48012641D01*
X81782857Y48263419D01*
X81785971Y48479607D01*
X81789904Y48664139D01*
X81794796Y48819945D01*
X81800786Y48949957D01*
X81808013Y49057106D01*
X81816616Y49144325D01*
X81826736Y49214545D01*
X81838511Y49270697D01*
X81852081Y49315714D01*
X81867586Y49352526D01*
X81885164Y49384067D01*
X81904955Y49413266D01*
X81927099Y49443056D01*
X81951735Y49476369D01*
X81975564Y49509752D01*
X82021620Y49575757D01*
X82049208Y49617398D01*
X82049874Y49619142D01*
X82040241Y49627017D01*
X82006248Y49633587D01*
X81944111Y49638955D01*
X81850048Y49643220D01*
X81720276Y49646483D01*
X81551014Y49648846D01*
X81338477Y49650409D01*
X81078885Y49651272D01*
X80768453Y49651538D01*
X79467102Y49651538D01*
X79535687Y49570028D01*
X79575437Y49514046D01*
X79641602Y49382050D01*
X79699584Y49217883D01*
X79743838Y49035780D01*
X79746659Y49018492D01*
X79755051Y48927356D01*
X79761407Y48786507D01*
X79765742Y48594970D01*
X79768074Y48351770D01*
X79768420Y48055931D01*
X79766796Y47706478D01*
X79758732Y46539805D01*
X78925721Y47593217D01*
X78901862Y47623391D01*
X78690618Y47890815D01*
X78510273Y48119840D01*
X78357955Y48314358D01*
X78230796Y48478265D01*
X78125923Y48615453D01*
X78040469Y48729819D01*
X77971561Y48825254D01*
X77916331Y48905655D01*
X77871909Y48974914D01*
X77835423Y49036926D01*
X77804004Y49095584D01*
X77774782Y49154784D01*
X77729828Y49259574D01*
X77700788Y49370117D01*
X77693064Y49489354D01*
X77693840Y49651538D01*
X74929998Y49651538D01*
X74016166Y49651538D01*
X74045895Y49667029D01*
X74260118Y49835790D01*
X74319670Y49895286D01*
X74495686Y50115576D01*
X74620584Y50354641D01*
X74695032Y50614024D01*
X74719699Y50895266D01*
X74719699Y51126377D01*
X78640303Y51126377D01*
X78885244Y51126387D01*
X79411446Y51126459D01*
X79886794Y51126510D01*
X80313918Y51126439D01*
X80695445Y51126140D01*
X81034004Y51125509D01*
X81332224Y51124444D01*
X81592733Y51122839D01*
X81818161Y51120591D01*
X82011135Y51117596D01*
X82174284Y51113750D01*
X82310238Y51108950D01*
X82421624Y51103090D01*
X82511071Y51096068D01*
X82581208Y51087779D01*
X82634663Y51078120D01*
X82674065Y51066986D01*
X82702043Y51054274D01*
X82721226Y51039879D01*
X82734241Y51023699D01*
X82743718Y51005628D01*
X82752285Y50985563D01*
X82762570Y50963400D01*
X82762755Y50963038D01*
X82767749Y50948530D01*
X82772330Y50924236D01*
X82776515Y50887916D01*
X82780321Y50837326D01*
X82783767Y50770225D01*
X82786869Y50684371D01*
X82789645Y50577522D01*
X82792113Y50447436D01*
X82794288Y50291872D01*
X82796190Y50108587D01*
X82797836Y49895339D01*
X82799242Y49649887D01*
X82800426Y49369988D01*
X82801406Y49053401D01*
X82802198Y48697884D01*
X82802822Y48301195D01*
X82803292Y47861091D01*
X82803628Y47375332D01*
X82803847Y46841675D01*
X82803965Y46257878D01*
X82804000Y45621699D01*
X82804002Y45496721D01*
X82804062Y44867172D01*
X82804156Y44289562D01*
X82804211Y43761632D01*
X82804156Y43281123D01*
X82803922Y42845777D01*
X82803435Y42453336D01*
X82802625Y42101541D01*
X82801421Y41788133D01*
X82799752Y41510855D01*
X82798283Y41348742D01*
X82797547Y41267447D01*
G37*
%TD*%
%LPC*%
%TO.C,JP2*%
G36*
X29450000Y22340000D02*
G01*
X31900000Y22340000D01*
X31900000Y20840000D01*
X29450000Y20840000D01*
X29450000Y22340000D01*
G37*
%TO.C,JP1*%
G36*
X30525000Y26150000D02*
G01*
X30825000Y26150000D01*
X30825000Y24650000D01*
X30525000Y24650000D01*
X30525000Y26150000D01*
G37*
%TO.C,JP3*%
G36*
X30525000Y18530000D02*
G01*
X30825000Y18530000D01*
X30825000Y17030000D01*
X30525000Y17030000D01*
X30525000Y18530000D01*
G37*
%TD*%
D15*
%TO.C,SW3*%
X90827500Y2580000D03*
D16*
X90827500Y5080000D03*
X90827500Y7580000D03*
X94127500Y7580000D03*
X94127500Y5080000D03*
X94127500Y2580000D03*
%TD*%
D17*
%TO.C,SW2*%
X90405000Y19756001D03*
X90405000Y12756001D03*
D18*
X92905000Y18506001D03*
X92905000Y14006001D03*
%TD*%
D19*
%TO.C,J2*%
X30009000Y66000000D03*
X32549000Y58380000D03*
X27469000Y58380000D03*
%TD*%
%TO.C,J7*%
X10009000Y2000000D03*
X7469000Y9620000D03*
X12549000Y9620000D03*
%TD*%
%TO.C,J8*%
X30009000Y2000000D03*
X27469000Y9620000D03*
X32549000Y9620000D03*
%TD*%
D20*
%TO.C,U7*%
X67699000Y23562000D03*
X67699000Y22562000D03*
X68199000Y23062000D03*
X68699000Y23562000D03*
X68699000Y22562000D03*
%TD*%
D21*
%TO.C,J6*%
X78220000Y4860000D03*
D18*
X78220000Y2320000D03*
X75680000Y4860000D03*
X75680000Y2320000D03*
X73140000Y4860000D03*
X73140000Y2320000D03*
X70600000Y4860000D03*
X70600000Y2320000D03*
X68060000Y4860000D03*
X68060000Y2320000D03*
X65520000Y4860000D03*
X65520000Y2320000D03*
X62980000Y4860000D03*
X62980000Y2320000D03*
X60440000Y4860000D03*
X60440000Y2320000D03*
X57900000Y4860000D03*
X57900000Y2320000D03*
X55360000Y4860000D03*
X55360000Y2320000D03*
X52820000Y4860000D03*
X52820000Y2320000D03*
X50280000Y4860000D03*
X50280000Y2320000D03*
X47740000Y4860000D03*
X47740000Y2320000D03*
%TD*%
D22*
%TO.C,J5*%
X43942000Y12954000D03*
D18*
X46482000Y12954000D03*
X49022000Y12954000D03*
X51562000Y12954000D03*
X54102000Y12954000D03*
X56642000Y12954000D03*
X59182000Y12954000D03*
X61722000Y12954000D03*
X64262000Y12954000D03*
X66802000Y12954000D03*
X69342000Y12954000D03*
X71882000Y12954000D03*
X74422000Y12954000D03*
X76962000Y12954000D03*
X79502000Y12954000D03*
X82042000Y12954000D03*
X84582000Y12954000D03*
%TD*%
D22*
%TO.C,J3*%
X43942000Y61214000D03*
D18*
X46482000Y61214000D03*
X49022000Y61214000D03*
X51562000Y61214000D03*
X54102000Y61214000D03*
X56642000Y61214000D03*
X59182000Y61214000D03*
X61722000Y61214000D03*
%TD*%
D23*
%TO.C,J4*%
X89343000Y36226000D03*
X89343000Y42006000D03*
D24*
X88843000Y34796000D03*
D25*
X93023000Y34796000D03*
D24*
X88843000Y43436000D03*
D25*
X93023000Y43436000D03*
%TD*%
D17*
%TO.C,SW1*%
X90405000Y30932001D03*
X90405000Y23932001D03*
D18*
X92905000Y29682001D03*
X92905000Y25182001D03*
%TD*%
D26*
%TO.C,U1*%
X81098000Y58907000D03*
X79698000Y58907000D03*
X81798000Y58207000D03*
X80398000Y58207000D03*
X78998000Y58207000D03*
X81098000Y57507000D03*
X79698000Y57507000D03*
X81798000Y56807000D03*
X80398000Y56807000D03*
X78998000Y56807000D03*
X81098000Y56107000D03*
X79698000Y56107000D03*
%TD*%
D19*
%TO.C,J1*%
X10009000Y66000000D03*
X12549000Y58380000D03*
X7469000Y58380000D03*
%TD*%
D27*
%TO.C,JP2*%
X29950000Y21590000D03*
D28*
X31400000Y21590000D03*
%TD*%
D29*
%TO.C,JP1*%
X31325000Y25400000D03*
X30025000Y25400000D03*
%TD*%
D30*
%TO.C,JP3*%
X30025000Y17780000D03*
X31325000Y17780000D03*
%TD*%
%LPD*%
M02*
