M48
; DRILL file KiCad 10.0.3 date 2026-06-22T10:57:01
; FORMAT={-:-/ absolute / inch / decimal}
; #@! TF.CreationDate,2026-06-22T10:57:01-04:00
; #@! TF.GenerationSoftware,Kicad,Pcbnew,10.0.3
; #@! TF.FileFunction,Plated,1,4,PTH
FMAT,2
INCH
; #@! TA.AperFunction,Plated,PTH,ViaDrill
T1C0.0118
; #@! TA.AperFunction,Plated,PTH,ComponentDrill
T2C0.0118
; #@! TA.AperFunction,Plated,PTH,ComponentDrill
T3C0.0236
; #@! TA.AperFunction,Plated,PTH,ComponentDrill
T4C0.0354
; #@! TA.AperFunction,Plated,PTH,ComponentDrill
T5C0.0394
; #@! TA.AperFunction,Plated,PTH,ComponentDrill
T6C0.0591
; #@! TA.AperFunction,Plated,PTH,ComponentDrill
T7C0.0720
%
G90
G05
T1
X0.65Y1.29
X0.65Y1.24
X0.7Y1.65
X0.7Y1.6
X0.7Y1.55
X0.75Y1.38
X0.78Y1.65
X0.78Y1.6
X0.78Y1.55
X0.86Y1.65
X0.86Y1.6
X0.86Y1.55
X0.9Y1.005
X0.905Y0.945
X0.9099Y1.4699
X0.9099Y1.4399
X0.91Y1.16
X0.94Y1.47
X0.94Y1.44
X0.96Y1.28
X0.97Y1.47
X0.97Y1.44
X0.97Y1.31
X1.03Y1.2
X1.05Y0.7
X1.235Y1.09
X1.34Y1.72
X1.4Y1.71
X1.4Y1.67
X1.43Y1.71
X1.46Y1.71
X1.48Y1.51
X1.49Y1.71
X1.52Y1.71
X1.59Y1.67
X1.6Y1.84
X1.6Y1.77
X1.6Y1.53
X1.6Y1.5
X1.61Y0.7
X1.63Y2.495
X1.63Y1.53
X1.63Y1.5
X1.66Y1.53
X1.66Y1.5
X1.88Y2.545
X1.98Y1.49
X2.01Y2.03
X2.01Y1.95
X2.01Y1.9
X2.03Y2.515
X2.03Y1.61
X2.04Y2.0
X2.05Y2.03
X2.07Y1.61
X2.08Y2.575
X2.08Y1.5628
X2.09Y2.03
X2.12Y1.61
X2.15Y1.88
X2.18Y2.545
X2.21Y1.315
X2.235Y1.95
X2.24Y0.91
X2.24Y0.88
X2.24Y0.85
X2.28Y2.625
X2.37Y2.06
X2.38Y1.91
X2.43Y1.98
X2.465Y1.175
X2.4845Y1.5562
X2.49Y2.06
X2.52Y1.89
X2.52Y1.17
X2.54Y1.555
X2.5661Y1.1689
X2.57Y1.97
X2.59Y0.97
X2.59Y0.838
X2.5915Y0.9322
X2.6Y1.555
X2.625Y1.175
X2.64Y0.75
X2.64Y0.71
X2.64Y0.67
X2.65Y1.048
X2.69Y2.43
X2.78Y1.06
X2.7905Y0.8705
X2.874Y1.752
X2.88Y0.95
X2.885Y2.455
X2.915Y2.41
X2.95Y0.98
X2.99Y0.98
X3.0042Y1.75
X3.03Y0.98
X3.04Y1.2631
X3.0612Y2.4392
X3.12Y2.625
X3.14Y1.6
X3.14Y1.52
X3.16Y1.3931
X3.17Y2.5
X3.17Y0.84
X3.18Y1.56
X3.2042Y1.43
X3.22Y2.61
X3.22Y1.79
X3.22Y1.6
X3.22Y1.52
X3.23Y0.92
X3.24Y1.69
X3.25Y0.04
X3.27Y2.41
X3.27Y1.71
X3.28Y0.84
X3.3142Y1.65
X3.32Y1.69
X3.3299Y1.4401
X3.33Y1.53
X3.35Y1.64
X3.37Y2.62
X3.37Y0.03
X3.38Y1.13
X3.38Y1.06
X3.39Y1.44
X3.4Y2.43
X3.4Y1.79
X3.42Y1.5552
X3.42Y1.5052
X3.42Y1.39
X3.43Y2.64
X3.43Y1.7
X3.43Y1.64
X3.43Y1.44
X3.47Y2.64
X3.47Y1.8
X3.47Y1.14
X3.51Y1.06
X3.51Y0.62
X3.53Y1.61
T2
X0.7824Y1.3172
X0.7824Y1.27
X0.7824Y1.2228
X0.8376Y1.3172
X0.8376Y1.27
X0.8376Y1.2228
X2.6653Y0.9276
X2.6653Y0.8883
X2.685Y0.908
X2.7047Y0.9276
X2.7047Y0.8883
X3.1102Y2.2916
X3.1102Y2.2365
X3.1377Y2.3192
X3.1377Y2.2641
X3.1377Y2.2089
X3.1653Y2.2916
X3.1653Y2.2365
X3.1928Y2.3192
X3.1928Y2.2641
X3.1928Y2.2089
X3.2204Y2.2916
X3.2204Y2.2365
T4
X3.5759Y0.2984
X3.5759Y0.2
X3.5759Y0.1016
X3.7058Y0.2984
X3.7058Y0.2
X3.7058Y0.1016
T5
X1.73Y2.41
X1.73Y0.51
X1.83Y2.41
X1.83Y0.51
X1.8795Y0.1913
X1.8795Y0.0913
X1.93Y2.41
X1.93Y0.51
X1.9795Y0.1913
X1.9795Y0.0913
X2.03Y2.41
X2.03Y0.51
X2.0795Y0.1913
X2.0795Y0.0913
X2.13Y2.41
X2.13Y0.51
X2.1795Y0.1913
X2.1795Y0.0913
X2.23Y2.41
X2.23Y0.51
X2.2795Y0.1913
X2.2795Y0.0913
X2.33Y2.41
X2.33Y0.51
X2.3795Y0.1913
X2.3795Y0.0913
X2.43Y2.41
X2.43Y0.51
X2.4795Y0.1913
X2.4795Y0.0913
X2.53Y0.51
X2.5795Y0.1913
X2.5795Y0.0913
X2.63Y0.51
X2.6795Y0.1913
X2.6795Y0.0913
X2.73Y0.51
X2.7795Y0.1913
X2.7795Y0.0913
X2.83Y0.51
X2.8795Y0.1913
X2.8795Y0.0913
X2.93Y0.51
X2.9795Y0.1913
X2.9795Y0.0913
X3.03Y0.51
X3.0795Y0.1913
X3.0795Y0.0913
X3.13Y0.51
X3.23Y0.51
X3.33Y0.51
X3.6577Y1.1686
X3.6577Y0.9914
X3.6577Y0.7286
X3.6577Y0.5514
T6
X3.5593Y1.2178
X3.5593Y0.9422
X3.5593Y0.7778
X3.5593Y0.5022
T7
X0.2941Y2.2984
X0.2941Y0.3787
X0.3941Y2.5984
X0.3941Y0.0787
X0.4941Y2.2984
X0.4941Y0.3787
X1.0815Y2.2984
X1.0815Y0.3787
X1.1815Y2.5984
X1.1815Y0.0787
X1.2815Y2.2984
X1.2815Y0.3787
T3
G00X3.4761Y1.7101
M15
G01X3.5194Y1.7101
M16
G05
G00X3.4761Y1.3699
M15
G01X3.5194Y1.3699
M16
G05
G00X3.6466Y1.7101
M15
G01X3.6781Y1.7101
M16
G05
G00X3.6466Y1.3699
M15
G01X3.6781Y1.3699
M16
G05
M30
