%TF.GenerationSoftware,KiCad,Pcbnew,10.0.3*%
%TF.CreationDate,2026-06-22T10:57:00-04:00*%
%TF.ProjectId,esp32bb,65737033-3262-4622-9e6b-696361645f70,100*%
%TF.SameCoordinates,Original*%
%TF.FileFunction,Paste,Top*%
%TF.FilePolarity,Positive*%
%FSLAX46Y46*%
G04 Gerber Fmt 4.6, Leading zero omitted, Abs format (unit mm)*
G04 Created by KiCad (PCBNEW 10.0.3) date 2026-06-22 10:57:00*
%MOMM*%
%LPD*%
G01*
G04 APERTURE LIST*
G04 Aperture macros list*
%AMRoundRect*
0 Rectangle with rounded corners*
0 $1 Rounding radius*
0 $2 $3 $4 $5 $6 $7 $8 $9 X,Y pos of 4 corners*
0 Add a 4 corners polygon primitive as box body*
4,1,4,$2,$3,$4,$5,$6,$7,$8,$9,$2,$3,0*
0 Add four circle primitives for the rounded corners*
1,1,$1+$1,$2,$3*
1,1,$1+$1,$4,$5*
1,1,$1+$1,$6,$7*
1,1,$1+$1,$8,$9*
0 Add four rect primitives between the rounded corners*
20,1,$1+$1,$2,$3,$4,$5,0*
20,1,$1+$1,$4,$5,$6,$7,0*
20,1,$1+$1,$6,$7,$8,$9,0*
20,1,$1+$1,$8,$9,$2,$3,0*%
G04 Aperture macros list end*
%ADD10RoundRect,0.250000X-0.250000X-0.475000X0.250000X-0.475000X0.250000X0.475000X-0.250000X0.475000X0*%
%ADD11RoundRect,0.140000X-0.170000X0.140000X-0.170000X-0.140000X0.170000X-0.140000X0.170000X0.140000X0*%
%ADD12RoundRect,0.140000X0.170000X-0.140000X0.170000X0.140000X-0.170000X0.140000X-0.170000X-0.140000X0*%
%ADD13RoundRect,0.218750X0.256250X-0.218750X0.256250X0.218750X-0.256250X0.218750X-0.256250X-0.218750X0*%
%ADD14RoundRect,0.300000X-0.300000X0.350000X-0.300000X-0.350000X0.300000X-0.350000X0.300000X0.350000X0*%
%ADD15RoundRect,0.237500X-0.262500X0.237500X-0.262500X-0.237500X0.262500X-0.237500X0.262500X0.237500X0*%
%ADD16RoundRect,0.135000X0.185000X-0.135000X0.185000X0.135000X-0.185000X0.135000X-0.185000X-0.135000X0*%
%ADD17RoundRect,0.135000X-0.185000X0.135000X-0.185000X-0.135000X0.185000X-0.135000X0.185000X0.135000X0*%
%ADD18RoundRect,0.150000X0.150000X-0.825000X0.150000X0.825000X-0.150000X0.825000X-0.150000X-0.825000X0*%
%ADD19RoundRect,0.140000X-0.140000X-0.170000X0.140000X-0.170000X0.140000X0.170000X-0.140000X0.170000X0*%
%ADD20RoundRect,0.250000X2.100000X-0.340000X2.100000X0.340000X-2.100000X0.340000X-2.100000X-0.340000X0*%
%ADD21RoundRect,0.135000X0.135000X0.185000X-0.135000X0.185000X-0.135000X-0.185000X0.135000X-0.185000X0*%
%ADD22RoundRect,0.135000X-0.135000X-0.185000X0.135000X-0.185000X0.135000X0.185000X-0.135000X0.185000X0*%
%ADD23RoundRect,0.087500X-0.087500X0.150000X-0.087500X-0.150000X0.087500X-0.150000X0.087500X0.150000X0*%
%ADD24RoundRect,0.050000X-0.050000X0.262500X-0.050000X-0.262500X0.050000X-0.262500X0.050000X0.262500X0*%
%ADD25RoundRect,0.062500X-0.062500X0.162500X-0.062500X-0.162500X0.062500X-0.162500X0.062500X0.162500X0*%
%ADD26RoundRect,0.150000X-0.150000X0.587500X-0.150000X-0.587500X0.150000X-0.587500X0.150000X0.587500X0*%
%ADD27RoundRect,0.250000X-0.550000X1.250000X-0.550000X-1.250000X0.550000X-1.250000X0.550000X1.250000X0*%
%ADD28RoundRect,0.250000X1.850000X-0.550000X1.850000X0.550000X-1.850000X0.550000X-1.850000X-0.550000X0*%
%ADD29RoundRect,0.140000X0.140000X0.170000X-0.140000X0.170000X-0.140000X-0.170000X0.140000X-0.170000X0*%
%ADD30R,0.230000X0.230000*%
%ADD31O,0.800000X0.230000*%
%ADD32R,0.230000X0.600000*%
%ADD33R,0.150000X0.600000*%
%ADD34R,0.650000X0.900000*%
%ADD35RoundRect,0.160000X0.245000X0.160000X-0.245000X0.160000X-0.245000X-0.160000X0.245000X-0.160000X0*%
%ADD36RoundRect,0.093750X0.093750X0.106250X-0.093750X0.106250X-0.093750X-0.106250X0.093750X-0.106250X0*%
%ADD37RoundRect,0.250000X0.255000X0.440000X-0.255000X0.440000X-0.255000X-0.440000X0.255000X-0.440000X0*%
%ADD38RoundRect,0.150000X0.825000X0.150000X-0.825000X0.150000X-0.825000X-0.150000X0.825000X-0.150000X0*%
%ADD39RoundRect,0.250000X-0.550000X-1.850000X0.550000X-1.850000X0.550000X1.850000X-0.550000X1.850000X0*%
%ADD40RoundRect,0.150000X0.425000X-0.150000X0.425000X0.150000X-0.425000X0.150000X-0.425000X-0.150000X0*%
%ADD41RoundRect,0.075000X0.500000X-0.075000X0.500000X0.075000X-0.500000X0.075000X-0.500000X-0.075000X0*%
%ADD42O,2.100000X1.000000*%
%ADD43O,1.800000X1.000000*%
%ADD44RoundRect,0.250000X0.250000X0.475000X-0.250000X0.475000X-0.250000X-0.475000X0.250000X-0.475000X0*%
%ADD45RoundRect,0.250000X0.300000X0.300000X-0.300000X0.300000X-0.300000X-0.300000X0.300000X-0.300000X0*%
%ADD46RoundRect,0.250000X0.300000X-0.300000X0.300000X0.300000X-0.300000X0.300000X-0.300000X-0.300000X0*%
%ADD47RoundRect,0.375000X0.375000X-0.625000X0.375000X0.625000X-0.375000X0.625000X-0.375000X-0.625000X0*%
%ADD48RoundRect,0.500000X1.400000X-0.500000X1.400000X0.500000X-1.400000X0.500000X-1.400000X-0.500000X0*%
%ADD49RoundRect,0.207500X0.207500X0.207500X-0.207500X0.207500X-0.207500X-0.207500X0.207500X-0.207500X0*%
%ADD50RoundRect,0.062500X0.412500X0.062500X-0.412500X0.062500X-0.412500X-0.062500X0.412500X-0.062500X0*%
%ADD51RoundRect,0.062500X0.062500X0.412500X-0.062500X0.412500X-0.062500X-0.412500X0.062500X-0.412500X0*%
%ADD52R,0.900000X1.500000*%
%ADD53R,1.500000X0.900000*%
%ADD54R,0.900000X0.900000*%
%ADD55RoundRect,0.250000X-1.850000X0.550000X-1.850000X-0.550000X1.850000X-0.550000X1.850000X0.550000X0*%
G04 APERTURE END LIST*
D10*
%TO.C,C7*%
X37658000Y46867000D03*
X39558000Y46867000D03*
%TD*%
D11*
%TO.C,C23*%
X64770000Y22272000D03*
X64770000Y21312000D03*
%TD*%
D12*
%TO.C,C19*%
X73914000Y23090000D03*
X73914000Y24050000D03*
%TD*%
D13*
%TO.C,D4*%
X83820000Y1244500D03*
X83820000Y2819500D03*
%TD*%
D14*
%TO.C,D2*%
X21682000Y41540000D03*
X19882000Y41540000D03*
X18082000Y41540000D03*
X21682000Y39740000D03*
X19882000Y39740000D03*
X18082000Y39740000D03*
D15*
X24232000Y41610000D03*
X24232000Y39670000D03*
%TD*%
D16*
%TO.C,R14*%
X25400000Y30478000D03*
X25400000Y31498000D03*
%TD*%
%TO.C,R4*%
X83058000Y44194000D03*
X83058000Y45214000D03*
%TD*%
D17*
%TO.C,R13*%
X25400000Y34292000D03*
X25400000Y33272000D03*
%TD*%
D18*
%TO.C,Q1*%
X18415000Y45023000D03*
X19685000Y45023000D03*
X20955000Y45023000D03*
X22225000Y45023000D03*
X22225000Y49973000D03*
X20955000Y49973000D03*
X19685000Y49973000D03*
X18415000Y49973000D03*
%TD*%
D19*
%TO.C,C11*%
X18062000Y35814000D03*
X19022000Y35814000D03*
%TD*%
D20*
%TO.C,L4*%
X43688000Y40132000D03*
X43688000Y43442000D03*
%TD*%
D17*
%TO.C,R20*%
X63754000Y23318000D03*
X63754000Y22298000D03*
%TD*%
D21*
%TO.C,R11*%
X27434000Y35814000D03*
X26414000Y35814000D03*
%TD*%
D11*
%TO.C,C25*%
X88138000Y16736000D03*
X88138000Y15776000D03*
%TD*%
D21*
%TO.C,R16*%
X82232000Y31066500D03*
X81212000Y31066500D03*
%TD*%
D22*
%TO.C,R1*%
X52981000Y50761000D03*
X54001000Y50761000D03*
%TD*%
D23*
%TO.C,U3*%
X39666000Y42750000D03*
X38566000Y42750000D03*
D24*
X39116000Y42674500D03*
D23*
X39666000Y42075000D03*
X38566000Y42075000D03*
D24*
X39116000Y41849000D03*
D25*
X38366000Y40812000D03*
X38866000Y40812000D03*
X39366000Y40812000D03*
X39866000Y40812000D03*
%TD*%
D17*
%TO.C,R6*%
X36238000Y42435000D03*
X36238000Y41415000D03*
%TD*%
D21*
%TO.C,R3*%
X54001000Y47713000D03*
X52981000Y47713000D03*
%TD*%
D26*
%TO.C,Q2*%
X80640000Y33528000D03*
X78740000Y33528000D03*
X79690000Y31653000D03*
%TD*%
D12*
%TO.C,C21*%
X75946000Y23090000D03*
X75946000Y24050000D03*
%TD*%
D27*
%TO.C,C24*%
X82042000Y21504000D03*
X82042000Y17104000D03*
%TD*%
D28*
%TO.C,L1*%
X55777000Y53133000D03*
X55777000Y56733000D03*
%TD*%
D21*
%TO.C,R23*%
X22010000Y25500000D03*
X20990000Y25500000D03*
%TD*%
D12*
%TO.C,C20*%
X74930000Y23090000D03*
X74930000Y24050000D03*
%TD*%
D11*
%TO.C,C3*%
X51205000Y53127000D03*
X51205000Y52167000D03*
%TD*%
%TO.C,C18*%
X64770000Y24177000D03*
X64770000Y23217000D03*
%TD*%
D16*
%TO.C,R7*%
X37254000Y41415000D03*
X37254000Y42435000D03*
%TD*%
D19*
%TO.C,C6*%
X50344000Y47603000D03*
X51304000Y47603000D03*
%TD*%
D16*
%TO.C,R21*%
X74000000Y44490000D03*
X74000000Y45510000D03*
%TD*%
D21*
%TO.C,R17*%
X69852000Y25856000D03*
X68832000Y25856000D03*
%TD*%
D28*
%TO.C,L3*%
X52475000Y42357000D03*
X52475000Y45957000D03*
%TD*%
D12*
%TO.C,C22*%
X76962000Y23090000D03*
X76962000Y24050000D03*
%TD*%
D19*
%TO.C,C16*%
X71402000Y26162000D03*
X72362000Y26162000D03*
%TD*%
D29*
%TO.C,C10*%
X39512000Y38623000D03*
X38552000Y38623000D03*
%TD*%
D30*
%TO.C,U7*%
X66439000Y24062000D03*
D31*
X66724000Y24062000D03*
D30*
X66439000Y23562000D03*
D31*
X66724000Y23562000D03*
D30*
X66439000Y23062000D03*
D31*
X66724000Y23062000D03*
D30*
X66439000Y22562000D03*
D31*
X66724000Y22562000D03*
D30*
X66439000Y22062000D03*
D31*
X66724000Y22062000D03*
X69674000Y22062000D03*
D30*
X69959000Y22062000D03*
D31*
X69674000Y22562000D03*
D30*
X69959000Y22562000D03*
D31*
X69674000Y23062000D03*
D30*
X69959000Y23062000D03*
D31*
X69674000Y23562000D03*
D30*
X69959000Y23562000D03*
D31*
X69674000Y24062000D03*
D30*
X69959000Y24062000D03*
D32*
X67599000Y24487000D03*
D33*
X67599000Y24487000D03*
D32*
X67599000Y21637000D03*
D33*
X67599000Y21637000D03*
D34*
X67764000Y23622000D03*
X67764000Y22502000D03*
D32*
X67999000Y24487000D03*
D33*
X67999000Y24487000D03*
D32*
X67999000Y21637000D03*
D33*
X67999000Y21637000D03*
D32*
X68399000Y24487000D03*
D33*
X68399000Y24487000D03*
D32*
X68399000Y21637000D03*
D33*
X68399000Y21637000D03*
D34*
X68634000Y23622000D03*
X68634000Y22502000D03*
D32*
X68799000Y24487000D03*
D33*
X68799000Y24487000D03*
D32*
X68799000Y21637000D03*
D33*
X68799000Y21637000D03*
%TD*%
D19*
%TO.C,C26*%
X21020000Y24000000D03*
X21980000Y24000000D03*
%TD*%
D26*
%TO.C,Q3*%
X84704000Y33528000D03*
X82804000Y33528000D03*
X83754000Y31653000D03*
%TD*%
D35*
%TO.C,U2*%
X51054000Y49108000D03*
X51054000Y49908000D03*
D36*
X51941500Y48858000D03*
X51941500Y49508000D03*
X51941500Y50158000D03*
X50166500Y50158000D03*
X50166500Y49508000D03*
X50166500Y48858000D03*
%TD*%
D21*
%TO.C,R19*%
X72392000Y25146000D03*
X71372000Y25146000D03*
%TD*%
D19*
%TO.C,C13*%
X63020000Y28829000D03*
X63980000Y28829000D03*
%TD*%
D10*
%TO.C,C9*%
X37658000Y44835000D03*
X39558000Y44835000D03*
%TD*%
D16*
%TO.C,R18*%
X73406000Y25092000D03*
X73406000Y26112000D03*
%TD*%
%TO.C,R5*%
X84328000Y44194000D03*
X84328000Y45214000D03*
%TD*%
D19*
%TO.C,C17*%
X66449000Y25856000D03*
X67409000Y25856000D03*
%TD*%
D21*
%TO.C,R10*%
X85600000Y37592000D03*
X84580000Y37592000D03*
%TD*%
D37*
%TO.C,U6*%
X21174000Y31433000D03*
X21174000Y33083000D03*
X19974000Y31433000D03*
X19974000Y33083000D03*
D38*
X23049000Y30353000D03*
X23049000Y31623000D03*
X23049000Y32893000D03*
X23049000Y34163000D03*
X18099000Y34163000D03*
X18099000Y32893000D03*
X18099000Y31623000D03*
X18099000Y30353000D03*
%TD*%
D28*
%TO.C,L2*%
X46736000Y47200000D03*
X46736000Y50800000D03*
%TD*%
D39*
%TO.C,L5*%
X58398000Y22352000D03*
X61998000Y22352000D03*
%TD*%
D19*
%TO.C,C5*%
X53011000Y49745000D03*
X53971000Y49745000D03*
%TD*%
D29*
%TO.C,C15*%
X69822000Y26872000D03*
X68862000Y26872000D03*
%TD*%
D22*
%TO.C,R2*%
X52981000Y48729000D03*
X54001000Y48729000D03*
%TD*%
D40*
%TO.C,J4*%
X88268000Y35916000D03*
X88268000Y36716000D03*
D41*
X88268000Y37866000D03*
X88268000Y38866000D03*
X88268000Y39366000D03*
X88268000Y40366000D03*
D40*
X88268000Y41516000D03*
X88268000Y42316000D03*
X88268000Y42316000D03*
X88268000Y41516000D03*
D41*
X88268000Y40866000D03*
X88268000Y39866000D03*
X88268000Y38366000D03*
X88268000Y37366000D03*
D40*
X88268000Y36716000D03*
X88268000Y35916000D03*
D42*
X88843000Y34796000D03*
D43*
X93023000Y34796000D03*
D42*
X88843000Y43436000D03*
D43*
X93023000Y43436000D03*
%TD*%
D44*
%TO.C,C8*%
X35918000Y44835000D03*
X34018000Y44835000D03*
%TD*%
D45*
%TO.C,D1*%
X49557000Y53155000D03*
X46757000Y53155000D03*
%TD*%
D39*
%TO.C,L7*%
X65764000Y17982000D03*
X69364000Y17982000D03*
%TD*%
D13*
%TO.C,D5*%
X86868000Y1244500D03*
X86868000Y2819500D03*
%TD*%
D46*
%TO.C,D3*%
X72009000Y20392000D03*
X72009000Y23192000D03*
%TD*%
D22*
%TO.C,R12*%
X81212000Y35130500D03*
X82232000Y35130500D03*
%TD*%
D47*
%TO.C,U5*%
X62216000Y31419000D03*
X64516000Y31419000D03*
D48*
X64516000Y37719000D03*
D47*
X66816000Y31419000D03*
%TD*%
D21*
%TO.C,R9*%
X39542000Y39639000D03*
X38522000Y39639000D03*
%TD*%
%TO.C,R15*%
X78168000Y31066500D03*
X77148000Y31066500D03*
%TD*%
D11*
%TO.C,C4*%
X52221000Y53127000D03*
X52221000Y52167000D03*
%TD*%
D49*
%TO.C,U4*%
X81802000Y38594000D03*
X81802000Y39624000D03*
X81802000Y40654000D03*
X80772000Y38594000D03*
X80772000Y39624000D03*
X80772000Y40654000D03*
X79742000Y38594000D03*
X79742000Y39624000D03*
X79742000Y40654000D03*
D50*
X83147000Y38124000D03*
X83147000Y38624000D03*
X83147000Y39124000D03*
X83147000Y39624000D03*
X83147000Y40124000D03*
X83147000Y40624000D03*
X83147000Y41124000D03*
D51*
X82272000Y41999000D03*
X81772000Y41999000D03*
X81272000Y41999000D03*
X80772000Y41999000D03*
X80272000Y41999000D03*
X79772000Y41999000D03*
X79272000Y41999000D03*
D50*
X78397000Y41124000D03*
X78397000Y40624000D03*
X78397000Y40124000D03*
X78397000Y39624000D03*
X78397000Y39124000D03*
X78397000Y38624000D03*
X78397000Y38124000D03*
D51*
X79272000Y37249000D03*
X79772000Y37249000D03*
X80272000Y37249000D03*
X80772000Y37249000D03*
X81272000Y37249000D03*
X81772000Y37249000D03*
X82272000Y37249000D03*
%TD*%
D21*
%TO.C,R22*%
X19510000Y25500000D03*
X18490000Y25500000D03*
%TD*%
%TO.C,R8*%
X86108000Y40894000D03*
X85088000Y40894000D03*
%TD*%
D27*
%TO.C,C2*%
X61722000Y56810000D03*
X61722000Y52410000D03*
%TD*%
D52*
%TO.C,U1*%
X88118000Y64757000D03*
X86848000Y64757000D03*
X85578000Y64757000D03*
X84308000Y64757000D03*
X83038000Y64757000D03*
X81768000Y64757000D03*
X80498000Y64757000D03*
X79228000Y64757000D03*
X77958000Y64757000D03*
X76688000Y64757000D03*
X75418000Y64757000D03*
X74148000Y64757000D03*
X72878000Y64757000D03*
X71608000Y64757000D03*
D53*
X70358000Y61722000D03*
X70358000Y60452000D03*
X70358000Y59182000D03*
X70358000Y57912000D03*
X70358000Y56642000D03*
X70358000Y55372000D03*
X70358000Y54102000D03*
X70358000Y52832000D03*
X70358000Y51562000D03*
X70358000Y50292000D03*
D52*
X71608000Y47257000D03*
X72878000Y47257000D03*
X74148000Y47257000D03*
X75418000Y47257000D03*
X76688000Y47257000D03*
X77958000Y47257000D03*
X79228000Y47257000D03*
X80498000Y47257000D03*
X81768000Y47257000D03*
X83038000Y47257000D03*
X84308000Y47257000D03*
X85578000Y47257000D03*
X86848000Y47257000D03*
X88118000Y47257000D03*
D54*
X81798000Y58907000D03*
X80398000Y58907000D03*
X78998000Y58907000D03*
X81798000Y57507000D03*
X80398000Y57507000D03*
X78998000Y57507000D03*
X81798000Y56107000D03*
X80398000Y56107000D03*
X78998000Y56107000D03*
%TD*%
D29*
%TO.C,C12*%
X66139000Y28829000D03*
X65179000Y28829000D03*
%TD*%
D11*
%TO.C,C14*%
X88138000Y27912000D03*
X88138000Y26952000D03*
%TD*%
D19*
%TO.C,C1*%
X87150000Y66294000D03*
X88110000Y66294000D03*
%TD*%
D55*
%TO.C,L6*%
X76200000Y20850000D03*
X76200000Y17250000D03*
%TD*%
M02*
